<?xml version="1.0" encoding="iso-8859-1"?>
<!-- Generator: Adobe Illustrator 19.0.0, SVG Export Plug-In . SVG Version: 6.00 Build 0)  -->
<svg version="1.1" id="Layer_1" xmlns="http://www.w3.org/2000/svg" xmlns:xlink="http://www.w3.org/1999/xlink" x="0px" y="0px"
	 viewBox="0 0 459.87 459.87" style="enable-background:new 0 0 459.87 459.87;" xml:space="preserve">
<g id="XMLID_468_">
	<g>
		<g>
			<path d="M458.838,393.671l-36.928-107.23c-0.073-0.213-0.163-0.416-0.243-0.625c-8.013,11.689-17.881,22.597-28.855,31.788
				l30.419,88.329c3.386,9.833,14.1,15.059,23.935,11.672C456.999,414.22,462.225,403.504,458.838,393.671z"/>
			<path d="M422.698,421.314h-56.12v-65.199l8.869-0.013c9.004-0.013,16.294-7.322,16.28-16.327
				c-0.009-6.327-3.628-11.795-8.899-14.49c-7.334,5.181-15.785,10.189-25.42,14.513c-20.428,9.167-43.171,13.922-67.958,13.735
				c-2.741-0.022-5.174-1.764-6.078-4.352l-32.896-94.141l-26.633-58.865c-3.711-8.204-13.369-11.845-21.575-8.134
				c-8.203,3.712-11.845,13.371-8.133,21.575l62.007,137.051c2.64,5.836,8.451,9.583,14.854,9.583c0.008,0,0.015,0,0.023,0
				l24.13-0.034v65.098h-56.12c-9.005,0-16.304,7.299-16.304,16.304s7.3,16.304,16.304,16.304h183.668
				c9.005,0,16.304-7.299,16.304-16.304C439.002,428.613,431.702,421.314,422.698,421.314z"/>
			<path d="M242.317,179.26c-1.836,4.324-1.783,9.261,0.145,13.545c0.077,0.172,0.147,0.346,0.208,0.524l51.434,147.193
				c37.421-0.667,69.643-13.337,95.822-37.685c15.584-14.494,24.422-29.181,27.7-35.25c-9.36-15.815-54.728-89.665-97.155-109.956
				c-4.839-2.314-10.344-3.488-16.364-3.488c-4.992,0-10.267,0.865-14.469,2.373l-37.473,13.444
				C247.745,171.545,244.155,174.936,242.317,179.26z"/>
			<path d="M220.828,143.06c3.982-0.958,7.551-2.97,10.398-5.727c9.382,6.121,21.601,7.636,32.848,2.734
				c15.134-6.597,23.589-23.328,19.873-39.414c-1.333-5.769-3.983-10.787-7.515-14.892c9.469-24.287-0.023-30.321-7.6-31.611
				c-2.424-0.413-4.206,2.012-3.329,4.31c2.229,5.846-6.905,11.578-14.647,15.255c-0.29-0.006-0.579-0.008-0.87-0.007
				c-1.125-1.865-7.607-10.879-23.989-3.122c-9.531,4.513-13.034,17.205-14.211,28.264c-8.81,1.47-15.894,8.037-18.111,16.571
				C207.46,117.721,218.686,128.671,220.828,143.06z"/>
			<circle cx="106.649" cy="42.471" r="36.524"/>
			<path d="M111.745,174.317l78.456-8.745c9.743-1.086,16.76-9.865,15.674-19.607c-1.087-9.743-9.867-16.754-19.606-15.675
				l-71.617,7.983L76.58,110.6l34.556,12.757l14.979-1.67c-0.92-12.931-11.152-23.615-24.473-24.71l-47.507-3.905
				c-14.713-1.209-27.62,9.737-28.83,24.45l-8.441,136.91l11.195,72.997L0.763,426.984c-3.11,11.345,3.565,23.064,14.911,26.174
				c11.339,3.109,23.062-3.562,26.174-14.91l28.494-103.93c0.791-2.885,0.966-5.904,0.512-8.861L60.511,258.02l8.287,0.681
				l25.409,69.276L72.981,428.204c-2.802,13.23,7.288,25.717,20.859,25.717c9.848-0.001,18.694-6.871,20.817-16.891l22.495-106.221
				c0.829-3.917,0.538-7.989-0.841-11.748l-21.326-58.144l5.944-72.315c-7.891,0.88-6.19,0.69-14.176,1.58
				c-6.487,0.723-12.578-2.077-16.354-6.841L55.71,139.318l43.634,31.716C102.945,173.653,107.373,174.804,111.745,174.317z"/>
		</g>
	</g>
</g>
<g>
</g>
<g>
</g>
<g>
</g>
<g>
</g>
<g>
</g>
<g>
</g>
<g>
</g>
<g>
</g>
<g>
</g>
<g>
</g>
<g>
</g>
<g>
</g>
<g>
</g>
<g>
</g>
<g>
</g>
</svg>
