<?xml version="1.0" encoding="utf-8"?>
<!-- Svg Vector Icons : http://www.onlinewebfonts.com/icon -->
<!DOCTYPE svg PUBLIC "-//W3C//DTD SVG 1.1//EN" "http://www.w3.org/Graphics/SVG/1.1/DTD/svg11.dtd">
<svg version="1.1" xmlns="http://www.w3.org/2000/svg" xmlns:xlink="http://www.w3.org/1999/xlink" x="0px" y="0px" viewBox="0 0 1000 1000" enable-background="new 0 0 1000 1000" xml:space="preserve">
<metadata> Svg Vector Icons : http://www.onlinewebfonts.com/icon </metadata>
<g><g><g><path d="M769.1,240.7L569.3,64.4c1.1-4,1.9-8.1,1.9-12.5c-0.1-26.5-21.5-47.9-48-47.9c-26.4,0-47.9,21.4-47.9,47.9c0,6.5,1.3,12.7,3.7,18.4L277.7,240.7H10v755.3h980V240.7H769.1z M493.9,89.6c8.1,6.3,18.2,10.2,29.3,10.2c13.2,0,25.1-5.3,33.7-13.9l175.5,154.8H315.3L493.9,89.6z M957.6,963.5H42.4V273.1h915.2V963.5z"/><path d="M704.6,490.6c-37.4,7.2-77.3,14.9-110.5,21.1l246.4,9.9l-12.8-7.9C827.8,513.6,770.1,502.8,704.6,490.6z"/><path d="M321.7,474c0.1-0.1,0.3-0.1,0.3,0c-0.2,0.1-0.4,0.3-0.4,0.3l201.3,7.9l19.5-21.2c-13.4-2.3-22.1-3.7-24-3.9c-77.7-14.5-127.2-80.3-128.7-82.2c-12.6-21.9-38.1-37-67.5-37.1c-42.1-0.2-76.5,30.2-76.7,67.8C245.6,443,279.6,473.8,321.7,474z M322.3,359.8c29.9,0.1,54.1,20.9,54,46.4c-0.1,25.4-24.5,45.9-54.4,45.7c-29.9-0.1-54.1-20.9-54-46.3C267.9,380.1,292.3,359.6,322.3,359.8z"/><path d="M314.6,634.9c30,0.1,56-15.4,68.6-37.8c3.6-4.6,52.7-66.1,128.7-79.5c12.1-0.4,310-58.8,310-58.8l11.9-7.9l-280.4,12.1l-27,29.4l-207.1,6.6c-1.4-0.1-2.7-0.2-4-0.2c-42.1-0.3-76.5,30.2-76.6,67.8C238.5,604,272.5,634.6,314.6,634.9z M563.9,475c6.4,0.1,11.5,5.3,11.5,11.7c0,6.4-5.3,11.6-11.7,11.6c-6.4,0-11.6-5.3-11.6-11.7C552.2,480.1,557.4,474.9,563.9,475z M315.2,520.6c29.9,0.2,54.1,21,54,46.3c-0.1,25.4-24.6,45.9-54.5,45.8c-29.9-0.2-54.1-20.9-54-46.3C260.9,541,285.3,520.5,315.2,520.6z"/><path d="M122.1,841.3c7.3,7.8,16.1,14,26.5,18.4c10.4,4.5,22.4,6.8,36,6.8c12.1,0,23-2,32.5-6.1c9.5-4.1,17.5-9.4,23.9-16c6.5-6.6,11.4-14.1,14.7-22.3c3.3-8.2,5-16.6,5-25h-50.4c-0.8,3.9-1.9,7.5-3.1,10.9c-1.3,3.4-3.1,6.4-5.2,8.9c-2.1,2.5-4.7,4.5-7.7,5.9c-3.1,1.4-6.7,2.1-11.1,2.1c-6.1,0-11.1-1.3-15.2-4c-4-2.6-7.3-6.1-9.7-10.5c-2.4-4.4-4.2-9.2-5.3-14.7c-1.1-5.4-1.6-11-1.6-16.6c0-5.6,0.6-11.1,1.6-16.6c1.1-5.4,2.8-10.3,5.3-14.7c2.4-4.3,5.6-7.8,9.7-10.5c4-2.6,9.1-3.9,15.2-3.9c5.3,0,9.6,0.9,13,3c3.4,2,6,4.4,8.1,7c2,2.7,3.4,5.3,4.2,8.1c0.8,2.7,1.3,4.9,1.6,6.4H260c-2.2-21-9.5-37.2-22.1-48.7c-12.5-11.5-30.3-17.3-53.4-17.4c-12.9,0-24.6,2.1-34.9,6.2c-10.4,4.3-19.3,10.1-26.6,17.8c-7.4,7.6-13.1,16.8-17,27.6c-4,10.8-6,22.6-6,35.7c0,12.3,1.9,23.8,5.6,34.5C109.4,824.3,114.9,833.5,122.1,841.3z"/><polygon points="333.5,695.8 282.2,695.8 282.2,862.5 407.4,862.5 407.4,819.8 333.5,819.8 "/><path d="M570.2,716.5c-7.4-7.7-16.3-13.8-26.7-18.1c-10.4-4.4-21.9-6.5-34.6-6.5c-12.6,0-24.1,2.1-34.5,6.5c-10.4,4.4-19.3,10.3-26.7,18.1c-7.4,7.7-13.1,16.9-17.2,27.6c-4,10.7-6.1,22.4-6.1,35.1c0,12.8,2,24.5,6.1,35.1c4,10.7,9.8,19.8,17.2,27.6c7.4,7.8,16.3,13.8,26.7,18.2c10.4,4.4,21.9,6.5,34.5,6.5c12.6,0,24.1-2.1,34.6-6.5c10.4-4.4,19.4-10.4,26.7-18.2c7.4-7.7,13.1-16.9,17.2-27.6c4-10.7,6.1-22.4,6.1-35.1c0-12.8-2-24.5-6.1-35.1C583.3,733.4,577.6,724.2,570.2,716.5z M538.6,802.1c-2.2,5.9-5,10.5-8.3,13.9c-3.3,3.4-6.8,5.6-10.8,7c-4,1.3-7.5,2-10.8,2c-3.3,0-6.8-0.7-10.7-2c-3.9-1.3-7.5-3.6-10.8-7c-3.3-3.4-6.1-8-8.3-13.9c-2.3-5.9-3.4-13.5-3.4-22.9c0-9.3,1.1-17,3.4-22.9c2.2-5.9,5-10.5,8.3-13.9s6.8-5.7,10.8-7c3.9-1.3,7.5-2,10.7-2c3.3,0,6.8,0.7,10.8,2c3.9,1.3,7.5,3.6,10.8,7c3.3,3.4,6.1,8,8.3,13.9c2.3,5.9,3.4,13.6,3.4,22.9C542,788.5,540.9,796.2,538.6,802.1z"/><path d="M740.4,776c-4.4-3.7-9.5-6.7-15.1-9c-5.6-2.3-11.4-4.4-17.3-6.1c-5.9-1.6-11.7-3-17.4-4.3c-5.7-1.3-10.8-2.7-15.3-4.2c-4.5-1.5-8.2-3.2-11.1-5.1c-2.8-2-4.4-4.4-4.6-7.4c0-2.3,0.7-4.2,1.9-5.7c1.2-1.5,2.8-2.6,4.7-3.4c1.9-0.8,3.9-1.3,6.1-1.7c2.1-0.3,4.1-0.5,5.8-0.5c2.7,0,5.3,0.3,7.9,0.9c2.7,0.7,5,1.8,7.2,3.3c2.2,1.4,3.9,3.3,5,5.4c1.2,2.1,1.5,4.8,1,7.9H748c-0.3-10.2-2.4-18.6-6.3-25.6c-3.9-6.9-9-12.6-15.4-16.9c-6.4-4.3-13.7-7.3-21.9-9.2c-8.3-1.9-16.9-2.8-26-2.8c-8.6,0-16.9,1-25,3.2c-8.1,2-15.2,5.4-21.5,9.9c-6.2,4.6-11.3,10.3-15.1,17.2c-3.9,6.9-5.8,15.2-5.8,24.9c0,8.4,1.7,15.3,5.1,20.6c3.4,5.4,7.8,9.8,13.2,13.4c5.4,3.4,11.5,6.2,18.2,8.4c6.8,2.1,13.4,4.1,19.9,6c7.2,2,13.1,3.8,17.8,5.3c4.7,1.5,8.3,2.9,10.9,4.2c2.7,1.3,4.6,2.8,5.6,4.2c1.1,1.5,1.6,3.4,1.6,5.5c0,3.1-0.7,5.6-2,7.6c-1.4,1.9-3.3,3.4-5.4,4.7c-2.2,1.2-4.6,2-7.1,2.3c-2.5,0.4-4.7,0.6-6.8,0.6c-4.8,0-9.6-0.7-14.5-2.2c-4.8-1.6-8.2-4.8-10.1-9.8c-1.2-3.3-1.9-7-1.9-11h-51.4c0,8.9,1.4,16.5,4.2,22.9c2.8,6.4,6.4,11.8,10.8,16.3c4.4,4.6,9.2,8.1,14.7,10.8s10.9,4.7,16.3,6.3c5.4,1.6,10.6,2.6,15.5,3c4.8,0.5,8.8,0.7,11.9,0.7c9.3,0,18.5-0.9,27.7-2.9c9.2-2,17.5-5.1,24.8-9.6c7.3-4.5,13.2-10.3,17.7-17.7c4.5-7.4,6.8-16.5,6.8-27.3c0-7.6-1.3-14.2-4-19.5C748.4,784.2,744.9,779.7,740.4,776z"/><polygon points="908.8,738.5 908.8,695.8 770.9,695.8 770.9,862.5 911.4,862.5 911.4,819.8 822.3,819.8 822.3,799 900.9,799 900.9,759.3 822.3,759.3 822.3,738.5 "/></g></g><g></g><g></g><g></g><g></g><g></g><g></g><g></g><g></g><g></g><g></g><g></g><g></g><g></g><g></g><g></g></g>
</svg>