<svg xmlns="http://www.w3.org/2000/svg" viewBox="0 0 4342.78 2295.95"><defs><style>.cls-1{fill:#fff;}</style></defs><g id="Calque_2" data-name="Calque 2"><g id="Calque_1-2" data-name="Calque 1"><polygon class="cls-1" points="4342.76 1919.43 0 1919.43 280.24 1726.81 0 1534.25 4342.76 1534.25 4077.63 1730.34 4342.76 1919.43"/><path class="cls-1" d="M671.21,1022.69v172H654.56A711.2,711.2,0,0,0,532.07,1081.5q-37.25-24.57-64.18-33.35t-67.12-8.78H318.46v200.12h19.6q46,0,80.35-19.31t64.67-64.07H501.7v182.57H483.08l-11.76-15.8-11.76-14.05L437,1290.4q-14.68-11.4-23.51-14.92-34.32-19.29-75.45-19.31h-19.6v222.95h80.35l21.56-2.64a220.24,220.24,0,0,0,33.31-6.14q16.65-4.38,30.38-9.22t35.27-18q8.82-5.27,24.5-15.8a588.87,588.87,0,0,0,116.61-104.45l17.63-.88v173.79H19.6v-16.67H44.09l43.12-1.76a55.86,55.86,0,0,0,15.68-2.63l11.76-7.9q9.78-7,15.67-21.07,2-11.4,2.94-20.62a239,239,0,0,0,1-24.14V1117.49q0-27.2-3.92-42.57t-14.69-21.51q-9.81-8.76-25.48-11.41l-46.06-2.63H19.6v-16.68Zm-412.52,38.62v-21.94H127.38q12.74,10.53,19.6,21.94Zm0,395.86H147c-4.58,7.61-7.52,11.72-8.82,12.29l-10.78,9.66H258.69Zm0-384.45H150.9l2.94,15.8v15.8H258.69Zm0,341.44H153.84v20.19l-2.94,10.53H258.69Zm0-297.55H153.84v29.84H258.69Zm0,42.13H153.84v30.72H258.69Zm0,42.13H153.84v31.6H258.69Zm0,43H153.84v30.72H258.69Zm0,42.13H153.84v31.6H258.69Zm0,43H153.84v30.72H258.69Zm0,42.13H153.84v30.73H258.69Zm145-117.61,24.5,13.16L446.82,1279l12.74,10.53v-36Zm3.92-11.41h51.93v-36q-4.92,4.39-13.72,11.85a133.93,133.93,0,0,1-17.63,12.73ZM536,1451.91l-21.56,13.16-35.27,14h145v-27.21Zm80.35-385.33v-27.21H490.92l23.51,12.29L538,1066.58ZM553.63,1440.5h70.55v-57.06a445.51,445.51,0,0,1-52.91,43.89ZM616.34,1078H554.61l21.56,16.68a191.4,191.4,0,0,1,22,19.31q8.32,8.77,18.13,18.43Z" transform="translate(-19.59 -42.91)"/><path class="cls-1" d="M810.35,1495.79v-16.67h25.47q54.87,0,72-13.61T925,1401V1101.69q0-33.35-12.74-44.77-21.56-17.55-76.43-17.55H810.35v-16.68h413.5v16.68h-25.47q-51,0-64.67,7-24.51,16.68-24.5,71.1v361.63h61.73q73.49,0,132.28-30.72,36.24-18.44,72.51-49.6t75.45-75.92l17.64-.88v173.79Zm241.05-434.48,4.89-11.41,8.82-10.53h-147q12.74,10.53,19.6,21.94Zm-2,395.86H937.73l-7.84,12.29-11.76,9.66h131.31Zm1-383.57H941.65l2.94,14.92,1,15.8h103.87v-21.94Zm-1,340.56H945.57v20.19l-3.92,10.53h107.79Zm0-297.55H945.57v29.84h103.87Zm0,42.13H945.57v30.72h103.87Zm0,42.13H945.57v31.6h103.87Zm0,43H945.57v30.72h103.87Zm0,42.13H945.57v31.6h103.87Zm0,43H945.57v30.72h103.87Zm0,42.13H945.57v30.73h103.87Zm284.16,76.37-30.38,17.55-33.31,14h145v-31.6Zm18.62-12.29h62.71v-51.79A782.63,782.63,0,0,1,1352.22,1435.23Z" transform="translate(-19.59 -42.91)"/><path class="cls-1" d="M2013.62,1479.12v16.67H1601.1v-16.67h24.49l43.12-1.76q3.9,0,14.7-2.63l11.75-7.9a42,42,0,0,0,15.19-21.07q4.41-13.17,4.41-44.76V1117.49q0-15.81-1-26.77a132.71,132.71,0,0,0-3.43-20.63,25.83,25.83,0,0,0-10.78-15.36,101.08,101.08,0,0,0-15.18-8.78,49.9,49.9,0,0,0-12.74-4l-46.06-2.63H1601.1v-16.68h412.52v16.68h-24.49q-31.38,0-45.08,2.63a51.48,51.48,0,0,0-24,7.9q-11.28,7-17.15,24.58L1900,1092l-1,25.46V1401q0,26.32,3.92,43.88,3.9,10.55,15.68,19.75t23.51,11.85l47,2.64Zm-171.47-417.81,4.89-11.41,8.82-10.53h-147q10.77,7.89,19.6,21.94Zm0,395.86H1728.48c-4.58,7.61-7.52,11.72-8.82,12.29l-10.78,9.66h147A116.6,116.6,0,0,1,1842.15,1457.17Zm-2-383.57H1732.4l2,14.92,1,15.8h104.85Zm0,340.56H1735.34v20.19l-2.94,10.53h107.79Zm0-297.55H1736.32v29.84h103.87Zm0,42.13H1736.32v30.72h103.87Zm0,42.13H1736.32v31.6h103.87Zm0,43H1736.32v30.72h103.87Zm0,42.13H1736.32v31.6h103.87Zm0,43H1736.32v30.72h103.87Zm0,42.13H1736.32v30.73h103.87Z" transform="translate(-19.59 -42.91)"/><path class="cls-1" d="M2806.34,1022.69v208.9h-18.62q-5.88-20.17-25.47-51.78-1-.87-6.37-10.54a108.87,108.87,0,0,0-11.27-16.67l-22.54-27.21q-39.2-43.89-78.39-68.47-27.43-17.55-62.71-17.55h-13.72V1401q0,15.8,1,26.77a118.36,118.36,0,0,0,3.43,20.19q2.43,9.21,12.25,17.11,5.88,3.53,13.23,7a46.87,46.87,0,0,0,13.23,4.39l46.05,2.64h24.5v16.67H2268.39v-16.67h24.5l43.11-1.76a55.86,55.86,0,0,0,15.68-2.63l11.76-7.9q9.78-7,15.68-21.07,2-11.4,2.93-20.62a238.5,238.5,0,0,0,1-24.14V1039.37H2370.3l-22.54.88-21.56,6.14q-16.66,6.15-36.25,21.07-32.34,26.32-53.9,49.15a327.28,327.28,0,0,0-43.11,57.05l-13.72,23.7-15.68,34.23h-17.63v-208.9Zm-592.82,43.89,16.65-14,15.68-13.16h-82.31v27.21ZM2202.74,1078h-39.2v50.91Zm193,379.18c-4.57,7.61-7.51,11.72-8.82,12.29l-10.77,9.66h147l-8.82-10.54-4.9-11.41Zm3.92-12.29h108.77l-1-5.26v-25.46H2402.63v18.44Zm2.94-383.57h104.85v-21.94H2402.63Zm0,43h104.85v-31.6H2402.63Zm0,42.13h104.85v-29.84H2402.63Zm0,43h104.85v-30.72H2402.63Zm0,43h104.85v-31.6H2402.63Zm0,42.13h104.85v-30.72H2402.63Zm0,43h104.85V1286H2402.63Zm0,42.13h104.85V1329H2402.63Zm0,42.14h104.85v-30.73H2402.63Zm347.86-335.3v-27.21H2645.64l15.68,10.53,23.52,16.68Zm0,11.41h-51.94q31.35,29,51.94,56.17Z" transform="translate(-19.59 -42.91)"/><path class="cls-1" d="M3590.23,1022.69v172h-16.66a710.77,710.77,0,0,0-122.48-113.23q-37.26-24.57-64.18-33.35t-67.12-8.78h-82.31v200.12h19.59q46,0,80.35-19.31t64.67-64.07h18.62v182.57h-18.62l-11.75-15.8-11.76-14.05L3356,1290.4q-14.7-11.4-23.52-14.92-34.3-19.29-75.45-19.31h-19.59v222.95h80.35l21.55-2.64a220.59,220.59,0,0,0,33.32-6.14q16.65-4.38,30.38-9.22t35.27-18q8.82-5.27,24.5-15.8a588.53,588.53,0,0,0,116.6-104.45l17.64-.88v173.79H2938.61v-16.67h24.5l43.12-1.76a55.8,55.8,0,0,0,15.67-2.63l11.76-7.9q9.78-7,15.68-21.07,1.95-11.4,2.94-20.62t1-24.14V1117.49q0-27.2-3.92-42.57t-14.7-21.51q-9.81-8.76-25.47-11.41l-46.06-2.63h-24.5v-16.68Zm-412.53,38.62v-21.94H3046.4q12.72,10.53,19.6,21.94Zm0,395.86H3066c-4.58,7.61-7.52,11.72-8.82,12.29l-10.78,9.66h131.3Zm0-384.45H3069.92l2.94,15.8v15.8H3177.7Zm0,341.44H3072.86v20.19l-2.94,10.53H3177.7Zm0-297.55H3072.86v29.84H3177.7Zm0,42.13H3072.86v30.72H3177.7Zm0,42.13H3072.86v31.6H3177.7Zm0,43H3072.86v30.72H3177.7Zm0,42.13H3072.86v31.6H3177.7Zm0,43H3072.86v30.72H3177.7Zm0,42.13H3072.86v30.73H3177.7Zm145-117.61,24.5,13.16,18.62,12.29,12.74,10.53v-36Zm3.92-11.41h51.94v-36q-4.92,4.39-13.72,11.85a133.34,133.34,0,0,1-17.64,12.73ZM3455,1451.91l-21.56,13.16-35.27,14h145v-27.21Zm80.35-385.33v-27.21H3409.93l23.52,12.29,23.52,14.92Zm-62.71,373.92h70.55v-57.06a446.39,446.39,0,0,1-52.92,43.89ZM3535.36,1078h-61.73l21.55,16.68a192.46,192.46,0,0,1,22.05,19.31q8.31,8.77,18.13,18.43Z" transform="translate(-19.59 -42.91)"/><path class="cls-1" d="M4305.53,1011.28v178.18h-15.68a505.45,505.45,0,0,0-62.71-72q-51-44.77-118.08-71.1t-136.69-26.33q-64.66,0-102.39,19.75t-37.73,54q0,30.74,38.21,46.52,14.7,7,22.05,9.21t24,4.83l77.41,13.17L4128.17,1186q3.91.88,25,5.27t36.74,7l64.68,17.55q51.91,16.7,79.86,51.35t27.92,82.07q0,72-63.69,115t-174.42,43l-35.27-.87-26.46-2.64-22.54-2.63-28.41-7a380.72,380.72,0,0,1-42.14-12.29q-19.6-7-26.45-10.53t-29.4-16.68q-34.3-21.06-39.2-23.7l-6.85-4.39-102.89,69.34H3746V1300.94h18.62q16.65,25.45,28.41,38.62l38.22,36.86a475.51,475.51,0,0,0,48,37.74q19.59,13.17,53.9,31.6a389.76,389.76,0,0,0,91.13,33.8,429.59,429.59,0,0,0,98,11q68.58,0,105.34-17.12t36.75-48.71q0-30.72-32.34-46.52l-20.58-7.9-23.52-7-43.11-8.77-43.11-7.9-150.91-18.43q-221.46-29-221.45-158,0-71.1,70.06-118.49t174.91-47.4q119.53,0,225.37,71.09l94.07-64.07Zm-501.7,144H3749l-2,14.92,2,15.8h93.09l-22.54-12.29A169.93,169.93,0,0,1,3803.83,1155.23Zm-11.75-43h-31.36l-3.92,11.41-6.86,19.31h47q-2-5.26-3.43-10.09t-1.46-13.61Zm86.22,85.14H3750.92l4.9,17.56,7.84,14h318.46l-125.43-17.55Q3901.81,1204.39,3878.3,1197.36ZM3761.7,1424.7h64.67l-14.7-10.54-17.63-15.8-14.7-14-17.64-20.19Zm0,12.28v43l62.71-43ZM3794,1100.81l6.85-21.07,2.94-7,10.78-12.29a93.24,93.24,0,0,0-26.45,16.68,110.88,110.88,0,0,0-8.82,8.78,132.91,132.91,0,0,0-10.78,14.92Zm396.35,147.46q-15.2-4.38-30.86-7.9h-388l16.66,17.56,19.59,13.16h444.87a244.2,244.2,0,0,0-41.16-16.68Q4205.58,1252.67,4190.39,1248.27Zm81.82,34.23H3831.27l11.76,5.27q9.78,3.51,21.07,7t27.43,7.46q16.17,4,28.42,6.58a269.13,269.13,0,0,0,30.86,4.39l7.84.88h343.94l-12.74-16.68Zm37.24,43H4048.8l39.2,5.27q78.38,8.78,127.38,25.45h102.89l-2.94-15.8Zm-50-234.36h-39.2l18.62,15.8,20.58,20.19Zm0-12.28v-28.09l-38.22,28.09Zm59.77,288.77h-73.49l15.68,10.54q4.89,3.51,16.65,20.18h38.22l2-14,1-13.17Zm-6.86,43H4284l1,12.29L4282,1440.5l-9.8,21.94,24.5-19.31,7.84-14.92Z" transform="translate(-19.59 -42.91)"/><path d="M509.18,1635.83H677.91q38,0,70.8,21.14l-1.18,2.12q20.06,17.27,20.06,40.16,0,37.35-62.54,56v2.11a65.62,65.62,0,0,0,9.44,1.06q56.64-20.09,56.64-51.79v-8.46q0-16.9-17.7-35.93h1.18q24.78,21.84,24.78,46.5,0,35.94-53.1,53.91v1q62.54,27.84,62.54,65.53v10.57q0,35.6-51.92,52.85-20.26,6.35-46,6.34H528.06q-7.27,0-13-7.4v-1a15.23,15.23,0,0,0,7.08,2.11H674.37q77.68,0,101.48-38.05,5.89-12.67,5.9-23.25v-5.29q0-24.3-21.24-41.22v1.06Q777,1800.71,777,1821.86v5.28q0,46.86-73.16,59.19-10.43,2.12-28.32,2.11H517.44c-1.84,0-4.59-1-8.26-3.17v-7.4h9.44q37.75,0,37.76-45.44V1687.62q0-29.58-13-29.59-28.32-3.16-28.32-9.51,21,0,33,7.4v-1.06q-10.82-9.51-29.5-9.51H513.9c-2-2.12-3.54-3.17-4.72-3.17Zm34.22,243.1h2.36q1.57,0,51.92-46.5v-3.18Q559.72,1861.85,543.4,1878.93Zm2.36-236.75v2.11h1.18c1.57,0,2.36-.7,2.36-2.11Zm4.72,5.28v1.06h1.18q1.58,0,7.08-6.34h-2.36Q554.81,1642.18,550.48,1647.46Zm2.36,231.47h2.36q1.57,0,42.48-38v-2.11Q596.11,1838.77,552.84,1878.93ZM554,1651.69a7.46,7.46,0,0,1,1.18,3.17q1.57,0,14.16-12.68h-3.54Zm3.54,7.4,2.36,1.05,18.88-18h-2.36Q574.87,1642.18,557.56,1659.09Zm2.36,197.64h1.18l36.58-33.82v-2.11Q559.92,1852.15,559.92,1856.73Zm1.18-192.36v3.17q1.57,0,28.32-25.36h-3.54Q584.31,1642.18,561.1,1664.37Zm1.18,8.46v2.11q1.38,0,35.4-31.71v-1H596.5Q595.12,1642.18,562.28,1672.83Zm0,173.34q1.38,0,35.4-31.71v-3.17q-35.4,29.42-35.4,33.82Zm0,32.76h3.54q1.38,0,31.86-28.54v-3.17Q596.3,1847.22,562.28,1878.93Zm1.18-198.7v3.17q1.38,0,34.22-30.65v-3.18Q596.3,1649.57,563.46,1680.23Zm0,9.51v2.11q1.38,0,34.22-30.65v-2.11Q596.3,1659.09,563.46,1689.74Zm0,8.45v3.17q1.38,0,34.22-30.65v-3.17Q596.3,1667.54,563.46,1698.19Zm0,9.52v2.11q1.38,0,34.22-30.65v-2.11Q596.3,1677.06,563.46,1707.71Zm0,8.45v3.17q1.38,0,34.22-30.65v-3.17Q596.3,1685.51,563.46,1716.16Zm0,9.51v2.12q1.38,0,34.22-30.65V1695Q596.3,1695,563.46,1725.67Zm0,8.46v3.17q1.38,0,34.22-30.65v-3.17Q596.3,1703.48,563.46,1734.13Zm0,9.51v2.12q1.38,0,34.22-30.66V1713Q596.3,1713,563.46,1743.64Zm0,8.46v3.17q1.38,0,34.22-30.65v-3.17Q596.3,1721.45,563.46,1752.1Zm0,9.51v2.11q1.38,0,34.22-30.65V1731Q596.3,1731,563.46,1761.61Zm0,8.46v3.17q1.38,0,34.22-30.65v-3.18Q596.3,1739.41,563.46,1770.07Zm0,9.51v2.11q1.38,0,34.22-30.65v-2.11Q596.3,1748.93,563.46,1779.58Zm0,8.45v3.17q1.38,0,34.22-30.65v-3.17Q596.3,1757.38,563.46,1788Zm0,9.52v2.11q1.38,0,34.22-30.65v-2.11Q596.3,1766.9,563.46,1797.55Zm0,8.45v3.17q1.38,0,34.22-30.65v-3.17Q596.3,1775.35,563.46,1806Zm0,9.51v2.12q1.38,0,34.22-30.65v-2.12Q596.3,1784.86,563.46,1815.51Zm0,8.46v3.17q1.38,0,34.22-30.65v-3.17Q596.3,1793.32,563.46,1824Zm0,9.51v2.12q1.38,0,34.22-30.66v-2.11Q596.3,1802.83,563.46,1833.48Zm9.44,45.45h2.36q1.57,0,22.42-20.08v-2.12Q596.11,1856.73,572.9,1878.93Zm9.44,0h3.54q1.57,0,11.8-10.57v-3.17Q595.91,1865.19,582.34,1878.93Zm10.62,0h2.36c1.57,0,2.36-.7,2.36-2.11v-2.12C596.5,1874.7,594.92,1876.11,593,1878.93Zm14.16-231.47V1751h4.72v-99.35a2.24,2.24,0,0,1,2.36-2.12h55.45q19.47,0,31.86,9.52V1658q-12.39-12.69-38.94-12.68H609.48C607.9,1645.58,607.12,1646.29,607.12,1647.46Zm0,116.26v113.1a2.23,2.23,0,0,0,2.36,2.11h2.36V1768a2.23,2.23,0,0,1,2.36-2.11h34.21q43.47,0,57.82,14.8v-1.06q-15.54-18-62.54-18H609.48C607.9,1761.85,607.12,1762.55,607.12,1763.72Zm13-105.69v93h27.13q46,0,59-27.48A92.53,92.53,0,0,0,711,1695v-4.22q0-25.54-11.8-30.66-12.39-4.22-29.5-4.22H622.46C620.88,1656.15,620.1,1656.86,620.1,1658Zm0,116.26v104.64h20q56.25,0,69.62-24.31,9.43-16.72,9.44-39.11,0-34.87-33-41.22-21.63-2.11-38.94-2.11H622.46C620.88,1772.42,620.1,1773.12,620.1,1774.29Zm59-18h3.54q1.77,0,8.26-7.4Q680.27,1753,679.09,1756.33Zm8.26,2.11,2.36,1.06,1.18-2.12v-1.05h-1.18C688.14,1756.56,687.35,1757.27,687.35,1758.44Zm5.9,2.11v1.06l2.36,1.06h1.18v-1.06A9.69,9.69,0,0,1,693.25,1760.55Zm0,117.32h3.54q31.07-26.59,69.62-62.36v-3.17q-53.1,45.63-61.36,57.08Q693.24,1877,693.25,1877.87Zm7.08-230.41,2.36,1.06q1.77,0,3.54-3.17h-3.54C701.12,1645.58,700.33,1646.29,700.33,1647.46Zm1.18,115.21-1.18,2.11v1.06h1.18c1.57,0,2.36-.71,2.36-2.12Zm0-16.91h1.18q3.15,0,54.28-47.57v-2.11Q755.4,1696.08,701.51,1745.76Zm3.54-93,2.36,1,5.9-6.34H711Q709.38,1647.46,705.05,1652.75Zm0,116.26,2.36,1.06q1.77,0,4.72-4.23l-2.36-1.06Q708,1764.78,705.05,1769Zm0,107.81q4.73,0,51.92-44.39,10.62-7.41,10.62-11.63Q765.61,1821.33,705.05,1876.82Zm2.36-142.69h1.18l47.2-43.33v-3.18Q707.42,1728.5,707.41,1734.13Zm2.36-77.16v2.12H711q1.57,0,10.62-9.52H718Q716.26,1649.57,709.77,1657Zm7.08,109.93-7.08,7.39,2.36,1.06q0-.52,7.08-7.4Zm8.26-115.21-11.8,11.62v2.12q1.58,0,14.16-12.68Zm-10.62,126.83v1.06h1.18q1.58,0,10.62-9.51h-2.36Q722.36,1770.07,714.49,1778.52ZM731,1654.86l-15.34,14.8v3.17q1.38,0,17.7-15.86C733.37,1655.56,732.58,1654.86,731,1654.86Zm-15.34,60.24v2.12q1.58,0,38.94-34.88v-1.06h-1.18Q751.66,1681.64,715.67,1715.1Zm21.24-56-20.06,19v2.12q1.57,0,22.42-20.09Zm-20.06,48.62H718q0-1.23,34.22-30.65a7.49,7.49,0,0,1-1.18-3.18Q716.86,1701.9,716.85,1707.71Zm0,32.76q7.47-.87,36.58-29.59a8,8,0,0,0,1.18-4.23Q752.84,1707,716.85,1740.47Zm24.78-77.16-23.6,22.2v3.17q1.58,0,26-23.25C744,1664,743.2,1663.31,741.63,1663.31ZM718,1695v2.12q1.58,0,29.5-26.43v-2.11Q746,1668.6,718,1695Zm0,89.84v1.06h1.18q1.57,0,14.16-12.68H731Q729.44,1773.24,718,1784.86Zm0,88.79q6.5,0,42.48-34.88,5.9-3,5.9-8.46Q764,1831,718,1873.65Zm3.54-83.5v2.11q1.38,0,17.7-15.85h-2.36Q735.14,1776.41,721.57,1790.15Zm41.3,15.85q-41.11,37.17-41.3,39.11v1.06q1.57,0,43.66-39.11Zm-20.06-26.42-18.88,18v2.11q1.58,0,21.24-19Zm4.72,4.23-22.42,21.13v2.12q1.57,0,24.78-22.2Zm-22.42,47.56v3.17l37.76-32.77a7.46,7.46,0,0,1-1.18-3.17Q759.92,1798.78,725.11,1831.37ZM752.25,1788l-26,24.31v3.17q1.58,0,28.32-25.36C754.61,1788.74,753.82,1788,752.25,1788Zm4.72,5.29-30.68,28.54V1824q1.38,0,33-29.59Zm2.36,51.79-22.42,21.14a63.78,63.78,0,0,0,22.42-19l1.18-2.11Z" transform="translate(-19.59 -42.91)"/><path d="M935.77,1630.55q5.9,0,17.69,35.94,75.52,182.85,83.78,198.7,7.08,7.39,8.26,7.4v-1.06q-6.3,0-38.94-86.67-2.35-3-61.36-148h1.18q6.5,2,27.14,58.13,66.08,160,74.34,177.57a17.29,17.29,0,0,0,13,5.28h8.26q4.71,1.77,4.72,7.4v1.06c0,1.41-.79,2.11-2.36,2.11H945.2q-1.77,0-4.71-4.22v-6.35h18.87q22.42,0,22.42-13.74,0-9-13-41.22c0-1.41-.78-2.11-2.36-2.11H888.57q-7.67,0-10.62,14.8a43.83,43.83,0,0,0-4.72,20.08V1861q0,16.92,15.34,16.91,1.77,0,4.72,4.23v4.23c0,1.41-.79,2.11-2.36,2.11H806q-7.08,0-7.08-6.34v-4.23q40.71,0,73.16-99.35l59-148Zm-38.94,252.61q8.25,5.11,8.26,11.62v2.12c0,1.41-.79,2.11-2.36,2.11H816.59q-6.29,0-11.8-6.34v-1.06l5.9,1.06h83.78q3.54,0,3.54-4.23Zm-72-4.23h2.36q1.57,0,24.78-22.2v-2.11Q850.42,1854.62,824.85,1878.93Zm9.44,0h3.54l17.7-14.8a7.46,7.46,0,0,1-1.18-3.17Q852.77,1861,834.29,1878.93Zm10.62,0h2.36q1.58,0,10.62-9.51v-2.12Q856.32,1867.3,844.91,1878.93Zm1.18-25.37h1.18l3.54-4.22v-1.06C849.24,1848.63,847.66,1850.39,846.09,1853.56Zm14.16,19-5.9,6.34h3.54q1.77,0,4.72-4.23C862.61,1873.29,861.82,1872.59,860.25,1872.59Zm10.62-62.36q-10.62,29.07-10.62,37,0,16,14.16,26.43v-1.06q-9.43-9-9.44-20.08,0-10.74,10.62-38h88.49v-2.12c0-1.41-.78-2.11-2.36-2.11Zm-4.72,66.59-1.18,2.11h3.54C868.51,1877.52,867.72,1876.82,866.15,1876.82Zm49.56-180.74q-2.37,8.64-40.12,103.58h4.72q3.35,0,38.94-97.24c-1.58-2.93-2.36-5.05-2.36-6.34Zm8.26,20.08-31.86,83.5h66.07v-1.06q-23.59-56.89-33-82.44Zm-5.9-34.88h1.18l22.42-21.14V1658h-1.18Q918.07,1675.64,918.07,1681.28Zm1.18,5.29v1h1.18q1.56,0,23.59-21.13v-2.12Q942.45,1664.37,919.25,1686.57Zm3.54,5.28V1694H924l23.59-20.09a7.56,7.56,0,0,1-1.18-3.17Q944.81,1670.71,922.79,1691.85ZM937,1651.69q-13,11.8-13,14.8h1.18l14.16-13.74Zm-11.8,47.56v1.06h1.18q1.56,0,23.59-21.14v-1.06h-1.18Q947.17,1678.11,925.15,1699.25Zm2.36,5.29a7.56,7.56,0,0,1,1.18,3.17q1.56,0,23.59-21.14v-2.12H951.1Zm2.36-51.79c1,0,3-1.77,5.9-5.29v-3.17Q929.86,1647.29,929.87,1652.75Zm1.18,59.18v2.12q1.56,0,23.59-21.14v-2.11Q953.07,1690.8,931.05,1711.93Zm24.77-14.79-22.41,21.14v2.11h1.18q1.56,0,23.59-21.14C958.18,1697.84,957.4,1697.14,955.82,1697.14Zm-20.05,28.53v1.06H937q1.56,0,23.59-21.14v-1h-1.18Q957.78,1704.54,935.77,1725.67Zm2.36,5.29a7.65,7.65,0,0,1,1.18,3.17q1.56,0,23.59-21.14v-3.17Zm26-13.74-22.41,21.14v2.11q1.56,0,24.77-22.19Zm2.36,6.34L944,1744.7v2.11h1.18q1.57,0,23.6-21.14C968.8,1724.27,968,1723.56,966.44,1723.56Zm-20.06,28.54v1.05h1.18q1.58,0,23.6-21.13v-2.12Q969.59,1729.9,946.38,1752.1Zm131,131.06q8.25,5.11,8.26,11.62v2.12c0,1.41-.79,2.11-2.36,2.11H958.18q-6.48,0-11.8-7.4l5.9,1.06H1075q3.54,0,3.54-4.23ZM948.74,1757.38a7.5,7.5,0,0,1,1.18,3.17q1.58,0,23.6-21.14v-3.17Zm26-13.74-22.42,21.14v2.12q1.58,0,24.78-22.2Zm-20.06,27.48v2.12h1.18q1.57,0,23.6-21.14V1750h-1.18Q976.67,1750,954.64,1771.12Zm2.36,7.4,2.36,1.06,22.42-21.14v-2.11Q980.21,1756.33,957,1778.52Zm2.36,5.29a7.46,7.46,0,0,1,1.18,3.17l24.78-21.14a7.65,7.65,0,0,1-1.18-3.17Zm3.54,7.39v2.12q1.58,0,24.78-22.2v-1H986.5Q984.93,1770.07,962.9,1791.2Zm2.36,6.35v3.17q1.57,0,24.78-22.2v-2.11h-1.18Q987.28,1776.41,965.26,1797.55Zm2.36,7.39L970,1806l22.42-21.14v-2.11Q990.83,1782.75,967.62,1804.94Zm26-15.85-22.42,21.14v2.11q1.58,0,24.78-22.19Zm-20.06,28.54v1.06h1.18q1.57,0,23.6-21.14v-1.06h-1.18Q995.55,1796.49,973.52,1817.63Zm2.36,6.34,2.36,1.06,22.42-21.14v-2.12Q999.09,1801.77,975.88,1824Zm26-14.8-22.42,21.14v2.12q1.58,0,24.78-22.2Zm2.36,6.34-22.42,21.14v2.12q1.58,0,24.78-22.2ZM984.14,1843v2.12h1.18q1.57,0,23.6-21.14v-2.11h-1.18Q1006.17,1821.86,984.14,1843Zm0,35.94h3.54q1.38,0,31.86-28.54v-2.11h-1.18Q1017,1848.28,984.14,1878.93Zm2.36-28.54v2.12q1.57,0,24.78-22.2v-2.11Q1009.71,1828.2,986.5,1850.39Zm1.18,7.4a2.24,2.24,0,0,0,2.36,2.12q0-1.41,24.78-22.2a7.5,7.5,0,0,1-1.18-3.17Q1012.07,1834.54,987.68,1857.79Zm0,9.51v2.12q1.58,0,29.5-26.43v-1H1016Q1014.43,1841.94,987.68,1867.3Zm33-12.68-26,24.31h2.36q1.57,0,26-23.25Zm-16.52,24.31h3.54q1.38,0,17.7-15.85V1861h-1.18Q1022.69,1861,1004.2,1878.93Zm23.6-12.68-13,12.68h2.36q1.58,0,13-11.63Zm3.54,5.28-7.08,7.4h3.54c1,0,3-1.76,5.9-5.28C1033.7,1872.24,1032.91,1871.53,1031.34,1871.53Zm3.54,7.4h2.36c1.57,0,2.36-.7,2.36-2.11h-2.36C1035.67,1877.05,1034.88,1877.76,1034.88,1878.93Z" transform="translate(-19.59 -42.91)"/><path d="M1095.69,1635.83h180.52q51.52,0,77.88,20.09h1.18l-1.18,2.11q21.24,18.15,21.24,45.45,0,42.45-57.82,57.07-14.74,3.18-18.88,3.17,0,3.18,48.38,82.45,9.83,15.84,20.06,25.36v-1q-15.15-18.33-63.72-101.47V1768q76.7-10.92,76.7-62.36,0-23.07-21.24-45.45H1360q27.13,23.27,27.14,51.79v2.12q0,41.22-54.28,56-21.24,4-21.24,6.34,49,83.85,62.54,98.29,5.7,3.18,17.7,3.17h7.08q1.77,0,4.72,4.23v6.34h-80.24q-7.47,0-16.52-19-45.42-70.29-57.81-92h-41.3c-1.58.24-2.36,1-2.36,2.12v66.59q0,31.69,18.88,31.7h11.8q4.71,1.77,4.72,7.4v1.06c0,1.41-.79,2.11-2.36,2.11H1100.4c-2-2.11-3.54-3.17-4.71-3.17v-7.4h3.53q32.05,0,40.12-22.19,3.54-14.45,3.54-34.88V1694q0-34.89-10.62-34.88l-23.6-4.23c-3.54-1.41-5.5-2.82-5.9-4.23v-1.06h1.18q21,0,29.5,6.35v-1.06q-9-9.51-35.4-9.51v-1.06l-2.35-3.17Zm147.49,247.33h1.18q8.25,5.11,8.26,11.62l-1.18,4.23H1114.56q-7.27,0-13-7.4l8.26,1.06H1242q1.77,0,3.54-3.17C1245.54,1888.33,1244.75,1886.21,1243.18,1883.16Zm-110.92-4.23h2.36q2.37-.71,48.38-43.33v-2.12Q1180.65,1834.19,1132.26,1878.93Zm1.18-234.64v1.06h1.18q1.77,0,3.54-3.17h-2.36C1134.23,1642.41,1133.44,1643.12,1133.44,1644.29Zm4.72,5.28v1.06h1.18q1.58,0,9.44-8.45h-2.36Q1144.65,1642.18,1138.16,1649.57Zm3.54,5.29,2.36,1.06,14.16-13.74h-2.36Q1154.28,1642.18,1141.7,1654.86Zm40.12,187.08-40.12,37h3.54q1.58,0,38.94-34.88C1184.18,1842.64,1183.39,1841.94,1181.82,1841.94ZM1144.06,1862q1.57,0,38.94-34.88V1824Q1144.06,1856.21,1144.06,1862Zm1.18-201.88v3.17q1.58,0,23.6-21.13h-3.54Q1163.72,1642.18,1145.24,1660.14Zm2.36,7.4v2.12q2.55-.89,30.68-27.48h-2.36Q1174.34,1642.18,1147.6,1667.54Zm0,181.8h1.18l34.22-31.71v-2.12Q1147.6,1844.94,1147.6,1849.34Zm1.18-174.4v3.17q1.38,0,34.22-30.65v-3.17Q1181.62,1644.29,1148.78,1674.94Zm0,9.51,2.36,1.06,31.86-29.59v-2.12Q1181.62,1653.8,1148.78,1684.45Zm0,155.37q1.38,0,34.22-30.65V1806Q1148.79,1833.84,1148.78,1839.82Zm1.18-148V1695q1.38,0,33-29.59v-3.17Q1181.62,1662.26,1150,1691.85Zm0,9.51v2.12q1.38,0,33-29.6v-2.11Q1181.62,1671.77,1150,1701.36Zm0,8.46V1713q1.38,0,33-29.59v-3.17Q1181.62,1680.23,1150,1709.82Zm0,9.51v2.12q1.38,0,33-29.6v-2.11Q1181.62,1689.74,1150,1719.33Zm0,8.46V1731q1.38,0,33-29.6v-3.17Q1181.62,1698.19,1150,1727.79Zm0,9.51v2.11q1.38,0,33-29.59v-2.11Q1181.62,1707.71,1150,1737.3Zm0,8.46v3.17q1.38,0,33-29.6v-3.17Q1181.62,1716.16,1150,1745.76Zm0,9.51v2.11q1.38,0,33-29.59v-2.12Q1181.62,1725.67,1150,1755.27Zm0,8.45v3.18q1.38,0,33-29.6v-3.17Q1181.62,1734.13,1150,1763.72Zm0,9.52v2.11q1.38,0,33-29.59v-2.12Q1181.62,1743.64,1150,1773.24Zm0,8.45v3.17q1.38,0,33-29.59v-3.17Q1181.62,1752.1,1150,1781.69Zm0,9.51v2.12q34.21-28.36,34.22-32.77Q1182.8,1760.55,1150,1791.2Zm0,8.46v3.17q1.38,0,33-29.59v-3.17Q1181.62,1770.07,1150,1799.66Zm0,9.51v2.12q1.38,0,33-29.6v-2.11Q1181.62,1779.58,1150,1809.17Zm0,8.46v3.17q1.38,0,33-29.6V1788Q1181.62,1788,1150,1817.63Zm0,9.51v2.11q1.38,0,33-29.59v-2.11Q1181.62,1797.55,1150,1827.14Zm2.36,51.79h2.36q2.55-.89,30.68-27.48v-1.06h-1.18Q1182.41,1850.57,1152.32,1878.93Zm33-22.2-23.6,22.2h3.54q1.58,0,22.42-20.08C1187.72,1857.44,1186.93,1856.73,1185.36,1856.73Zm-13,22.2h2.36q1.77,0,15.34-13.74v-2.11Q1188.7,1863.08,1172.38,1878.93Zm9.44,0h3.54q1.58,0,9.44-8.45l-2.36-1.06Q1190.87,1869.42,1181.82,1878.93Zm15.34-5.28q-4.73,4.75-4.72,5.28h2.36q1.77,0,4.72-4.23Zm-3.54-226.19v108.87h4.72V1651.69a2.24,2.24,0,0,1,2.36-2.12h53.09q38.94,0,53.1,12.69v-1.06q-14-15.85-63.71-15.85H1196C1194.41,1645.58,1193.62,1646.29,1193.62,1647.46Zm0,119.44v70.81q0,25.89,14.16,34.88v-1.06q-9.45-8.62-9.44-29.59v-70.82l5.9-1h38.94V1769c0-1.41-.79-2.11-2.36-2.11Zm11.8-107.81v97.24h42.48q46.39,0,60.17-20.09,10.62-14.09,10.62-35.93,0-31.89-17.7-39.11a105.52,105.52,0,0,0-28.32-4.23h-64.89C1206.2,1657.21,1205.42,1657.91,1205.42,1659.09Zm43.66,105.69a2.24,2.24,0,0,0,2.36,2.12l3.54-4.23h-3.54C1249.86,1762.9,1249.08,1763.61,1249.08,1764.78Zm3.54,6.34v1.06h1.17q1.57,0,11.8-10.57Q1260.88,1761.61,1252.62,1771.12Zm3.53,5.29a2.24,2.24,0,0,0,2.36,2.11l18.88-18H1275Q1271.9,1760.55,1256.15,1776.41Zm3.54,6.34,2.36,1.06q27.15-24.84,27.14-26.43Q1286,1757.38,1259.69,1782.75Zm3.54,5.28a2.25,2.25,0,0,0,2.36,2.12l23.6-22.2v-3.17Q1287.62,1764.78,1263.23,1788Zm3.54,6.35,2.36,1,23.6-22.19v-1.06h-1.18Q1290,1772.18,1266.77,1794.38Zm3.54,4.22a7.5,7.5,0,0,1,1.18,3.17q1.58,0,24.78-22.19v-2.12h-1.18Zm3.54,7.4,2.36,1.06,23.6-22.2v-1h-1.18Q1297.05,1783.81,1273.85,1806Zm3.54,5.29,2.36,1,23.6-22.19v-1.06h-1.18Q1300.59,1789.09,1277.39,1811.29Zm4.72,5.28v2.12q1.58,0,24.78-22.2v-1.06h-1.18Q1304.14,1795.43,1282.11,1816.57Zm2.36,6.34,2.36,1.06,23.6-22.2v-1h-1.18Q1307.68,1800.72,1284.47,1822.91Zm4.72,5.29v2.11q1.57,0,24.78-22.19V1806Q1312.4,1806,1289.19,1828.2Zm3.54,5.28v2.12q1.57,0,24.78-22.2v-1.06h-1.18Q1314.76,1812.34,1292.73,1833.48Zm2.36,6.34,2.36,1.06q1.58,0,23.6-21.14v-2.11h-1.18Q1318.3,1817.63,1295.09,1839.82Zm4.72-192.36a9.69,9.69,0,0,1,3.54,1.06l3.54-4.23h-3.54Q1301.58,1644.29,1299.81,1647.46Zm0,197.65v2.11q1.57,0,24.78-22.19V1824h-1.18Q1321.83,1824,1299.81,1845.11Zm2.36-92h2.36q3.15,0,60.18-52.84v-3.17Q1362.75,1697.67,1302.17,1753.15Zm1.18,97.24v2.12h1.18q1.58,0,23.6-21.14v-2.12H1327Q1325.38,1829.25,1303.35,1850.39Zm2.36-198.7,2.36,1.06q0-.54,7.08-7.4h-2.36Q1311.22,1645.35,1305.71,1651.69Zm1.18,205v1.06h1.18q1.58,0,23.6-21.14v-1.05h-1.18Q1328.92,1835.6,1306.89,1856.73Zm3.54-200.81,2.36,1q1.57,0,10.62-9.51h-3.54Q1318.3,1647.46,1310.43,1655.92Zm0,206.1v2.11h1.18q1.58,0,23.6-21.14v-2.11H1334Q1332.46,1840.88,1310.43,1862Zm3.54,6.34v1.06h1.18q1.57,0,23.6-21.14v-1.06h-1.18Q1336,1847.22,1314,1868.36Zm1.18-207.16v1.06h1.18q1.58,0,14.16-12.69h-2.36Q1326.55,1649.57,1315.15,1661.2Zm48.38,45.45-47.2,43.33h1.18q3.15,0,46-40.16a7.5,7.5,0,0,1,1.18-3.17Zm-46,167a2.23,2.23,0,0,0,2.36,2.11l22.42-21.14v-2.11h-1.18Q1339.54,1852.51,1317.51,1873.65Zm16.52-222-15.34,14.8v2.11h1.18q1.77,0,16.52-14.8C1336.39,1652.39,1335.6,1651.69,1334,1651.69ZM1318.69,1732h1.18l43.66-40.17v-2.11Q1318.7,1727.44,1318.69,1732Zm21.24-76.1-18.88,18,2.36,1.06,18.88-18Zm-17.7,223h2.36q1.58,0,21.24-19v-2.12Q1344.26,1857.79,1322.23,1878.93Zm85,4.23q5.31,0,8.25,10.57v3.17c0,1.41-.78,2.11-2.36,2.11h-79q-11.8-2.64-11.8-7.4l5.9,1.06H1406c1.57,0,2.36-.7,2.36-2.11v-2.12Zm-83.78-202.93v3.17q1.58,0,24.78-22.2l-2.36-1.06Q1344.26,1660.14,1323.41,1680.23Zm36.58,2.11q-36.59,32.6-36.58,35.94v1q1.58,0,38.94-34.88C1362.35,1683,1361.56,1682.34,1360,1682.34Zm-35.4,6.34v2.12q1.58,0,27.14-24.31v-2.12Q1350.16,1664.37,1324.59,1688.68Zm33-12.68-33,30.65v2.11q1.38,0,35.4-31.7Zm-3.54-6.34-28.32,26.42v3.17q2.55-.88,30.68-27.48C1356.45,1670.36,1355.66,1669.66,1354.09,1669.66Zm5.9,48.62-29.5,27.48q7.47,0,28.32-23.26l2.36-4.22Zm-11.8,144.8-16.52,15.85h3.54q1.77,0,15.34-13.74C1350.55,1863.78,1349.76,1863.08,1348.19,1863.08Zm-5.9,15.85h2.36q1.57,0,9.44-8.45v-2.12Q1352.52,1868.36,1342.29,1878.93Zm9.44,0h3.54q1.77,0,4.72-4.23l-2.36-1Q1356.05,1873.65,1351.73,1878.93Z" transform="translate(-19.59 -42.91)"/><path d="M1425.51,1635.83h168.73q38,0,70.8,21.14l-1.18,2.12q20.06,17.27,20.06,40.16,0,37.35-62.54,56v2.11a65.62,65.62,0,0,0,9.44,1.06q56.64-20.09,56.64-51.79v-8.46q0-16.9-17.7-35.93h1.18q24.78,21.84,24.78,46.5,0,35.94-53.1,53.91v1q62.54,27.84,62.54,65.53v10.57q0,35.6-51.92,52.85-20.27,6.35-46,6.34H1444.39q-7.28,0-13-7.4v-1a15.23,15.23,0,0,0,7.08,2.11H1590.7q77.68,0,101.48-38.05,5.89-12.67,5.9-23.25v-5.29q0-24.3-21.24-41.22v1.06q16.52,14.79,16.52,35.94v5.28q0,46.86-73.16,59.19-10.42,2.12-28.32,2.11H1433.77c-1.83,0-4.59-1-8.26-3.17v-7.4H1435q37.77,0,37.76-45.44V1687.62q0-29.58-13-29.59-28.32-3.16-28.32-9.51,21,0,33,7.4v-1.06q-10.82-9.51-29.5-9.51h-4.72c-2-2.12-3.54-3.17-4.72-3.17Zm34.22,243.1h2.36q1.58,0,51.92-46.5v-3.18Q1476,1861.85,1459.73,1878.93Zm2.36-236.75v2.11h1.18c1.57,0,2.36-.7,2.36-2.11Zm4.72,5.28v1.06H1468q1.58,0,7.08-6.34h-2.36Q1471.14,1642.18,1466.81,1647.46Zm2.36,231.47h2.36q1.58,0,42.48-38v-2.11Q1512.44,1838.77,1469.17,1878.93Zm1.18-227.24a7.46,7.46,0,0,1,1.18,3.17q1.58,0,14.16-12.68h-3.54Zm3.54,7.4,2.36,1.05,18.88-18h-2.36Q1491.2,1642.18,1473.89,1659.09Zm2.36,197.64h1.18l36.58-33.82v-2.11Q1476.26,1852.15,1476.25,1856.73Zm1.18-192.36v3.17q1.58,0,28.32-25.36h-3.54Q1500.64,1642.18,1477.43,1664.37Zm1.18,8.46v2.11q1.38,0,35.4-31.71v-1h-1.18Q1511.45,1642.18,1478.61,1672.83Zm0,173.34q1.38,0,35.4-31.71v-3.17q-35.4,29.42-35.4,33.82Zm0,32.76h3.54q1.38,0,31.86-28.54v-3.17Q1512.63,1847.22,1478.61,1878.93Zm1.18-198.7v3.17q1.38,0,34.22-30.65v-3.18Q1512.63,1649.57,1479.79,1680.23Zm0,9.51v2.11q1.38,0,34.22-30.65v-2.11Q1512.63,1659.09,1479.79,1689.74Zm0,8.45v3.17q1.38,0,34.22-30.65v-3.17Q1512.63,1667.54,1479.79,1698.19Zm0,9.52v2.11q1.38,0,34.22-30.65v-2.11Q1512.63,1677.06,1479.79,1707.71Zm0,8.45v3.17q1.38,0,34.22-30.65v-3.17Q1512.63,1685.51,1479.79,1716.16Zm0,9.51v2.12q1.38,0,34.22-30.65V1695Q1512.63,1695,1479.79,1725.67Zm0,8.46v3.17q1.38,0,34.22-30.65v-3.17Q1512.63,1703.48,1479.79,1734.13Zm0,9.51v2.12q1.38,0,34.22-30.66V1713Q1512.63,1713,1479.79,1743.64Zm0,8.46v3.17q1.38,0,34.22-30.65v-3.17Q1512.63,1721.45,1479.79,1752.1Zm0,9.51v2.11q1.38,0,34.22-30.65V1731Q1512.63,1731,1479.79,1761.61Zm0,8.46v3.17q1.38,0,34.22-30.65v-3.18Q1512.63,1739.41,1479.79,1770.07Zm0,9.51v2.11q1.38,0,34.22-30.65v-2.11Q1512.63,1748.93,1479.79,1779.58Zm0,8.45v3.17q1.38,0,34.22-30.65v-3.17Q1512.63,1757.38,1479.79,1788Zm0,9.52v2.11q1.38,0,34.22-30.65v-2.11Q1512.63,1766.9,1479.79,1797.55Zm0,8.45v3.17q1.38,0,34.22-30.65v-3.17Q1512.63,1775.35,1479.79,1806Zm0,9.51v2.12q1.38,0,34.22-30.65v-2.12Q1512.63,1784.86,1479.79,1815.51Zm0,8.46v3.17q1.38,0,34.22-30.65v-3.17Q1512.63,1793.32,1479.79,1824Zm0,9.51v2.12q1.38,0,34.22-30.66v-2.11Q1512.63,1802.83,1479.79,1833.48Zm9.44,45.45h2.36q1.58,0,22.42-20.08v-2.12Q1512.44,1856.73,1489.23,1878.93Zm9.44,0h3.54q1.57,0,11.8-10.57v-3.17Q1512.24,1865.19,1498.67,1878.93Zm10.62,0h2.36c1.57,0,2.36-.7,2.36-2.11v-2.12C1512.83,1874.7,1511.25,1876.11,1509.29,1878.93Zm14.16-231.47V1751h4.72v-99.35a2.24,2.24,0,0,1,2.36-2.12H1586q19.47,0,31.86,9.52V1658q-12.39-12.69-38.94-12.68h-53.09C1524.23,1645.58,1523.45,1646.29,1523.45,1647.46Zm0,116.26v113.1a2.23,2.23,0,0,0,2.36,2.11h2.36V1768a2.23,2.23,0,0,1,2.36-2.11h34.22q43.45,0,57.81,14.8v-1.06q-15.54-18-62.53-18h-34.22C1524.23,1761.85,1523.45,1762.55,1523.45,1763.72Zm13-105.69v93h27.13q46,0,59-27.48a92.53,92.53,0,0,0,4.72-28.54v-4.22q0-25.54-11.8-30.66-12.39-4.22-29.5-4.22h-47.19C1537.21,1656.15,1536.43,1656.86,1536.43,1658Zm0,116.26v104.64h20.06q56.23,0,69.61-24.31,9.44-16.72,9.44-39.11,0-34.87-33-41.22-21.63-2.11-38.94-2.11h-24.77C1537.21,1772.42,1536.43,1773.12,1536.43,1774.29Zm59-18H1599q1.77,0,8.26-7.4Q1596.6,1753,1595.42,1756.33Zm8.26,2.11,2.36,1.06,1.18-2.12v-1.05H1606C1604.47,1756.56,1603.68,1757.27,1603.68,1758.44Zm5.9,2.11v1.06l2.36,1.06h1.18v-1.06A9.8,9.8,0,0,1,1609.58,1760.55Zm0,117.32h3.54q31.07-26.59,69.62-62.36v-3.17q-53.1,45.63-61.36,57.08Q1609.59,1877,1609.58,1877.87Zm7.08-230.41,2.36,1.06q1.77,0,3.54-3.17H1619C1617.45,1645.58,1616.66,1646.29,1616.66,1647.46Zm1.18,115.21-1.18,2.11v1.06h1.18c1.58,0,2.36-.71,2.36-2.12Zm0-16.91H1619q3.15,0,54.28-47.57v-2.11Q1671.73,1696.08,1617.84,1745.76Zm3.54-93,2.36,1,5.9-6.34h-2.36Q1625.71,1647.46,1621.38,1652.75Zm0,116.26,2.36,1.06q1.77,0,4.72-4.23l-2.36-1.06Q1624.33,1764.78,1621.38,1769Zm0,107.81q4.72,0,51.92-44.39,10.62-7.41,10.62-11.63Q1682,1821.33,1621.38,1876.82Zm2.36-142.69h1.18l47.2-43.33v-3.18Q1623.75,1728.5,1623.74,1734.13Zm2.36-77.16v2.12h1.18q1.58,0,10.62-9.52h-3.54Q1632.59,1649.57,1626.1,1657Zm7.08,109.93-7.08,7.39,2.36,1.06q0-.52,7.08-7.4Zm8.26-115.21-11.8,11.62v2.12q1.58,0,14.16-12.68Zm-10.62,126.83v1.06H1632q1.57,0,10.62-9.51h-2.36Q1638.69,1770.07,1630.82,1778.52Zm16.52-123.66-15.34,14.8v3.17q1.38,0,17.7-15.86C1649.7,1655.56,1648.91,1654.86,1647.34,1654.86ZM1632,1715.1v2.12q1.57,0,38.94-34.88v-1.06h-1.18Q1668,1681.64,1632,1715.1Zm21.24-56-20.06,19v2.12q1.58,0,22.42-20.09Zm-20.06,48.62h1.18q0-1.23,34.22-30.65a7.49,7.49,0,0,1-1.18-3.18Q1633.19,1701.9,1633.18,1707.71Zm0,32.76q7.47-.87,36.58-29.59a8,8,0,0,0,1.18-4.23Q1669.17,1707,1633.18,1740.47Zm24.78-77.16-23.6,22.2v3.17q1.58,0,26-23.25C1660.32,1664,1659.53,1663.31,1658,1663.31Zm-23.6,31.71v2.12q1.58,0,29.5-26.43v-2.11Q1662.29,1668.6,1634.36,1695Zm0,89.84v1.06h1.18q1.57,0,14.16-12.68h-2.36Q1645.77,1773.24,1634.36,1784.86Zm0,88.79q6.5,0,42.48-34.88,5.9-3,5.9-8.46Q1680.37,1831,1634.36,1873.65Zm3.54-83.5v2.11q1.38,0,17.7-15.85h-2.36Q1651.47,1776.41,1637.9,1790.15Zm41.3,15.85q-41.12,37.17-41.3,39.11v1.06q1.57,0,43.66-39.11Zm-20.06-26.42-18.88,18v2.11q1.58,0,21.24-19Zm4.72,4.23-22.42,21.13v2.12q1.57,0,24.78-22.2Zm-22.42,47.56v3.17l37.76-32.77a7.46,7.46,0,0,1-1.18-3.17Q1676.25,1798.78,1641.44,1831.37Zm27.14-43.34-26,24.31v3.17q1.58,0,28.32-25.36C1670.94,1788.74,1670.15,1788,1668.58,1788Zm4.72,5.29-30.68,28.54V1824q1.38,0,33-29.59Zm2.36,51.79-22.42,21.14a63.78,63.78,0,0,0,22.42-19l1.18-2.11Z" transform="translate(-19.59 -42.91)"/><path d="M1715.22,1635.83h236q1.77,0,4.72,4.23v95.13h-4.72q-4.34,0-14.16-38Q1922.5,1658,1884,1658c0-.7-3.54-1.06-10.62-1.06h-46c-1.58.24-2.36.94-2.36,2.12v101.46q29.49,0,46-44.39,3.54-8.81,7.08-34.88h5.9q3.54,4.93,3.54,7.4v157.49c0,1.4-.78,2.11-2.36,2.11h-3.54q-4.71,0-8.26-29.59-10.21-33.82-22.41-33.83,0-2.8-22.42-4.22a9.94,9.94,0,0,1-3.54,1v96.18h27.14q68.43,0,93.21-69.75,5.89-26.43,8.26-26.43h1.18q7.08,1.59,7.08,7.4v99.35H1723.48c-1.83,0-4.59-1-8.26-3.17v-7.4h13q23,0,31.86-27.48l2.36-18a8.06,8.06,0,0,1-1.18-4.23l1.18-4.23-1.18-5.28a7.63,7.63,0,0,1,1.18-3.18l-1.18-5.28,1.18-4.23-1.18-5.28a7.6,7.6,0,0,1,1.18-3.17l-1.18-5.29,1.18-4.23-1.18-5.28a7.6,7.6,0,0,1,1.18-3.17l-1.18-5.29,1.18-4.22-1.18-5.29a7.65,7.65,0,0,1,1.18-3.17l-1.18-5.28,1.18-4.23-1.18-5.29a7.65,7.65,0,0,1,1.18-3.17l-1.18-5.28,1.18-4.23-1.18-5.28a7.63,7.63,0,0,1,1.18-3.18l-1.18-5.28,1.18-4.23-1.18-5.28a7.6,7.6,0,0,1,1.18-3.17l-1.18-5.29,1.18-4.23-1.18-5.28c0-1.41.4-2.11,1.18-2.11q0-32.77-15.34-32.77-25.95-2.28-26-8.46v-1q33,3.69,33,8.45v-1q-9.63-10.58-36.58-10.57v-1.06l-2.36-3.17Zm249,151.15h1.18q8.27,5.1,8.26,11.62v98.3c0,1.41-.79,2.11-2.36,2.11H1734.1q-7.27,0-13-7.4v-1a15.26,15.26,0,0,0,7.08,2.11h236c1.57,0,2.36-.7,2.36-2.11v-97.24A11.78,11.78,0,0,0,1964.19,1787Zm-214.75,92h2.36q2.37-.71,50.74-45.45v-2.11Q1801,1831.37,1749.44,1878.93Zm1.18-234.64,2.36,1.06,2.36-3.17H1753C1751.41,1642.41,1750.62,1643.12,1750.62,1644.29Zm5.9,3.17v2.11h1.18q1.77,0,8.26-7.39h-3.54Q1760.84,1642.18,1756.52,1647.46Zm2.36,231.47h3.54q2.37-.89,40.12-35.94v-3.17Q1801,1839.82,1758.88,1878.93Zm1.18-225.13,2.36,1.06,13-12.68H1773Q1771.47,1642.18,1760.06,1653.8Zm3.54,5.29a2.23,2.23,0,0,0,2.36,2.11l20.06-19h-3.54Q1780.91,1642.18,1763.6,1659.09Zm1.18,199.76q1.58,0,37.76-33.82v-3.17q-37.76,31.35-37.76,35.93Zm1.18-192.36v1h1.18q1.58,0,28.32-25.36h-2.36Q1791.53,1642.18,1766,1666.49Zm2.36,6.34V1676q1.38,0,34.22-30.65v-3.17Q1801.16,1642.18,1768.32,1672.83Zm0,9.51v2.11q1.38,0,34.22-30.65v-2.11Q1801.16,1651.69,1768.32,1682.34Zm0,8.46V1694q1.38,0,34.22-30.66v-3.17Q1801.16,1660.14,1768.32,1690.8Zm0,9.51v2.11q1.38,0,34.22-30.65v-2.11Q1801.16,1669.66,1768.32,1700.31Zm0,8.45v3.17q1.38,0,34.22-30.65v-3.17Q1801.16,1678.11,1768.32,1708.76Zm0,9.52v2.11q1.38,0,34.22-30.65v-2.12Q1801.16,1687.62,1768.32,1718.28Zm0,8.45v3.17q1.38,0,34.22-30.65v-3.17Q1801.16,1696.08,1768.32,1726.73Zm0,9.51v2.12q1.38,0,34.22-30.65v-2.12Q1801.16,1705.59,1768.32,1736.24Zm0,8.46v3.17q1.38,0,34.22-30.65v-3.17Q1801.16,1714.05,1768.32,1744.7Zm0,9.51v2.12q1.38,0,34.22-30.66v-2.11Q1801.16,1723.56,1768.32,1754.21Zm0,8.46v3.17q1.38,0,34.22-30.65V1732Q1801.16,1732,1768.32,1762.67Zm0,9.51v2.11q1.38,0,34.22-30.65v-2.11Q1801.16,1741.53,1768.32,1772.18Zm0,8.46v3.17q1.38,0,34.22-30.66V1750Q1801.16,1750,1768.32,1780.64Zm0,9.51v2.11q1.38,0,34.22-30.65v-2.11Q1801.16,1759.5,1768.32,1790.15Zm0,8.45v3.17q1.38,0,34.22-30.65V1768Q1801.16,1768,1768.32,1798.6Zm0,9.52v2.11q1.38,0,34.22-30.65v-2.12Q1801.16,1777.46,1768.32,1808.12Zm0,8.45v3.17q1.38,0,34.22-30.65v-3.17Q1801.16,1785.92,1768.32,1816.57Zm0,9.51v2.12q1.38,0,34.22-30.65v-2.12Q1801.16,1795.43,1768.32,1826.08Zm0,8.46v3.17q1.38,0,34.22-30.65v-3.17Q1801.16,1803.89,1768.32,1834.54Zm0,9.51v2.12q1.38,0,34.22-30.66v-2.11Q1801.16,1813.4,1768.32,1844.05Zm1.18,34.88h2.36q2.55-.89,30.68-27.48v-2.11Q1801.16,1849.34,1769.5,1878.93Zm9.44,0h3.54q1.57,0,20.06-18v-3.17Q1801,1857.79,1778.94,1878.93Zm10.62,0h2.36q1.57,0,10.62-9.51v-2.12Q1801,1867.3,1789.56,1878.93Zm9.44,0h3.54v-3.17Q1800.77,1875.76,1799,1878.93Zm14.16-231.47v113.09h4.72V1651.69a2.24,2.24,0,0,1,2.36-2.12h28.32q53.28,0,69.61,16.92v-1.06q-17.51-20.09-75.51-20.08h-27.14C1813.94,1645.58,1813.16,1646.29,1813.16,1647.46Zm0,122.61v107.8h4.72V1774.29H1825q19.47,0,31.86,10.57v-1q-14.37-13.74-36.58-13.74Zm30.68-3.17a9.94,9.94,0,0,1,3.54,1l29.49-27.48v-3.17Q1875.51,1737.3,1843.84,1766.9Zm7.08,3.17,2.36,1,23.59-22.19v-2.12Q1875.3,1746.81,1850.92,1770.07Zm5.9,3.17v2.11H1858q1.56,0,18.87-16.91v-3.17Q1875.3,1755.27,1856.82,1773.24Zm4.72,5.28v1.06h1.18q1.56,0,14.15-12.68v-2.12Q1875.1,1764.78,1861.54,1778.52Zm3.54,5.29a2.23,2.23,0,0,0,2.36,2.11l9.43-9.51v-3.17Q1875.3,1773.24,1865.08,1783.81Zm3.53-45.45h1.18l7.08-7.4v-2.11Q1872,1731.13,1868.61,1738.36Zm0,51.79,2.36,1,5.9-6.34v-2.11Q1875.1,1782.75,1868.61,1790.15Zm3.54,5.28a2.25,2.25,0,0,0,2.36,2.12l2.36-3.17v-3.18Q1875.1,1791.2,1872.15,1795.43Zm17.7-108.86H1891q8.27,5.12,8.26,11.62v158.54c0,1.41-.78,2.12-2.36,2.12h-2.36q-6.48,0-11.8-7.4l5.9,1.06h1.18c1.58,0,2.36-.71,2.36-2.12V1692.91A11.7,11.7,0,0,0,1889.85,1686.57Zm0,191.3v1.06h3.54l2.36-3.17Q1892,1877.88,1889.85,1877.87Zm9.44,1.06h2.36q2.37-.71,49.56-44.39v-2.11Q1950,1832.43,1899.29,1878.93Zm1.18-234.64v1.06h2.36q1.77,0,3.54-3.17h-3.54C1901.26,1642.41,1900.47,1643.12,1900.47,1644.29Zm7.08,3.17v1.06h1.18q1.57,0,7.08-6.34h-2.36Q1911.88,1642.18,1907.55,1647.46Zm1.18,231.47h3.54q1.57,0,38.94-34.88v-3.17Q1949.64,1840.88,1908.73,1878.93Zm3.54-227.24,2.36,1.06q1.57,0,11.8-10.57h-3.54Q1921.31,1642.18,1912.27,1651.69Zm5.9,4.23v1h1.18q1.77,0,16.52-14.79h-2.36Q1931.74,1642.18,1918.17,1655.92Zm1.18,223h2.36q1.57,0,29.5-26.42v-2.12Q1949.44,1850.57,1919.35,1878.93Zm3.54-218.79a2.24,2.24,0,0,0,2.36,2.12l20.06-19v-1H1943Q1941.38,1642.18,1922.89,1660.14Zm4.72,5.29v2.11q1.38,0,17.7-15.85v-2.12Q1943.93,1649.57,1927.61,1665.43Zm1.18,213.5h3.54q1.58,0,18.88-16.91v-3.17Q1949.64,1858.85,1928.79,1878.93Zm2.36-208.22v2.12h1.18q1.58,0,13-11.63V1658Q1943.74,1658,1931.15,1670.71Zm3.54,6.35v1h1.18q1.58,0,9.44-8.45v-2.12Q1943.74,1667.54,1934.69,1677.06Zm3.54,5.28v2.11h1.18c1,0,3-1.76,5.9-5.28V1676Q1943.74,1676,1938.23,1682.34Zm1.18,196.59h2.36q1.57,0,9.44-8.45v-2.12Q1949.64,1868.36,1939.41,1878.93Zm1.18-189.19,2.36,1.06,2.36-3.18v-2.11Q1943.54,1685.51,1940.59,1689.74Zm0,145.86h1.18l9.44-9.52v-3.17Q1944.13,1826.8,1940.59,1835.6ZM1943,1695a7.5,7.5,0,0,1,1.18,3.17h1.18V1694Zm7.08,119.44q0,1.76-2.36,5.28h1.18q2.36-2.64,2.36-4.23v-1Zm9.44-173.34q8.27,4.76,8.26,10.57v92c0,1.41-.79,2.12-2.36,2.12h-1.18q-6.5,0-11.8-7.4l5.9,1.05c1.57,0,2.36-.7,2.36-2.11v-90.9Z" transform="translate(-19.59 -42.91)"/><path d="M1983.7,1635.83h180.53q51.51,0,77.87,20.09h1.18l-1.18,2.11q21.24,18.15,21.24,45.45,0,42.45-57.82,57.07-14.74,3.18-18.88,3.17,0,3.18,48.38,82.45,9.84,15.84,20.06,25.36v-1q-15.15-18.33-63.72-101.47V1768q76.69-10.92,76.7-62.36,0-23.07-21.24-45.45H2248q27.14,23.27,27.14,51.79v2.12q0,41.22-54.28,56-21.24,4-21.24,6.34,49,83.85,62.54,98.29,5.7,3.18,17.7,3.17h7.08q1.77,0,4.72,4.23v6.34h-80.24q-7.47,0-16.52-19-45.42-70.29-57.81-92h-41.3c-1.57.24-2.36,1-2.36,2.12v66.59q0,31.69,18.88,31.7h11.8q4.71,1.77,4.72,7.4v1.06c0,1.41-.79,2.11-2.36,2.11h-138q-3-3.17-4.72-3.17v-7.4h3.54q32,0,40.11-22.19,3.54-14.45,3.54-34.88V1694q0-34.89-10.62-34.88l-23.59-4.23q-5.31-2.11-5.9-4.23v-1.06H1992q21,0,29.5,6.35v-1.06q-9.06-9.51-35.4-9.51v-1.06l-2.36-3.17Zm147.49,247.33h1.18q8.25,5.11,8.26,11.62l-1.18,4.23H2002.58q-7.29,0-13-7.4l8.26,1.06H2130q1.77,0,3.54-3.17C2133.55,1888.33,2132.76,1886.21,2131.19,1883.16Zm-110.92-4.23h2.36q2.37-.71,48.38-43.33v-2.12Q2068.65,1834.19,2020.27,1878.93Zm1.19-234.64v1.06h1.17q1.77,0,3.54-3.17h-2.36C2022.24,1642.41,2021.46,1643.12,2021.46,1644.29Zm4.71,5.28v1.06h1.18q1.58,0,9.44-8.45h-2.36Q2032.66,1642.18,2026.17,1649.57Zm3.54,5.29,2.36,1.06,14.16-13.74h-2.36Q2042.3,1642.18,2029.71,1654.86Zm40.12,187.08-40.12,37h3.54q1.57,0,38.94-34.88C2072.19,1842.64,2071.41,1841.94,2069.83,1841.94ZM2032.07,1862q1.58,0,38.94-34.88V1824Q2032.07,1856.21,2032.07,1862Zm1.18-201.88v3.17q1.57,0,23.6-21.13h-3.54Q2051.74,1642.18,2033.25,1660.14Zm2.36,7.4v2.12q2.57-.89,30.68-27.48h-2.36Q2062.36,1642.18,2035.61,1667.54Zm0,181.8h1.18l34.22-31.71v-2.12Q2035.61,1844.94,2035.61,1849.34Zm1.18-174.4v3.17q1.38,0,34.22-30.65v-3.17Q2069.63,1644.29,2036.79,1674.94Zm0,9.51,2.36,1.06,31.86-29.59v-2.12Q2069.63,1653.8,2036.79,1684.45Zm0,155.37q1.38,0,34.22-30.65V1806Q2036.79,1833.84,2036.79,1839.82Zm1.18-148V1695q1.38,0,33-29.59v-3.17Q2069.63,1662.26,2038,1691.85Zm0,9.51v2.12q1.38,0,33-29.6v-2.11Q2069.63,1671.77,2038,1701.36Zm0,8.46V1713q1.38,0,33-29.59v-3.17Q2069.63,1680.23,2038,1709.82Zm0,9.51v2.12q1.38,0,33-29.6v-2.11Q2069.63,1689.74,2038,1719.33Zm0,8.46V1731q1.38,0,33-29.6v-3.17Q2069.63,1698.19,2038,1727.79Zm0,9.51v2.11q1.38,0,33-29.59v-2.11Q2069.63,1707.71,2038,1737.3Zm0,8.46v3.17q1.38,0,33-29.6v-3.17Q2069.63,1716.16,2038,1745.76Zm0,9.51v2.11q1.38,0,33-29.59v-2.12Q2069.63,1725.67,2038,1755.27Zm0,8.45v3.18q1.38,0,33-29.6v-3.17Q2069.63,1734.13,2038,1763.72Zm0,9.52v2.11q1.38,0,33-29.59v-2.12Q2069.63,1743.64,2038,1773.24Zm0,8.45v3.17q1.38,0,33-29.59v-3.17Q2069.63,1752.1,2038,1781.69Zm0,9.51v2.12q34.23-28.36,34.22-32.77Q2070.81,1760.55,2038,1791.2Zm0,8.46v3.17q1.38,0,33-29.59v-3.17Q2069.63,1770.07,2038,1799.66Zm0,9.51v2.12q1.38,0,33-29.6v-2.11Q2069.63,1779.58,2038,1809.17Zm0,8.46v3.17q1.38,0,33-29.6V1788Q2069.63,1788,2038,1817.63Zm0,9.51v2.11q1.38,0,33-29.59v-2.11Q2069.63,1797.55,2038,1827.14Zm2.36,51.79h2.36q2.57-.89,30.68-27.48v-1.06h-1.18Q2070.42,1850.57,2040.33,1878.93Zm33-22.2-23.6,22.2h3.54q1.58,0,22.42-20.08C2075.73,1857.44,2074.94,1856.73,2073.37,1856.73Zm-13,22.2h2.36q1.77,0,15.34-13.74v-2.11Q2076.71,1863.08,2060.39,1878.93Zm9.44,0h3.54q1.58,0,9.44-8.45l-2.36-1.06Q2078.88,1869.42,2069.83,1878.93Zm15.34-5.28q-4.73,4.75-4.72,5.28h2.36q1.77,0,4.72-4.23Zm-3.54-226.19v108.87h4.72V1651.69a2.24,2.24,0,0,1,2.36-2.12h53.1q38.94,0,53.09,12.69v-1.06q-14-15.85-63.71-15.85H2084C2082.42,1645.58,2081.63,1646.29,2081.63,1647.46Zm0,119.44v70.81q0,25.89,14.16,34.88v-1.06q-9.43-8.62-9.44-29.59v-70.82l5.9-1h38.94V1769c0-1.41-.79-2.11-2.36-2.11Zm11.8-107.81v97.24h42.48q46.41,0,60.17-20.09,10.62-14.09,10.62-35.93,0-31.89-17.7-39.11a105.51,105.51,0,0,0-28.31-4.23h-64.9C2094.22,1657.21,2093.43,1657.91,2093.43,1659.09Zm43.66,105.69a2.24,2.24,0,0,0,2.36,2.12l3.54-4.23h-3.54C2137.87,1762.9,2137.09,1763.61,2137.09,1764.78Zm3.54,6.34v1.06h1.18q1.56,0,11.8-10.57Q2148.89,1761.61,2140.63,1771.12Zm3.54,5.29a2.23,2.23,0,0,0,2.36,2.11l18.88-18h-2.36Q2159.9,1760.55,2144.17,1776.41Zm3.54,6.34,2.36,1.06q27.13-24.84,27.14-26.43Q2174.06,1757.38,2147.71,1782.75Zm3.54,5.28a2.24,2.24,0,0,0,2.36,2.12l23.6-22.2v-3.17Q2175.62,1764.78,2151.25,1788Zm3.54,6.35,2.36,1,23.59-22.19v-1.06h-1.18Q2178,1772.18,2154.79,1794.38Zm3.54,4.22a7.65,7.65,0,0,1,1.18,3.17q1.56,0,24.77-22.19v-2.12h-1.18Zm3.54,7.4,2.36,1.06,23.59-22.2v-1h-1.18Q2185.07,1783.81,2161.87,1806Zm3.54,5.29,2.36,1,23.59-22.19v-1.06h-1.18Q2188.61,1789.09,2165.41,1811.29Zm4.72,5.28v2.12q1.56,0,24.77-22.2v-1.06h-1.18Q2192.15,1795.43,2170.13,1816.57Zm2.36,6.34,2.35,1.06,23.6-22.2v-1h-1.18Q2195.69,1800.72,2172.49,1822.91Zm4.72,5.29v2.11q1.56,0,24.77-22.19V1806Q2200.4,1806,2177.21,1828.2Zm3.53,5.28v2.12q1.58,0,24.78-22.2v-1.06h-1.18Q2202.77,1812.34,2180.74,1833.48Zm2.36,6.34,2.36,1.06q1.58,0,23.6-21.14v-2.11h-1.18Q2206.3,1817.63,2183.1,1839.82Zm4.72-192.36a9.69,9.69,0,0,1,3.54,1.06l3.54-4.23h-3.54Q2189.59,1644.29,2187.82,1647.46Zm0,197.65v2.11q1.57,0,24.78-22.19V1824h-1.18Q2209.84,1824,2187.82,1845.11Zm2.36-92h2.36q3.15,0,60.18-52.84v-3.17Q2250.76,1697.67,2190.18,1753.15Zm1.18,97.24v2.12h1.18q1.58,0,23.6-21.14v-2.12H2215Q2213.38,1829.25,2191.36,1850.39Zm2.36-198.7,2.36,1.06q0-.54,7.08-7.4h-2.36Q2199.23,1645.35,2193.72,1651.69Zm1.18,205v1.06h1.18q1.58,0,23.6-21.14v-1.05h-1.18Q2216.92,1835.6,2194.9,1856.73Zm3.54-200.81,2.36,1q1.57,0,10.62-9.51h-3.54Q2206.3,1647.46,2198.44,1655.92Zm0,206.1v2.11h1.18q1.58,0,23.6-21.14v-2.11H2222Q2220.46,1840.88,2198.44,1862Zm3.54,6.34v1.06h1.18q1.58,0,23.6-21.14v-1.06h-1.18Q2224,1847.22,2202,1868.36Zm1.18-207.16v1.06h1.18q1.57,0,14.16-12.69h-2.36Q2214.57,1649.57,2203.16,1661.2Zm48.38,45.45-47.2,43.33h1.18q3.15,0,46-40.16a7.5,7.5,0,0,1,1.18-3.17Zm-46,167a2.23,2.23,0,0,0,2.36,2.11l22.42-21.14v-2.11h-1.18Q2227.55,1852.51,2205.52,1873.65Zm16.52-222-15.34,14.8v2.11h1.18q1.77,0,16.52-14.8C2224.4,1652.39,2223.62,1651.69,2222,1651.69ZM2206.7,1732h1.18l43.66-40.17v-2.11Q2206.71,1727.44,2206.7,1732Zm21.24-76.1-18.88,18,2.36,1.06,18.88-18Zm-17.7,223h2.36q1.58,0,21.24-19v-2.12Q2232.27,1857.79,2210.24,1878.93Zm85,4.23q5.31,0,8.26,10.57v3.17c0,1.41-.79,2.11-2.36,2.11H2222q-11.79-2.64-11.8-7.4l5.9,1.06H2294c1.57,0,2.36-.7,2.36-2.11v-2.12Zm-83.78-202.93v3.17q1.57,0,24.78-22.2l-2.36-1.06Q2232.27,1660.14,2211.42,1680.23Zm36.58,2.11q-36.57,32.6-36.58,35.94v1q1.57,0,38.94-34.88C2250.36,1683,2249.57,1682.34,2248,1682.34Zm-35.4,6.34v2.12q1.58,0,27.14-24.31v-2.12Q2238.17,1664.37,2212.6,1688.68Zm33-12.68-33,30.65v2.11q1.38,0,35.4-31.7Zm-3.54-6.34-28.32,26.42v3.17q2.55-.88,30.68-27.48C2244.46,1670.36,2243.67,1669.66,2242.1,1669.66Zm5.9,48.62-29.5,27.48q7.47,0,28.32-23.26l2.36-4.22Zm-11.8,144.8-16.52,15.85h3.54q1.77,0,15.34-13.74C2238.56,1863.78,2237.77,1863.08,2236.2,1863.08Zm-5.9,15.85h2.36q1.58,0,9.44-8.45v-2.12Q2240.53,1868.36,2230.3,1878.93Zm9.44,0h3.54q1.77,0,4.72-4.23l-2.36-1Q2244.07,1873.65,2239.74,1878.93Z" transform="translate(-19.59 -42.91)"/><path d="M2568.23,1626.32q35.59,0,85,28.54a50.17,50.17,0,0,0,7.08,2.11q12,0,17.69-21.14h5.9q3.54,4.93,3.54,7.4v80.33c0,1.41-1.18,2.11-3.54,2.11q-6.29,0-16.51-32.76l-11.8-16.91q-32.85-29.6-74.34-29.6-39.14,0-50.74,34.88a48.9,48.9,0,0,0-1.18,8.46q0,15.33,16.52,21.14,16.13,6.33,87.32,25.36,29.29,10.76,48.37,23.26,35.4,26.25,35.4,64.47,0,42.81-46,67.64a102.72,102.72,0,0,1-37.76,7.4h-9.44q-27.93,0-76.7-23.25-7.66-2.12-10.62-2.11h-4.72q-18.09,0-27.13,24.31a9.94,9.94,0,0,1-4.72,1q-8.07-3-10.62-7.4v-1a15.23,15.23,0,0,0,7.08,2.11q10-26.42,30.67-26.42,9,0,47.2,16.91a113.09,113.09,0,0,0,44.84,9.51h3.54q66.07,0,84.95-59.19,2.37-13.9,2.36-16.91,0-31.71-26-52.85v1.06q21.24,18.49,21.24,48.62,0,42.45-46,67.64-20.27,7.41-38.94,7.4h-5.9q-28.52,0-76.7-23.25-7.66-2.12-10.62-2.11h-9.43q-14.16,0-22.42,20.08-1.57,5.28-3.54,5.28-8.26-.87-8.26-6.34l1.18-5.28-1.18-5.29a7.5,7.5,0,0,1,1.18-3.17l-1.18-5.28,1.18-4.23-1.18-5.29a7.5,7.5,0,0,1,1.18-3.17l-1.18-5.28,1.18-4.23-1.18-5.28a7.42,7.42,0,0,1,1.18-3.17l-1.18-5.29,1.18-4.23-1.18-5.28a7.46,7.46,0,0,1,1.18-3.17l-1.18-5.29,1.18-4.23-1.18-5.28a7.5,7.5,0,0,1,1.18-3.17l-1.18-5.29,1.18-4.22-1.18-5.29a7.5,7.5,0,0,1,1.18-3.17l-1.18-6.34a7.65,7.65,0,0,0,1.18-3.17H2488q6.48,0,8.26,22.19,14.16,38.94,41.29,58.14c0-.71.4-1.06,1.18-1.06q34.41,30.65,79.06,30.65,51.91-6.87,51.92-45.45,0-17.43-20.06-24.31-23.61-8.45-106.2-34.88-22.41-9.68-37.75-24.31v-1q14.55,13,55.45,27.48,83.38,23.25,97.94,34.88h1.18q-15.93-15.68-103.84-39.11-43.45-16.56-53.09-26.42c0,.7-.4,1-1.18,1q-21.24-25.36-21.24-45.45v-8.45q0-31.71,36.58-55Q2539.72,1626.33,2568.23,1626.32ZM2488,1691.85V1695q1.56,0,18.88-16.91v-3.17Q2505.3,1674.94,2488,1691.85Zm0,9.51v2.12q1.56,0,20.06-18v-2.11Q2506.47,1683.4,2488,1701.36Zm1.18-16.91q1.56,0,18.88-16.91v-2.11Q2489.17,1679.88,2489.18,1684.45Zm0,24.31v3.17l22.42-19a7.5,7.5,0,0,1-1.18-3.17Q2508.83,1689.74,2489.18,1708.76Zm1.18,98.3v2.11c1.57,0,2.36-.7,2.36-2.11v-2.12C2491.14,1805.18,2490.36,1805.89,2490.36,1807.06Zm3.54,4.23-3.54,4.22v3.18c1,0,3-1.77,5.9-5.29C2496.26,1812,2495.47,1811.29,2493.9,1811.29Zm3.54,6.34q0,.52-7.08,7.4v2.11q1.56,0,9.44-8.45Zm3.54,5.28-10.62,10.57v3.17q1.56,0,13-11.62C2503.34,1823.62,2502.55,1822.91,2501,1822.91ZM2490.36,1843v2.12q1.77,0,16.52-14.8v-1.06h-1.18Q2503.93,1829.25,2490.36,1843Zm18.88-9.51-18.88,18v3.17q1.56,0,21.24-19C2511.6,1834.19,2510.81,1833.48,2509.24,1833.48Zm4.72,5.29-23.6,22.19v2.12q1.56,0,26-23.26Zm-22.42-122.61v2.12q1.56,0,22.42-20.09v-2.11Q2512.37,1696.08,2491.54,1716.16Zm26-69.76q-23.41,21-23.6,25.37h1.18q19.26-17.26,23.59-25.37Zm-1.18,55-22.42,21.14a2.24,2.24,0,0,0,2.36,2.12l22.41-21.14C2518.67,1702.07,2517.89,1701.36,2516.32,1701.36Zm-18.88,27.49,2.36,1.05,24.77-23.25h-2.36Q2520.63,1706.65,2497.44,1728.85Zm0,46.5h1.18q5.9,0,11.8,31.71a113.69,113.69,0,0,0,25.95,39.11v1q-28.12-25.37-34.21-48.62Zm3.54-41.22,2.36,1.06q1.56,0,27.13-24.31l-2.36-1.06Q2526.54,1709.82,2501,1734.13ZM2518.67,1843l-13,12.69q5.7,0,15.34-10.57C2521,1843.7,2520.25,1843,2518.67,1843ZM2534,1713l-27.13,25.37v1.05h1.18q1.56,0,28.31-25.36Zm-22.41,29.6,2.36,1.05q1.56,0,29.49-26.42v-1.06h-2.36Q2539.52,1716.16,2511.6,1742.59Zm5.9-62.36q0,9,9.43,21.13h2.36a28.83,28.83,0,0,1-7.08-19q0-28.89,37.76-41.22,10-1.06,15.34-1.06,37.76,0,70.8,25.37v-1.06q-34.23-28.53-76.7-28.54-38.55,0-50.74,33.83A50.38,50.38,0,0,0,2517.5,1680.23Zm0,66.58,2.35,1.06,30.68-28.54h-2.36Q2545.62,1720.22,2517.5,1746.81Zm1.17,106.75H2521c1.17,0,2.75-1.41,4.71-4.22v-1.06h-1.18C2523.52,1848.28,2521.56,1850,2518.67,1853.56Zm4.72-103.58,2.36,1.06q1.38,0,31.86-28.54v-1h-2.36Q2553.48,1721.61,2523.39,1750Zm4.72,102.53v2.11h3.54c0-1.41-.78-2.11-2.36-2.11Zm2.36-99.36,2.36,1.06,31.86-29.59v-1.06h-1.18Q2562.13,1723.56,2530.47,1753.15Zm7.08,2.12v1.06h2.36q1.38,0,33-29.6v-1.06h-2.36Q2569.21,1725.67,2537.55,1755.27Zm7.08,3.17,2.36,1.06,33-30.65v-1.06h-1.18Q2577.47,1727.79,2544.63,1758.44Zm7.08,2.11v1.06h2.36q1.38,0,34.22-30.65l-2.36-1.06Q2584.55,1729.9,2551.71,1760.55Zm7.08,3.17h2.36q1.38,0,34.22-30.65v-1h-1.18Q2592.81,1732,2558.79,1763.72Zm7.08,2.12a9.69,9.69,0,0,1,3.54,1.06l34.22-31.71-2.36-1.06Q2599.89,1734.13,2565.87,1765.84Zm42.48-29.6L2574.13,1768V1769h1.18q1.38,0,35.4-31.71Zm7.08,2.12-34.22,31.71v1h2.36q1.38,0,35.4-31.71A9.83,9.83,0,0,1,2615.43,1738.36Zm-27.14,34.88h2.36q1.38,0,35.4-31.71h-2.36Q2622.31,1741.53,2588.29,1773.24Zm7.08,2.11h3.54q1.38,0,35.4-31.71h-3.54Q2629.39,1743.64,2595.37,1775.35Zm8.26,2.11H2606q1.38,0,34.22-30.65v-1H2639Q2637.65,1745.76,2603.63,1777.46Zm41.3-29.59-34.22,31.71a9.69,9.69,0,0,1,3.54,1.06l34.22-31.71A9.9,9.9,0,0,1,2644.93,1747.87ZM2652,1751l-33,30.65v1.06h1.18q1.36,0,34.22-30.65Zm-27.14,33.82h3.54q1.37,0,33-29.59l-2.36-1.06Q2657.71,1754.21,2624.87,1784.86Zm8.26,2.12v1h1.18q1.36,0,31.86-28.53v-1.06H2665Q2663.22,1758.62,2633.13,1787Zm36.58-25.37L2639,1790.15h2.36q2.55-.89,30.68-27.48Zm-23.6,31.71h2.36q1.56,0,28.32-25.37v-1h-1.19Q2674,1766.9,2646.11,1793.32Zm33-22.2L2652,1796.49h2.36q1.56,0,27.13-24.31Zm-21.23-105.69v2.11h1.18q1.56,0,5.9-5.28h-1.18C2659.87,1663.2,2657.91,1664.26,2657.91,1665.43Zm1.18,134.23v1.06h1.18q1.56,0,24.77-22.2v-2.11Q2683.46,1776.41,2659.09,1799.66Zm2.36-127.89,2.36,1.06,13-12.69V1658Q2675,1658,2661.45,1671.77Zm2.36,132.12v1H2665q1.56,0,23.59-21.13v-1.06h-1.18Q2685.83,1782.75,2663.81,1803.89ZM2665,1676a7.6,7.6,0,0,1,1.18,3.17q1.56,0,10.62-9.51v-3.17Zm2.36,132.12a7.56,7.56,0,0,1,1.18,3.17q1.56,0,22.41-20.09V1788Zm1.18-124.72,2.36,1,5.9-6.34V1676Q2675,1676,2668.53,1683.4Zm4.72,173.33-3.54,4.23h1.18l3.53-4.23Zm-1.18-168a2.23,2.23,0,0,0,2.35,2.12l2.37-3.18v-3.17Q2675,1684.45,2672.07,1688.68Zm0,125.78v2.11q1.56,0,21.23-19v-2.12Q2691.73,1795.43,2672.07,1814.46Zm1.18,37h1.17q14.16-12.51,14.16-15.85Q2673.25,1847.23,2673.25,1851.45Zm1.17-30.65v2.11h1.18q1.58,0,18.88-16.91v-3.17Q2692.91,1802.83,2674.42,1820.8Zm1.18,8.45v1.06h1.19q1.36,0,17.69-15.85v-2.12Q2692.91,1812.34,2675.6,1829.25Zm0,11.63h1.19q16.52-14.27,16.51-19Q2675.6,1835.06,2675.6,1840.88Zm14.16-199.76h1.18q8.26,5.12,8.26,11.63v82.44l-4.72,1q-8.25-3-11.8-8.45l5.9,1.06h1.18c1.58,0,2.36-.71,2.36-2.12v-79.27A11.7,11.7,0,0,0,2689.76,1641.12Z" transform="translate(-19.59 -42.91)"/><path d="M2727,1635.83h141.59c0,1.41.79,2.12,2.36,2.12v7.4h-1.18q-43.65,0-43.66,43.33v65.53h4.72v-62.36q0-42.27,43.66-42.28h1.18v-6.34l-1.18-2.11h1.18q7.08,3.7,7.08,9.51v5.29q-32.64,0-40.12,20.08-4.71,8.63-4.72,25.36v52.85h103.84v-65.53q0-30.65-14.16-30.65-24.78-2.28-24.78-8.46v-1q22.42,2.46,30.68,7.4v-1.06q-10.82-9.51-34.22-9.51l-2.36-3.17v-6.35h138c1.18,0,2.76,1.41,4.72,4.23v5.29h-1.18q-30.48,0-40.12,16.91-5.89,13-5.89,30.65v140.57q0,30.48,14.15,38v-1q-9.43-7.93-9.44-32.77V1696.08q0-33.82,21.24-43.33,9-2.12,26-4.23v-2.12l-1.18-5.28q8.26,4.76,8.26,10.57v2.11q0,3.18-22.42,4.23-24.78,8.64-24.78,44.39v131.06q0,43.33,14.16,43.34a72,72,0,0,0,11.8,1h4.72c1.18,0,2.76,1.41,4.72,4.23v4.23c0,1.41-.78,2.11-2.36,2.11H2901.6q-1.77,0-4.72-4.22v-6.35h1.18q43.67,0,43.66-41.22v-60.24H2840.24c-1.57.23-2.36.94-2.36,2.11v67.65q0,31.69,18.88,31.7h9.44q3,2.12,4.72,2.12v8.45H2735.23c-1.84,0-4.59-1-8.26-3.17v-7.4h9.44q28.9,0,36.58-25.36,2.36-7.93,4.72-52.85v-18q0-25.37-1.18-74h-1.18c0-.71.39-1.06,1.18-1.06q-2-47.57-10.62-47.56l-28.32-4.23q0-.52-4.72-5.29v-1l2.36,1h1.18q22.43,0,30.68,7.4v-1q-8.65-10.58-37.76-10.57v-1.06c0-.7-.79-1.06-2.36-1.06Zm147.49,247.33h1.18q2.16,0,7.08,7.4v6.34c0,1.41-.78,2.11-2.36,2.11H2745.85q-7.28,0-13-7.4v-1a15.23,15.23,0,0,0,7.08,2.11h133.33c1.58,0,2.36-.7,2.36-2.11v-5.29Zm-113.27-4.23h2.36q1.57,0,51.92-46.5v-3.18q-27.34,23.09-53.1,48.62C2761.58,1877.87,2761.19,1878.23,2761.19,1878.93Zm2.36-236.75v2.11h1.18c1.57,0,2.36-.7,2.36-2.11Zm4.72,5.28,2.36,1.06,5.9-6.34h-2.36Q2772.6,1642.18,2768.27,1647.46Zm2.36,231.47H2773q1.58,0,42.48-38v-2.11Q2813.9,1838.77,2770.63,1878.93Zm2.36-226.18v1h1.18q1.57,0,13-11.62h-2.36Q2783.21,1642.18,2773,1652.75Zm3.54,5.28v2.11q1.57,0,20.06-18h-2.36Q2792.85,1642.18,2776.53,1658Zm2.36,6.34v2.12h1.18q1.57,0,27.14-24.31h-3.54Q2802.1,1642.18,2778.89,1664.37Zm0,191.31h1.18l35.4-32.77v-2.11Q2778.89,1851.45,2778.89,1855.68Zm1.18-182.85v1.05h1.18q1.36,0,35.4-31.7h-2.36Q2812.91,1642.18,2780.07,1672.83Zm0,206.1h3.54q1.36,0,33-29.59v-3.17Q2814.88,1846.34,2780.07,1878.93Zm1.18-198.7v3.17q1.58,0,46-41.22h-3.53Q2822.14,1642.18,2781.25,1680.23Zm0,161.71v3.17q1.36,0,34.22-30.65v-3.17Q2814.09,1811.29,2781.25,1841.94Zm1.18-153.26v2.12q27.33-23.08,53.09-48.62h-1.18Q2832.77,1642.18,2782.43,1688.68Zm35.4-24.31-35.4,32.77v3.17q35.4-29.41,35.4-33.82l1.18-2.12Zm-2.36,11.63-33,30.65,2.36,1.06q31.86-28.37,31.86-31.71Zm-33,156.43v2.11q1.37,0,33-29.6v-2.11Q2814.09,1802.83,2782.43,1832.43Zm1.18-118.38v3.17q1.36,0,31.86-28.54v-3.17Q2813.7,1685.69,2783.61,1714.05Zm0,9.51v2.11q1.36,0,31.86-28.53V1695Q2813.7,1695.2,2783.61,1723.56Zm0,8.46v3.17q1.36,0,31.86-28.54v-3.17Q2813.7,1703.66,2783.61,1732Zm0,89.84V1825q1.36,0,31.86-28.54v-3.17Q2813.7,1793.5,2783.61,1821.86Zm1.18-81.39v2.12q2.55-.88,30.68-27.49V1713Q2812.91,1713.88,2784.79,1740.47Zm0,8.46v3.17q2.55-.88,30.68-27.48v-3.17Q2812.91,1722.34,2784.79,1748.93Zm0,9.51v2.11q2.55-.87,30.68-27.48V1731Q2812.91,1731.84,2784.79,1758.44Zm0,8.46v3.17q2.55-.88,30.68-27.48v-3.18Q2812.91,1740.3,2784.79,1766.9Zm0,9.51v2.11q2.55-.87,30.68-27.48v-2.11Q2812.91,1749.82,2784.79,1776.41Zm0,8.45V1788q1.36,0,31.86-28.53v-3.17Q2814.88,1756.5,2784.79,1784.86Zm0,9.52v2.11q2.55-.88,30.68-27.48v-2.11Q2812.91,1767.77,2784.79,1794.38Zm0,8.45V1806q2.55-.87,30.68-27.48v-3.17Q2812.91,1776.24,2784.79,1802.83Zm0,9.51v2.12q2.55-.89,30.68-27.48v-2.12Q2812.91,1785.75,2784.79,1812.34Zm5.9,66.59h2.36q1.56,0,26-23.25v-1.06h-1.18Q2816.24,1854.62,2790.69,1878.93Zm9.44,0h3.54q1.36,0,17.7-15.85V1861h-1.18Q2818.6,1861,2800.13,1878.93Zm10.62,0h2.36q1.56,0,11.8-10.57v-1.06h-1.18Q2822.14,1867.3,2810.75,1878.93Zm16.51-7.4q-7.07,6.87-7.07,7.4h3.54q1.56,0,5.9-5.28C2829.63,1872.24,2828.84,1871.53,2827.26,1871.53Zm-1.18-104.63v70.81q0,25.89,14.16,34.88v-1.06q-9.43-8.62-9.44-29.59v-70.82a2.24,2.24,0,0,1,2.37-2.11h108.55v-4.23H2828.45C2826.87,1765,2826.08,1765.72,2826.08,1766.9Zm4.72,112h2.37c1.57,0,2.35-.7,2.35-2.11h-2.35C2831.59,1877.05,2830.8,1877.76,2830.8,1878.93Zm212.39,4.23q8.26,4.75,8.26,10.57v3.17c0,1.41-.78,2.11-2.36,2.11H2914.58q-6.49,0-11.8-7.4l5.9,1.06H3042c1.57,0,2.36-.7,2.36-2.11v-2.12Zm-113.27-4.23h3.54q2.36-.71,48.38-43.33v-3.17Q2980.27,1832.43,2929.92,1878.93Zm2.36-234.64v1.06h1.18q1.77,0,3.54-3.17h-2.36C2933.07,1642.41,2932.28,1643.12,2932.28,1644.29Zm4.72,4.23a2.23,2.23,0,0,0,2.36,2.11l8.26-8.45h-3.54Q2942.51,1642.18,2937,1648.52Zm3.54,6.34,2.36,1.06,14.16-13.74h-2.36Q2953.13,1642.18,2940.54,1654.86Zm0,224.07h2.36q2.35-.89,40.12-35.94v-2.11Q2981.43,1840.88,2940.54,1878.93Zm3.54-218.79v2.12h1.18q1.57,0,22.42-20.08h-3.54Q2962.57,1642.18,2944.08,1660.14Zm0,199.77h1.18l36.58-33.83V1824Q2944.07,1855.32,2944.08,1859.91Zm2.36-192.37v2.12q2.55-.89,30.68-27.48h-2.36Q2973.19,1642.18,2946.44,1667.54Zm1.18,7.4v2.12h1.18q1.57,0,38.94-34.88h-3.54Q2982.43,1642.34,2947.62,1674.94Zm0,81.39v2.11q1.37,0,34.22-30.65v-2.12Q2980.46,1725.67,2947.62,1756.33Zm0,88.78v3.17q1.37,0,34.22-30.65v-3.17Q2980.46,1814.46,2947.62,1845.11Zm1.18-161.71v2.11q2.35-.71,48.37-43.33h-2.36Q2993.24,1642.18,2948.8,1683.4Zm40.12-28.54-40.12,37V1695q41.29-34.51,41.29-40.16Zm-40.12,46.5v2.12q35.4-29.42,35.4-33.82Q2982.82,1669.66,2948.8,1701.36Zm0,8.46V1713q1.36,0,34.22-30.65v-3.17Q2981.64,1679.17,2948.8,1709.82Zm0,9.51v2.12q1.36,0,33-29.6v-2.11Q2980.46,1689.74,2948.8,1719.33Zm0,8.46V1731q1.36,0,33-29.6v-3.17Q2980.46,1698.19,2948.8,1727.79Zm0,9.51v2.11q1.36,0,33-29.59v-2.11Q2980.46,1707.71,2948.8,1737.3Zm0,8.46v3.17q1.36,0,33-29.6v-3.17Q2980.46,1716.16,2948.8,1745.76Zm0,18v3.18q1.36,0,33-29.6v-3.17Q2980.46,1734.13,2948.8,1763.72Zm0,9.52v2.11q1.36,0,33-29.59v-2.12Q2980.46,1743.64,2948.8,1773.24Zm0,8.45v2.12q1.36,0,33-29.6v-2.11Q2980.46,1752.1,2948.8,1781.69Zm0,9.51v2.12q1.36,0,33-29.6v-2.11Q2980.46,1761.61,2948.8,1791.2Zm0,8.46v2.11q1.36,0,33-29.59v-2.11Q2980.46,1770.07,2948.8,1799.66Zm0,9.51v2.12q1.36,0,33-29.6v-2.11Q2980.46,1779.58,2948.8,1809.17Zm0,8.46v2.11q1.36,0,33-29.59V1788Q2980.46,1788,2948.8,1817.63Zm0,8.45v3.17q1.36,0,33-29.59v-3.17Q2980.46,1796.49,2948.8,1826.08Zm0,9.52v2.11q1.36,0,33-29.59V1806Q2980.46,1806,2948.8,1835.6Zm1.18,43.33h3.54q2.55-.89,30.68-27.48v-3.17Q2982.82,1848.28,2950,1878.93Zm10.62,0H2963q1.56,0,23.6-21.14v-1.06h-1.18Q2983.79,1856.73,2960.6,1878.93Zm9.44,0h3.54q1.77,0,15.34-13.74V1862Q2987.33,1862,2970,1878.93Zm21.24-10.57-10.62,10.57H2983q1.56,0,10.61-9.51Zm-1.19,10.57h3.54c1.18,0,2.76-1.41,4.72-4.23l-2.35-1C2994.94,1873.65,2993,1875.41,2990.09,1878.93Z" transform="translate(-19.59 -42.91)"/><path d="M3197.21,1625.27q61.76,0,113.27,53.9,35.4,43.33,35.4,89.84,0,66.06-61.35,108.86-34.62,21.15-73.16,21.14-82.8,0-132.15-80.32-17.7-30.14-17.7-63.42,0-72.57,72-115.21Q3161.42,1625.27,3197.21,1625.27Zm-79.05,74q-49.56,44.74-49.56,46.51v1q50.73-43.33,50.74-47.56Zm-2.36,10.57-47.2,43.33v3.18q47.19-40.51,47.2-43.34a7.5,7.5,0,0,1,1.18-3.17Zm-47.2,52.85v2.11q1.58,0,46-41.22v-2.11Q3113,1721.45,3068.6,1762.67Zm1.18-25.37q53.1-45.45,53.1-49.68v-1q-53.1,45.45-53.1,49.67Zm0,32.77v3.17q1.57,0,43.66-39.11V1731Q3111.87,1731,3069.78,1770.07Zm1.18,8.45v2.12q1.77-.36,41.3-37v-2.11Q3110.49,1741.89,3071,1778.52Zm56.64-105.69q-55.47,50.2-55.46,51.79v1.05h1.18q55.45-50.2,55.46-51.79v-1.05Zm-55.46,112a7.5,7.5,0,0,1,1.18,3.17q1.57,0,38.94-34.88V1750Zm2.36,8.46,2.36,1.06,35.4-32.77v-2.11Q3110.49,1759.85,3074.5,1793.32Zm67.25-142.69q-63.7,57.25-63.71,59.19a7.5,7.5,0,0,0-1.18,3.17q66.07-56.71,66.07-62.36Zm-64.89,148a7.5,7.5,0,0,1,1.18,3.17l35.4-30.65a7.46,7.46,0,0,1-1.18-3.17Zm3.54,7.4v2.12q1.36,0,33-29.6v-2.11Q3112.06,1776.41,3080.4,1806Zm2.36,5.29a7.6,7.6,0,0,1,1.18,3.17q2.55-.89,30.68-27.48v-3.17Zm1.18-114.15h1.18l61.35-56q-4.91,0-60.17,51.79Zm2.36,121.55,2.36,1,27.14-25.36v-1.06h-1.18Q3113,1793.32,3086.3,1818.69Zm3.54,4.22a7.65,7.65,0,0,1,1.18,3.17q1.58,0,26-23.25v-3.17Zm4.72,6.34v1.06h1.18q1.58,0,22.42-20.08v-2.11Q3116.59,1808.12,3094.56,1829.25Zm3.54,5.29,2.36,1.06q1.56,0,20.06-18v-3.17Q3118.93,1814.46,3098.1,1834.54Zm21.24-178.62-17.7,16.91h1.18l17.7-16.91Zm-16.52,183.9,2.36,1.06,17.7-16.91v-2.11Q3121.31,1821.86,3102.82,1839.82Zm4.72,4.23,2.36,1.06q1.77,0,15.34-13.74v-3.17Q3123.86,1828.2,3107.54,1844.05Zm184.07-180.74v1.06q25.76,19.2,38.93,69.76a75,75,0,0,1,2.36,20.08v7.4q0,69.93-69.61,111-28.51,14.79-56.64,14.8h-13q-43.46,0-83.77-31.71v1q41.88,34.89,88.49,34.88H3209q48.18,0,88.49-35.93,40.13-39.29,40.12-90.9v-6.34q0-48.09-41.29-92ZM3126.42,1835.6l-13,12.68v1.06h1.18q1.56,0,14.16-12.69Zm-8.26,16.91v1h2.36l11.8-9.51a7.51,7.51,0,0,1-1.19-3.17Q3129.56,1840.88,3118.16,1852.51Zm4.72-95.13q0,75.4,36.57,107.81-31.86-35.76-31.85-100.41v-4.23q0-82.08,46-113.09,11.8-6.35,30.68-8.45,18.28,0,36.58,14.79v-1q-19.66-16.92-34.22-16.92H3196q-50.54,0-69.61,80.33A258.37,258.37,0,0,0,3122.88,1757.38Zm1.18,99.35,2.36,1.06,8.25-8.45v-2.12Q3133.1,1847.22,3124.06,1856.73Zm5.9,3.18a2.24,2.24,0,0,0,2.36,2.11q0-1.41,7.07-6.34a7.65,7.65,0,0,1-1.18-3.17C3137,1852.51,3134.28,1855,3130,1859.91Zm4.71-90.9q0,78,40.12,105.69a113.07,113.07,0,0,0,24.78,3.17q34.6,0,57.82-42.27,15.33-32.25,15.34-81.39v-8.45q0-53.73-28.32-87.73-16.72-11.44-28.32-11.63h-5.9q-53.1,0-70.8,77.16A210.29,210.29,0,0,0,3134.67,1769Zm1.18,95.12,2.36,1.06,4.72-5.28v-1.06h-1.18C3140.7,1858.85,3138.74,1860.61,3135.85,1864.13Zm9.44-1.05-3.54,4.22a9.9,9.9,0,0,1,3.54,1.06l2.36-3.17C3147.65,1863.78,3146.87,1863.08,3145.29,1863.08Zm3.54,7.4h3.54v-2.12h-1.18C3149.62,1868.6,3148.83,1869.3,3148.83,1870.48ZM3236.15,1638V1639a2.24,2.24,0,0,0,2.36,2.11l1.18-2.11A9.9,9.9,0,0,1,3236.15,1638Zm75.51,165.94-74.33,67.64h2.36q73.16-63.58,73.15-66.59v-1Zm-69.61-160.66v1.06h1.18q1.77,0,3.54-3.17h-2.36C3242.83,1641.36,3242.05,1642.06,3242.05,1643.23Zm8.26,0c-3.15,3.17-4.72,4.94-4.72,5.29l2.36,1c1.05,0,3-1.76,5.9-5.28A9.69,9.69,0,0,1,3250.31,1643.23Zm0,10.57,2.36,1.06,7.08-7.4h-2.36Q3255.82,1647.46,3250.31,1653.8Zm53.09,165.94-49.55,45.45q7.47-.89,44.83-37l5.9-8.46ZM3255,1658v2.11h1.18q1.56,0,9.44-8.45l-2.36-1.06Q3261.52,1650.63,3255,1658Zm3.54,6.34v1.06h1.18q1.56,0,10.62-9.51v-1.06h-1.18Q3267.62,1654.86,3258.57,1664.37Zm1.18,180.74h1.18q56.63-50.91,56.63-52.85v-2.11Q3259.75,1839.47,3259.75,1845.11ZM3273.91,1658l-11.8,11.63v2.11h1.18q1.56,0,13-11.63C3276.27,1658.73,3275.48,1658,3273.91,1658Zm-9.44,19,2.36,1,14.16-13.74v-1.06h-1.18Q3278,1663.31,3264.47,1677.06Zm3.54,5.28v2.11h1.18q1.36,0,17.7-15.85l-2.36-1.06Q3282.76,1667.72,3268,1682.34Zm51.91,96.18q-50.73,45.81-50.73,47.56l-1.18,2.12h1.18q50.73-45.81,50.73-47.56l1.18-2.12Zm-49.55-88.78v2.11q1.56,0,20.05-18v-1.05h-1.17Q3287.66,1672.83,3270.37,1689.74Zm22.42-12.68-20.06,19v3.17q1.56,0,22.41-20.08C3295.14,1677.76,3294.36,1677.06,3292.79,1677.06Zm-20.06,135.28v3.17q2.36-.69,49.55-44.39V1768Q3319.93,1768.66,3272.73,1812.34Zm1.18-107.8,2.36,1,22.41-21.14v-2.11Q3297.11,1682.34,3273.91,1704.54Zm1.18,99.35q2-.36,47.19-42.28v-2.11Q3275.09,1799.31,3275.09,1803.89ZM3301,1687.62l-24.77,23.26v3.17q1.56,0,27.13-24.31C3303.4,1688.33,3302.62,1687.62,3301,1687.62Zm3.54,6.35-27.13,25.36v2.12q1.56,0,29.49-26.43Zm-27.13,97.23v2.12q1.56,0,44.83-40.17V1751Q3320.71,1751,3277.45,1791.2Zm1.18-64.47v3.17l31.85-27.48a7.6,7.6,0,0,1-1.18-3.17Q3306.75,1700.13,3278.63,1726.73Zm0,53.91v2.11q1.56,0,43.65-39.11v-2.11Q3320.71,1741.53,3278.63,1780.64Zm1.18-45.45v2.11q1.36,0,33-29.59v-1.06h-1.18Q3309.89,1706.83,3279.81,1735.19Zm0,8.45v3.17q1.36,0,35.39-31.71V1713H3314Q3312.64,1713,3279.81,1743.64Zm0,9.51v2.12q1.56,0,37.75-33.82v-2.12Q3315.79,1719.69,3279.81,1753.15Zm37.75-26.42-37.75,34.88v2.11q2.36-.87,40.11-35.93Zm-37.75,44.39v2.12q1.77-.36,41.29-37v-2.11Q3319.33,1734.49,3279.81,1771.12Z" transform="translate(-19.59 -42.91)"/><path d="M3357.13,1635.83h139.23q73.35,0,101.47,24.31c-.78,0-1.17.36-1.17,1.06q20.06,16.74,20.05,41.22v9.51q0,42.28-54.27,59.19-16.92,5.3-40.12,5.29H3458.6c-1.18,0-2.36,1-3.54,3.17v39.11q0,43,10.62,50.73a2.23,2.23,0,0,0,2.36,2.11h1.18q-9.43-9-9.44-45.45v-42.27q0-1.59,3.54-3.17h62.54q61.35,0,86.13-34.88a51.76,51.76,0,0,0,9.44-29.6v-9.51q0-23.25-20-43.34h1.17q27.15,22.9,27.14,53.91,0,70.82-115.63,70.81h-46v63.42q0,26.43,17.7,26.42h17.7q0,1.59,3.54,4.23v6.34H3364.21c-1.84,0-4.59-1-8.26-3.17V1880a2.24,2.24,0,0,1,2.36-2.12h9.44q24,0,33-21.14,3.54-11.26,3.54-16.91V1682.34q0-25.36-17.7-25.37-19.47,0-24.78-7.4v-1q20.45,0,33,7.4v-1.06q-11.41-10.58-36.58-10.57l-1.18-2.11Zm153.39,247.33q8.27,4.75,8.26,10.57v3.17c0,1.41-.79,2.11-2.36,2.11H3374.83q-7.27,0-13-7.4v-1a15.23,15.23,0,0,0,7.08,2.11h140.41c1.57,0,2.36-.7,2.36-2.11v-2.12ZM3396.07,1646.4l2.36,1.06,4.72-5.28h-2.36C3399.61,1642.18,3398,1643.59,3396.07,1646.4Zm1.18,232.53h2.36q1.57,0,46-41.22v-2.11Q3443.26,1836.3,3397.25,1878.93Zm3.54-228.3a2.24,2.24,0,0,0,2.36,2.12l10.62-10.57h-3.54Q3408.66,1642.18,3400.79,1650.63Zm1.18,217.73h1.18l42.48-39.11v-3.17Q3405.7,1859.2,3402,1868.36Zm2.36-211.39,2.36,1.06,16.52-15.85h-2.36Q3419.08,1642.34,3404.33,1657Zm2.36,222h3.54l36.57-31.71a7.55,7.55,0,0,1-1.17-3.17Q3443.85,1844.41,3406.69,1878.93Zm1.18-216.67v2.11h1.18q1.56,0,24.78-22.19h-3.54Q3428.7,1642.18,3407.87,1662.26Zm1.18,190.25h1.18l35.4-32.77v-2.11Q3409,1848.28,3409.05,1852.51Zm1.18-182.85v2.11q1.36,0,33-29.59h-2.35Q3438.35,1643.07,3410.23,1669.66Zm1.18,7.4v3.17q1.37,0,34.22-30.66v-3.17Q3444.25,1646.4,3411.41,1677.06Zm0,9.51v2.11q1.37,0,34.22-30.65v-2.11Q3444.25,1655.92,3411.41,1686.57Zm0,8.45v3.17q1.37,0,34.22-30.65v-3.17Q3444.25,1664.37,3411.41,1695Zm0,9.52v2.11q1.37,0,34.22-30.65v-2.12Q3444.25,1673.88,3411.41,1704.54Zm0,8.45v3.17q1.37,0,34.22-30.65v-3.17Q3444.25,1682.34,3411.41,1713Zm0,9.51v2.12q1.37,0,34.22-30.65v-2.12Q3444.25,1691.85,3411.41,1722.5Zm0,8.46v3.17q1.37,0,34.22-30.65v-3.17Q3444.25,1700.31,3411.41,1731Zm0,9.51v2.12q1.37,0,34.22-30.66v-2.11Q3444.25,1709.82,3411.41,1740.47Zm0,8.46v3.17q1.37,0,34.22-30.65v-3.17Q3444.25,1718.28,3411.41,1748.93Zm0,9.51v2.11q1.37,0,34.22-30.65v-2.11Q3444.25,1727.79,3411.41,1758.44Zm0,8.46v3.17q1.37,0,34.22-30.66v-3.17Q3444.25,1736.24,3411.41,1766.9Zm0,9.51v2.11q1.37,0,34.22-30.65v-2.11Q3444.25,1745.76,3411.41,1776.41Zm0,8.45V1788q1.37,0,34.22-30.65v-3.17Q3444.25,1754.21,3411.41,1784.86Zm0,9.52v2.11q1.37,0,34.22-30.65v-2.12Q3444.25,1763.72,3411.41,1794.38Zm34.22-23.26-34.22,31.71V1806q34.22-28.35,34.22-32.76l1.17-2.12Zm-34.22,41.22v2.12q1.37,0,34.22-30.65v-2.12Q3444.25,1781.69,3411.41,1812.34Zm0,8.46V1824q1.37,0,34.22-30.65v-3.17Q3444.25,1790.15,3411.41,1820.8Zm0,9.51v2.12q1.37,0,34.22-30.66v-2.11Q3444.25,1799.66,3411.41,1830.31Zm0,8.46v3.17q1.37,0,34.22-30.65v-3.17Q3444.25,1808.12,3411.41,1838.77Zm5.9,40.16h2.36q1.56,0,28.31-25.37v-1h-1.18Q3445.23,1852.51,3417.31,1878.93Zm30.67-20.08-21.23,20.08h3.54q1.56,0,20.05-18C3450.34,1859.55,3449.56,1858.85,3448,1858.85Zm3.54,6.34-14.15,13.74h2.35q1.58,0,14.16-12.68Zm-4.72,13.74h2.36q1.77,0,8.26-7.4v-1h-1.18Q3454.67,1870.48,3446.8,1878.93Zm9.44-233.58-1.18,5.28v115.21h4.72V1652.75q0-1.59,3.54-3.18h29.5q41.89,0,53.1,10.57h1.18q-12-14.79-56.64-14.79Zm1.18,233.58h2.36c1.58,0,2.36-.7,2.36-2.11v-1.06H3461Q3459.19,1875.76,3457.42,1878.93ZM3468,1657v108.87l5.9,1.06,5.9-1.06a9.69,9.69,0,0,1,3.54,1.06l5.9-1.06a9.69,9.69,0,0,1,3.54,1.06q42.09,0,57.82-22.2,10.62-19.9,10.62-38l-1.18-5.29V1695q0-37-33-37c0-.7-2.75-1.06-8.26-1.06Zm67.26,107.81v1.06h2.36l1.18-2.12A9.69,9.69,0,0,1,3535.3,1764.78Zm9.44-118.38v1.06a2.23,2.23,0,0,0,2.36,2.11l2.36-3.17Zm0,118.38h2.36q1.58,0,59-52.85v-2.11Q3602.75,1711.59,3544.74,1764.78Zm4.72-112,2.36,1q0-.52,4.72-5.28v-1.06h-1.18Q3553.79,1647.46,3549.46,1652.75Zm4.72,4.22a2.24,2.24,0,0,0,2.36,2.12l8.26-8.46v-1.06h-2.36Q3560.67,1649.57,3554.18,1657Zm50.73,43.34q-46,41.57-46,43.33l-2.36,4.23h1.18l49.55-45.45C3607.27,1701,3606.49,1700.31,3604.91,1700.31Zm-35.39-48.62-11.8,11.62,2.36,1.06,11.8-11.62Zm-11.8,109.92h1.18q5.1,0,44.83-38l1.18-4.23Q3602.95,1719.69,3557.72,1761.61Zm3.54-93v2.11h1.18q1.77,0,16.52-14.79l-2.36-1.06Q3574.83,1654.86,3561.26,1668.6Zm2.36,7.4v1.06h1.18q1.56,0,20.06-18h-2.36Q3580.93,1659.09,3563.62,1676Zm1.18,52.85V1731q1.77-.35,41.29-37v-2.12Q3604.32,1692.21,3564.8,1728.85Zm22.42-66.59L3566,1682.34v3.17q1.56,0,23.6-21.14C3589.58,1663,3588.79,1662.26,3587.22,1662.26ZM3566,1721.45h1.18l36.57-33.83v-3.17q-36.57,30.84-36.57,33.83A7.65,7.65,0,0,1,3566,1721.45Zm1.18-30.65v2.11q1.58,0,27.13-24.31v-1.06h-1.17Q3591.53,1667.54,3567.16,1690.8Zm0,8.45v3.17l31.85-27.48a7.6,7.6,0,0,1-1.18-3.17Q3595.28,1672.65,3567.16,1699.25Zm0,9.51v2.12q1.37,0,34.22-30.65v-2.12Q3600,1678.11,3567.16,1708.76Zm30.67,25.37-22.41,21.14h1.18q17.7-12.51,22.41-21.14Z" transform="translate(-19.59 -42.91)"/><path d="M3727.08,1626.32q35.58,0,85,28.54a50.6,50.6,0,0,0,7.08,2.11q12,0,17.7-21.14h5.9q3.54,4.93,3.54,7.4v80.33c0,1.41-1.18,2.11-3.54,2.11q-6.3,0-16.52-32.76l-11.8-16.91q-32.85-29.6-74.33-29.6-39.15,0-50.74,34.88a47.91,47.91,0,0,0-1.18,8.46q0,15.33,16.52,21.14,16.13,6.33,87.31,25.36,29.31,10.76,48.38,23.26,35.4,26.25,35.4,64.47,0,42.81-46,67.64A102.68,102.68,0,0,1,3792,1899h-9.44q-27.92,0-76.69-23.25-7.68-2.12-10.62-2.11h-4.72q-18.11,0-27.14,24.31a9.91,9.91,0,0,1-4.72,1q-8.07-3-10.62-7.4v-1a15.23,15.23,0,0,0,7.08,2.11q10-26.42,30.68-26.42,9,0,47.2,16.91a113,113,0,0,0,44.83,9.51h3.54q66.08,0,85-59.19,2.36-13.9,2.36-16.91,0-31.71-26-52.85v1.06q21.24,18.49,21.24,48.62,0,42.45-46,67.64-20.25,7.41-38.94,7.4h-5.9q-28.52,0-76.69-23.25-7.67-2.12-10.62-2.11h-9.44q-14.16,0-22.42,20.08-1.58,5.28-3.54,5.28-8.25-.87-8.26-6.34l1.18-5.28-1.18-5.29a7.5,7.5,0,0,1,1.18-3.17l-1.18-5.28,1.18-4.23-1.18-5.29a7.5,7.5,0,0,1,1.18-3.17l-1.18-5.28,1.18-4.23-1.18-5.28a7.42,7.42,0,0,1,1.18-3.17l-1.18-5.29,1.18-4.23-1.18-5.28a7.46,7.46,0,0,1,1.18-3.17l-1.18-5.29,1.18-4.23-1.18-5.28a7.5,7.5,0,0,1,1.18-3.17l-1.18-5.29,1.18-4.22-1.18-5.29a7.5,7.5,0,0,1,1.18-3.17l-1.18-6.34a7.5,7.5,0,0,0,1.18-3.17h3.54q6.49,0,8.26,22.19,14.16,38.94,41.3,58.14c0-.71.39-1.06,1.18-1.06q34.41,30.65,79.05,30.65,51.91-6.87,51.92-45.45,0-17.43-20.06-24.31-23.59-8.45-106.19-34.88-22.43-9.68-37.76-24.31v-1q14.55,13,55.46,27.48,83.37,23.25,97.93,34.88h1.18q-15.93-15.68-103.83-39.11-43.47-16.56-53.1-26.42c0,.7-.39,1-1.18,1q-21.24-25.36-21.24-45.45v-8.45q0-31.71,36.58-55Q3698.56,1626.33,3727.08,1626.32Zm-80.24,65.53V1695q1.57,0,18.88-16.91v-3.17Q3664.15,1674.94,3646.84,1691.85Zm0,9.51v2.12q1.57,0,20.06-18v-2.11Q3665.33,1683.4,3646.84,1701.36Zm1.18-16.91q1.58,0,18.88-16.91v-2.11Q3648,1679.88,3648,1684.45Zm0,24.31v3.17l22.42-19a7.5,7.5,0,0,1-1.18-3.17Q3667.69,1689.74,3648,1708.76Zm1.18,98.3v2.11c1.57,0,2.36-.7,2.36-2.11v-2.12C3650,1805.18,3649.2,1805.89,3649.2,1807.06Zm3.54,4.23-3.54,4.22v3.18c1.05,0,3-1.77,5.9-5.29C3655.1,1812,3654.31,1811.29,3652.74,1811.29Zm3.54,6.34q0,.52-7.08,7.4v2.11q1.58,0,9.44-8.45Zm3.54,5.28-10.62,10.57v3.17q1.58,0,13-11.62C3662.18,1823.62,3661.39,1822.91,3659.82,1822.91ZM3649.2,1843v2.12q1.77,0,16.52-14.8v-1.06h-1.18Q3662.77,1829.25,3649.2,1843Zm18.88-9.51-18.88,18v3.17q1.58,0,21.24-19C3670.44,1834.19,3669.65,1833.48,3668.08,1833.48Zm4.72,5.29L3649.2,1861v2.12q1.58,0,26-23.26Zm-22.42-122.61v2.12q1.57,0,22.42-20.09v-2.11Q3671.23,1696.08,3650.38,1716.16Zm26-69.76q-23.4,21-23.6,25.37h1.18q19.27-17.26,23.6-25.37Zm-1.18,55-22.42,21.14a2.24,2.24,0,0,0,2.36,2.12l22.42-21.14C3677.52,1702.07,3676.73,1701.36,3675.16,1701.36Zm-18.88,27.49,2.36,1.05,24.78-23.25h-2.36Q3679.49,1706.65,3656.28,1728.85Zm0,46.5h1.18q5.89,0,11.8,31.71a113.58,113.58,0,0,0,26,39.11v1q-28.12-25.37-34.22-48.62Zm3.54-41.22,2.36,1.06q1.58,0,27.14-24.31l-2.36-1.06Q3685.39,1709.82,3659.82,1734.13Zm17.7,108.86-13,12.69q5.7,0,15.34-10.57C3679.88,1843.7,3679.09,1843,3677.52,1843Zm15.34-130-27.14,25.37v1.05h1.18q1.57,0,28.32-25.36Zm-22.42,29.6,2.36,1.05q1.57,0,29.5-26.42v-1.06h-2.36Q3698.37,1716.16,3670.44,1742.59Zm5.9-62.36q0,9,9.44,21.13h2.36a28.83,28.83,0,0,1-7.08-19q0-28.89,37.76-41.22,10-1.06,15.34-1.06,37.76,0,70.79,25.37v-1.06q-34.22-28.53-76.69-28.54-38.55,0-50.74,33.83A49.76,49.76,0,0,0,3676.34,1680.23Zm0,66.58,2.36,1.06,30.68-28.54H3707Q3704.46,1720.22,3676.34,1746.81Zm1.18,106.75h2.36q1.77,0,4.72-4.22v-1.06h-1.18Q3681.85,1848.28,3677.52,1853.56Zm4.72-103.58,2.36,1.06q1.37,0,31.86-28.54v-1h-2.36Q3712.33,1721.61,3682.24,1750Zm4.72,102.53v2.11h3.54c0-1.41-.79-2.11-2.36-2.11Zm2.36-99.36,2.36,1.06,31.86-29.59v-1.06h-1.18Q3721,1723.56,3689.32,1753.15Zm7.08,2.12v1.06h2.36q1.36,0,33-29.6v-1.06h-2.36Q3728.06,1725.67,3696.4,1755.27Zm7.08,3.17,2.36,1.06,33-30.65v-1.06h-1.18Q3736.32,1727.79,3703.48,1758.44Zm7.08,2.11v1.06h2.36q1.36,0,34.21-30.65l-2.35-1.06Q3743.4,1729.9,3710.56,1760.55Zm7.08,3.17H3720q1.36,0,34.21-30.65v-1H3753Q3751.67,1732,3717.64,1763.72Zm7.08,2.12a9.8,9.8,0,0,1,3.54,1.06l34.21-31.71-2.36-1.06Q3758.75,1734.13,3724.72,1765.84Zm42.47-29.6L3733,1768V1769h1.18q1.37,0,35.39-31.71Zm7.08,2.12-34.21,31.71v1h2.36q1.36,0,35.39-31.71A9.94,9.94,0,0,1,3774.27,1738.36Zm-27.14,34.88h2.37q1.36,0,35.39-31.71h-2.36Q3781.15,1741.53,3747.13,1773.24Zm7.08,2.11h3.54q1.38,0,35.4-31.71h-3.54Q3788.23,1743.64,3754.21,1775.35Zm8.26,2.11h2.36q1.38,0,34.22-30.65v-1h-1.18Q3796.49,1745.76,3762.47,1777.46Zm41.3-29.59-34.22,31.71a9.69,9.69,0,0,1,3.54,1.06l34.22-31.71A9.9,9.9,0,0,1,3803.77,1747.87Zm7.08,3.17-33,30.65v1.06H3779q1.38,0,34.22-30.65Zm-27.14,33.82h3.54q1.38,0,33-29.59l-2.36-1.06Q3816.55,1754.21,3783.71,1784.86ZM3792,1787v1h1.18q1.38,0,31.86-28.53v-1.06h-1.18Q3822.06,1758.62,3792,1787Zm36.58-25.37-30.68,28.54h2.36q2.55-.89,30.68-27.48Zm-23.6,31.71h2.36q1.58,0,28.32-25.37v-1h-1.18Q3832.88,1766.9,3805,1793.32Zm33-22.2-27.14,25.37h2.36q1.58,0,27.14-24.31Zm-21.24-105.69v2.11h1.18q1.58,0,5.9-5.28h-1.18Q3816.75,1663.67,3816.75,1665.43Zm1.18,134.23v1.06h1.18q1.57,0,24.78-22.2v-2.11Q3842.32,1776.41,3817.93,1799.66Zm2.36-127.89,2.36,1.06,13-12.69V1658Q3833.86,1658,3820.29,1671.77Zm2.36,132.12v1h1.18q1.58,0,23.6-21.13v-1.06h-1.18Q3844.68,1782.75,3822.65,1803.89Zm1.18-127.89a7.46,7.46,0,0,1,1.18,3.17q1.57,0,10.62-9.51v-3.17Zm2.36,132.12a7.42,7.42,0,0,1,1.18,3.17q1.58,0,22.42-20.09V1788Zm1.18-124.72,2.36,1,5.9-6.34V1676Q3833.86,1676,3827.37,1683.4Zm4.72,173.33-3.54,4.23h1.18l3.54-4.23Zm-1.18-168a2.24,2.24,0,0,0,2.36,2.12l2.36-3.18v-3.17Q3833.86,1684.45,3830.91,1688.68Zm0,125.78v2.11q1.58,0,21.24-19v-2.12Q3850.58,1795.43,3830.91,1814.46Zm1.18,37h1.18q14.16-12.51,14.16-15.85Q3832.09,1847.23,3832.09,1851.45Zm1.18-30.65v2.11h1.18q1.58,0,18.88-16.91v-3.17Q3851.76,1802.83,3833.27,1820.8Zm1.18,8.45v1.06h1.18q1.36,0,17.7-15.85v-2.12Q3851.76,1812.34,3834.45,1829.25Zm0,11.63h1.18q16.51-14.27,16.52-19Q3834.45,1835.06,3834.45,1840.88Zm14.16-199.76h1.18q8.25,5.12,8.26,11.63v82.44l-4.72,1q-8.26-3-11.8-8.45l5.9,1.06h1.18c1.57,0,2.36-.71,2.36-2.12v-79.27A11.78,11.78,0,0,0,3848.61,1641.12Z" transform="translate(-19.59 -42.91)"/><path class="cls-1" d="M2145.77,624.22s77-109.5,202.15-109.5S2501.45,693,2655,693s199-73.86,199-73.86-159.21,221.56-383.8,221.56S2271.12,693,2146,693h-.51c-125.09,0-95.52,147.7-320.13,147.7s-383.83-221.56-383.83-221.56S1487,693,1640.58,693s182-178.29,307.07-178.29S2145.77,624.22,2145.77,624.22Z" transform="translate(-19.59 -42.91)"/><path class="cls-1" d="M855.5,722.37,824,727.23q-24.56,3.76-47.1,39.32-17.17,27.06-3.25,55.56,10.59,21.55,33,35.94,22.22,14.26,44.38,15.2,32,1.35,50.68-28.07,12.09-19.06,13.51-43.36,1.51-25.61-11.55-34.58l26.65,6.55q7.13,41.79-17.06,79.93-26.06,41.1-59.71,53.57-35.35,13.29-70.38-8.92-35.34-22.41-40.7-61t20.7-79.69q7-11.07,12.67-16.46l14.67-14,8.71-6.22q4.6-3.28,5.16-4.14c2.91-4.6,4.35-8.11,4.31-10.56q-.21-13-3-15.69Z" transform="translate(-19.59 -42.91)"/><path class="cls-1" d="M890.9,593.83Q923.83,557.23,959,551q36.69-6.39,67.89,21.68,30.74,27.64,29.72,64.94t-33.07,72.94Q991.08,746.66,954.13,752t-68-22.53q-30.45-27.39-28.83-64.15Q858.94,629.37,890.9,593.83Zm9.56,7q-20.76,23.07-11,52.44,7.46,22.38,29,41.81,21,18.92,44.56,23.62,30.15,6,50.81-17,20.46-22.74,11.24-51.42-7.07-22-28.11-41-22.26-20-44.81-25.22Q921.8,577.16,900.46,600.87Z" transform="translate(-19.59 -42.91)"/><path class="cls-1" d="M1086,639.52q10.71-9.45,8.23-24.36a34.17,34.17,0,0,0-7.91-17.32l-72.19-81.77a29.87,29.87,0,0,0-14.75-9.44q-12.78-3.47-26.15,5.15l16.66-21.41,20.23-11,11.22-16.78,23.86-14.36q-18.3,21.52-1,41.14l72.24,81.82A34.22,34.22,0,0,0,1133.28,582q13.62,3.75,24.65-6l-17.21,21.9-18.62,9.73-13.6,18.72Z" transform="translate(-19.59 -42.91)"/><path class="cls-1" d="M1147.91,581.38q9.6-10.83,8.75-27.14a30.41,30.41,0,0,0-6.06-16.56l-63.13-87.09a34.59,34.59,0,0,0-17.88-10,31.65,31.65,0,0,0-21.84,2.64l138.68-100.38,27.16,39.45q-18.78-9.51-52.44,2.63-20,7.18-42.05,23.18c2.29-1.65,2.48-1.8.59-.43l-8.84,6.41-1.3.94,35.7,49.25,3.2-2.32q10.44-7.57,17-24.26,9.22-23.44,4.95-35.09l52.36,72.24q-12.6-9.19-36-6.49a61.56,61.56,0,0,0-30,11.69l25,34.49q2.44,3.36,14.07,12.46,13.73,5.26,29-1.28l-17.22,18.69L1187.07,553l-15.8,17.67Z" transform="translate(-19.59 -42.91)"/><path class="cls-1" d="M1284.74,481.05q10.82-9.62,11.91-25.91a30.51,30.51,0,0,0-4.06-17.16l-52.35-94A34.67,34.67,0,0,0,1223.68,332a31.71,31.71,0,0,0-22,0l149.61-83.21,22.28,42.39q-17.5-11.69-52.38-3.61-20.7,4.77-44.49,18l.63-.35-9.54,5.32-1.4.78,29.6,53.13,3.45-1.93q11.26-6.27,19.73-22.06,11.94-22.2,9.08-34.26l43.42,77.94q-11.42-10.62-35-10.72a61.66,61.66,0,0,0-31.21,8l20.73,37.22q2,3.61,12.5,14,13,6.86,28.89,2.17l-19.32,16.51L1327,457.51l-17.79,15.66Z" transform="translate(-19.59 -42.91)"/><path class="cls-1" d="M1432.73,397.57q11.83-8.34,14.77-24.4a29.58,29.58,0,0,0-1.89-17L1404,256.37a36.3,36.3,0,0,0-15.17-13.69,31.35,31.35,0,0,0-21.78-2.63l158.08-65.73,19.65,46.4q-18.08-15.34-54-11.28-21.11,2.38-46.25,12.87c2.6-1.08,2.88-1.15.86-.22s-5.52,2.43-10.18,4.38l-1.48.61,23.3,55.91,3.63-1.51q11.84-4.94,22-19.64,14.28-20.64,12.78-33l34.58,82.25q-10.14-11.83-33.55-14.61a61.55,61.55,0,0,0-31.92,4.45L1488.39,358q31.06-12.94,52.35-30.8,30.43-25.47,30.21-46.07l20.7,50.05Z" transform="translate(-19.59 -42.91)"/><path class="cls-1" d="M1690.85,142.75q-12.12-12.09-26.6-10.81l17.24-10.17,20.58-.67,14.86-9.49,21.27-.88q-12.09,6-17.41,20.16-4.55,12.17-2,20.45l19.31,64.14q11.82,39.11,2.6,57.69-10.56,21.33-53.55,33.66-68.49,19.64-84.77-37.13-20.29-70.78-22.42-76.06-1.41-6.52-10.94-14.9a47.88,47.88,0,0,0-26.17-12l21.16-11.3,23.93-1.64,18.93-10.65,26.87-2.48q-15.27,8.56-18.5,23.74a35,35,0,0,0,.4,17.27l22,76.58q6.2,21.63,14.3,27.67,11,8.1,35.85.82,31.2-9.07,36.18-27.11,3.15-11.22-4.89-39.25l-18.12-63.17Q1699.16,151.08,1690.85,142.75Z" transform="translate(-19.59 -42.91)"/><path class="cls-1" d="M1914.63,254.85l-69-67.61-28.38,4.58,7.62,47.14a25.61,25.61,0,0,0,6,12.28q8.6,10.32,25.8,12.63l-21.9,8.76-22.69-1.55-21.47,8.69-23.51-1.17q25.9-11.44,22.27-33.89l-17.64-109.17q-3.76-23.32-31.77-24.91l93-15.28q36.52-5.91,55.24-1.55,27.75,6.47,32.37,35,5.91,36.6-35.8,49.7,10.89,11.74,28.32,29.16a167.69,167.69,0,0,0,57,37.88L1956.06,253l-15.71-2.68L1928,257.56ZM1886.31,136q-5.79-35.85-56.28-27.69l-25.6,4.14,10.44,64.63q9.32-.87,17.51-2.19Q1891.06,165.39,1886.31,136Z" transform="translate(-19.59 -42.91)"/><path class="cls-1" d="M2113.76,117.72,2145,42.91l29.14,75.76,91.31,1.44L2192,168.36l27,75.3-76.58-45.6-77.65,43.17,29.41-74.41-71.82-50.54Z" transform="translate(-19.59 -42.91)"/><path class="cls-1" d="M2349.69,242.39q6.11-5.46,8.24-16.45l19.33-99.55q4.57-23.55-20-40.22l92.85,17.89q77.1,15,68.93,57-5.65,29.11-41.56,29.83,21.3,8.75,29.28,18.87,9.66,12.24,5.79,32.1-4.79,24.67-34.59,31.43-23.15,5.24-54.74-.9l-98.55-19.13q5.21,0,13.36-3.81A46.19,46.19,0,0,0,2349.69,242.39Zm41.07,10.15q67.08,13,73.31-19,6.15-31.69-61-44.36Zm15.33-78.95q67.08,13,73.31-19.05,6.15-31.69-61-44.35Z" transform="translate(-19.59 -42.91)"/><path class="cls-1" d="M2712.38,355.83l-20-1.36-13.89-9.93-21.91-2-18.31-11.41q5.86.38,15.82-6a23.15,23.15,0,0,0,9.43-12.62,38.91,38.91,0,0,0-.14-12.5l-2.58-12.52-66.21-22.07q-13.38,11.56-15.44,17.76-3.42,10.26,7.55,26.63a24.25,24.25,0,0,0,5.54,5.95l-22-2L2554,303l-22.74-2.29-17.76-11.22q12.75-2.76,31.7-13.54,1.5-.81,12.79-11.63L2669.4,158.17,2694,313.69q1.3,8.51,2.64,11.87,4.38,11.26,5.64,13.94A76.41,76.41,0,0,0,2712.38,355.83Zm-51.87-83.52-10.82-60.17-45.64,41.34Z" transform="translate(-19.59 -42.91)"/><path class="cls-1" d="M2851.2,424.39l-16.84-95.12-25.75-12.76-21.2,42.79a25.59,25.59,0,0,0-2.28,13.46q1,13.39,13.65,25.27l-22.91-5.6L2758.31,378l-22.52-5.41L2717.34,358q27.72,5.75,37.82-14.64l49.09-99.08q10.5-21.17-11.37-38.74l84.58,41.63q33.15,16.42,45.85,30.85,18.83,21.39,6,47.29-16.47,33.21-58,19.63,2,15.89,6.1,40.19a167.38,167.38,0,0,0,24.4,64L2886,447l-11.23-11.32-14.24-1.3Zm46.05-113.18q16.13-32.54-29.7-55.25l-23.24-11.51-29.06,58.66q8.07,4.71,15.51,8.39Q2884,337.9,2897.25,311.21Z" transform="translate(-19.59 -42.91)"/><path class="cls-1" d="M2934.85,453.33q7.79-2.59,14.09-11.83l57.21-83.73q13.53-19.83-2.37-44.84l78.15,53.24q64.84,44.29,40.67,79.68-16.74,24.5-50,10.9,16.1,16.49,19.41,28.94,4,15.06-7.41,31.76-14.19,20.76-44.23,15.14-23.31-4.35-49.89-22.52l-82.89-56.63q4.77,2,13.77,1.8A46.61,46.61,0,0,0,2934.85,453.33Zm33.69,25.6q56.41,38.55,74.85,11.57,18.21-26.65-38.42-64.9Zm45.36-66.4q56.43,38.55,74.86,11.57,18.21-26.67-38.42-64.9Z" transform="translate(-19.59 -42.91)"/><path class="cls-1" d="M3070.21,568.32q10.8,9.34,25.24,4.88A34.26,34.26,0,0,0,3111.56,563l71.32-82.53a29.85,29.85,0,0,0,7.37-15.88q1.73-13.12-8.62-25.23L3205.09,453l13.61,18.56,18.14,8.87,17.43,21.72q-23.79-15.26-40.9,4.54L3142,589.31a34.16,34.16,0,0,0-8.39,18.18q-1.89,14,9.24,23.61l-24-14.1-12.15-17.14-20.37-11Z" transform="translate(-19.59 -42.91)"/><path class="cls-1" d="M3155.14,639.15q11.81,8.37,27.93,5.76a29.66,29.66,0,0,0,15.43-7.49l80.08-72.57A36.32,36.32,0,0,0,3286.4,546a31.35,31.35,0,0,0-4.81-21.4l114.86,126.94-37.14,34q8.4-22.17-7.43-54.61-9.33-19.08-27.62-39.27,2.84,3.14.49.73t-7.52-8.12l-1.08-1.19-44.88,40.68,2.64,2.91q8.61,9.49,25.85,14.12,24.24,6.54,35.34,1L3269.19,702q7.76-13.51,2.53-36.51a61.61,61.61,0,0,0-14.89-28.59L3211,678.37q22.61,24.95,46.55,39,34.18,20.15,53.53,13l-40.23,36.26Z" transform="translate(-19.59 -42.91)"/><path class="cls-1" d="M3364.94,908.8l35.41-89.87-15.28-24.35L3344.62,820a25.6,25.6,0,0,0-9,10.27q-6.15,12-1.58,28.69l-16.6-16.76-7.4-21.5-16.37-16.39-8.08-22.11q20.63,19.4,39.89,7.31l93.67-58.76q20-12.56,10.57-39l50.31,79.72q19.66,31.35,22.94,50.28,4.85,28.08-19.63,43.44-31.4,19.71-59.72-13.61-6.55,14.59-15.82,37.44a167.61,167.61,0,0,0-12.67,67.29l-12.38-10-3.66-15.52-11.45-8.57Zm98.46-72.37q30.75-19.3,3.58-62.62l-13.78-22-55.46,34.79q4.43,8.24,8.84,15.27Q3438.17,852.26,3463.4,836.43Z" transform="translate(-19.59 -42.91)"/><path class="cls-1" d="M2034.86,2002.44s-2,15.86,14.47,36.44c10.79,13.46,74,90.38,116.47,142.14l20.27-24.14Z" transform="translate(-19.59 -42.91)"/><path class="cls-1" d="M2323.91,2242.32c-17.42,0-32.4,11.82-39,28.8l-50-65.76-16.19-16.07c42.25-51.41,111.88-136.2,123.3-150.41,16.42-20.58,14.44-36.44,14.44-36.44l-200,202.92-50,65.76c-6.63-17-21.58-28.8-39-28.8-23.56,0-42.71,21.57-42.71,48.23s19.15,48.32,42.71,48.32c15.49,0,29-9.45,36.49-23.38l58.77-86.59h23.49s2.72-3.35,7.52-9.15c4.79,5.8,7.5,9.15,7.5,9.15h27.45l58.81,86.59c7.5,13.93,21,23.38,36.49,23.38,23.58,0,42.72-21.64,42.72-48.32S2347.49,2242.32,2323.91,2242.32Zm-256.52,77.55c-17.67,0-32-13.13-32-29.32s14.33-29.3,32-29.3,32,13.13,32,29.3S2085,2319.87,2067.39,2319.87Zm125.12-121.36c-5.32,0-9.6-3.87-9.6-8.63s4.28-8.56,9.6-8.56,9.55,3.86,9.55,8.56S2197.77,2198.51,2192.51,2198.51Zm131.4,121.36c-17.65,0-31.94-13.13-31.94-29.32s14.29-29.3,31.94-29.3,32,13.13,32,29.3S2341.58,2319.87,2323.91,2319.87Z" transform="translate(-19.59 -42.91)"/><path class="cls-1" d="M590.66,2150.48,572,2131q-14.57-15.2-52.78-15.86-29.1-.51-44.56,20.77-11.66,16.14-12.16,37.37-.51,21,9.28,36.55,14.17,22.39,45.78,22.95a89.91,89.91,0,0,0,40-8.73q20.53-9.55,21.29-22.18l7.57,20.88q-29,22.15-70,21.43-44.17-.77-69.8-18.56Q419.52,2207,420.1,2174q.58-33.37,27.91-53t71.52-18.84a92.42,92.42,0,0,1,18.75,1.83l17.79,4.22,8.94,3.36a28.94,28.94,0,0,0,5.66,1.8c4.93.09,8.34-.39,10.21-1.42q10-5.53,10.73-8.53Z" transform="translate(-19.59 -42.91)"/><path class="cls-1" d="M714.73,2103.12q44.71.78,69.93,18.76,26.26,18.79,25.68,52.27-.57,33-26.7,51.8T714,2244q-44-.76-69.77-20.25T619.08,2171q.57-32.67,26.69-50.85Q671.35,2102.37,714.73,2103.12Zm.9,9.44q-28.18-.49-42.44,20.72-10.87,16.17-11.27,39.33-.39,22.56,10.43,39.2,13.92,21.32,42,21.8,27.78.48,41.89-20,10.86-15.75,11.26-38.32.4-23.86-9.49-40.19Q744.59,2113.07,715.63,2112.56Z" transform="translate(-19.59 -42.91)"/><path class="cls-1" d="M830.57,2240.13q13,.23,20.42-9.87a25,25,0,0,0,5.28-14.44l1.52-87a21.74,21.74,0,0,0-4.13-13.5q-6.46-8.94-20.71-11.09l24.27-3.58,20.3,4.46,17.8-3.8,24.79,4.45q-25.46,2.76-25.81,23.61l-1.52,87a24.88,24.88,0,0,0,4.76,15.42q6.84,9.55,20.2,9.78l-24.94,3.58-18.44-4.33-20.58,3.65Z" transform="translate(-19.59 -42.91)"/><path class="cls-1" d="M937.31,2239.52a33.18,33.18,0,0,0,21.14-13.06,22.24,22.24,0,0,0,4.6-13.45l1.49-85.77a26.23,26.23,0,0,0-7.54-15,30,30,0,0,0-17.31-8.82l155.41,2.81-1.72,38.16q-8.48-15.09-39.55-23.54-18.43-5-43.17-5.47,3.84.07.66,0l-9.92-.17-1.45,0-.85,48.5,3.59.06q11.7.21,25.53-7.27,19.47-10.48,22.69-19.95l-1.24,71.14q-4.15-11.89-22.65-21.44a62,62,0,0,0-28.19-7l-.59,34q-.06,3.3,3.45,14.69,7.09,9.95,21.73,13.11l-22.69,3.61-19.5-4.35-21.1,3.64Z" transform="translate(-19.59 -42.91)"/><path class="cls-1" d="M1122,2239.52a33.16,33.16,0,0,0,21.13-13.06,22.17,22.17,0,0,0,4.6-13.45l1.5-85.77a26.24,26.24,0,0,0-7.55-15,30,30,0,0,0-17.31-8.82l155.42,2.81-1.73,38.16q-8.46-15.09-39.54-23.54-18.45-5-43.17-5.47,3.82.07.66,0l-9.92-.17-1.46,0-.85,48.5,3.59.06q11.7.21,25.53-7.27,19.47-10.48,22.7-19.95l-1.25,71.14q-4.15-11.89-22.64-21.44a62,62,0,0,0-28.2-7l-.59,34q-.06,3.3,3.45,14.69,7.1,9.95,21.73,13.11l-22.68,3.61-19.51-4.35-21.1,3.64Z" transform="translate(-19.59 -42.91)"/><path class="cls-1" d="M1444.7,2119.93q-7.34-12.06-20.26-14.49l17.67-3.7,18.05,4.33,15.41-3.74,18.71,4.33a32.47,32.47,0,0,0-20.44,11.27q-7.15,8.21-7.14,15.11l-.14,53.42q0,32.57-13,44.57-14.79,13.78-55.4,13.07-64.68-1.12-63.86-48.22,1-58.71.57-63.23.49-5.31-5.57-13.93a42.47,42.47,0,0,0-19.58-15.28l21.36-3.63,21.23,4.38,19.25-3.68,24,4.43q-15.54,2.94-22.34,13.74a25.37,25.37,0,0,0-4.2,13.26l-1.11,63.52q-.3,17.94,5.13,24.45,7.4,8.74,30.94,9.06,29.49.41,38.58-12.16,5.7-7.82,6.1-31.06l.92-52.4Q1449.72,2128.24,1444.7,2119.93Z" transform="translate(-19.59 -42.91)"/><path class="cls-1" d="M1641.33,2241.73l-50.95-62.91-26.1-.45-.66,38.07a18.63,18.63,0,0,0,3.39,10.48q6,9.33,21.06,13.6l-21,3.74-20-4.45-20.57,3.75-20.83-4.28q25-5.28,25.28-23.41l1.54-88.17q.33-18.84-24.46-24.08l85.59,1.29q33.59.59,49.63,6.68,23.79,9,23.39,32.08-.53,29.57-39.89,33.88,7.88,10.77,20.7,26.92a146.34,146.34,0,0,0,45,37.87l-13.76,3.87-13.63-4.35-12.19,3.9Zm-6.46-97.31q.5-29-45.92-29.77l-23.55-.41-.91,52.2q8.46.66,16,.78Q1634.45,2168.17,1634.87,2144.42Z" transform="translate(-19.59 -42.91)"/><path class="cls-1" d="M1705.79,2239.52a33.16,33.16,0,0,0,21.13-13.06,21.55,21.55,0,0,0,4.59-13.05l1.51-86.17a27.62,27.62,0,0,0-7.68-14.86,29.6,29.6,0,0,0-17.18-8.92l155.42,2.81-.44,40.18q-9.5-17-40.84-25.56-18.43-5-43.17-5.47,3.84.07.8.12t-10.06-.08l-1.45,0-.85,48.29,3.58.06q11.63.21,25.39-7.27,19.37-10.48,22.58-19.95l-1,71.14q-4.16-11.89-22.64-21.44a62,62,0,0,0-28.2-7l-.86,49.29q30.55.54,54.75-5.65,34.55-8.82,41.83-23.93l-.89,43.18Z" transform="translate(-19.59 -42.91)"/><path class="cls-1" d="M2659.42,2241.11q13.9-1.46,20.82-10.36a23.58,23.58,0,0,0,4.88-14.55l.63-36.27-73.93-1.29-.64,36.27a24.32,24.32,0,0,0,4.38,14.31q6.84,10.05,20.58,11.49l-24.41,3.58-19.24-4.24-18.72,3.58-26.25-4.47q25.45-3.15,25.84-25l1.49-85.6a23.66,23.66,0,0,0-4-13.49q-6.7-10.34-20.83-11.78l23.48-3.6a40.15,40.15,0,0,1,10.48,2.19,40.47,40.47,0,0,0,10.48,2.18,35.54,35.54,0,0,0,9.83-1.83,35.36,35.36,0,0,1,9.82-1.83l24.53,4.44q-14.43.75-21.35,10.05a24.17,24.17,0,0,0-4.61,14.35l-.6,34.56,73.93,1.3.61-34.57q.39-22.24-24.83-25.29l25.73-3.56a37.15,37.15,0,0,1,9.82,2.18,37.36,37.36,0,0,0,9.82,2.17,38,38,0,0,0,10.08-1.83,38.1,38.1,0,0,1,10.09-1.83l22.81,4.41q-25.3,1.86-25.69,24.41l-1.5,85.67q-.37,21.84,24.69,25.78l-23.88,3.6-19.24-4.25-19.65,3.57Z" transform="translate(-19.59 -42.91)"/><path class="cls-1" d="M2869.66,2103.12q44.72.78,69.93,18.76,26.26,18.79,25.68,52.27-.57,33-26.7,51.8T2868.92,2244q-44-.76-69.77-20.25T2774,2171q.57-32.67,26.69-50.85Q2826.28,2102.37,2869.66,2103.12Zm.9,9.44q-28.18-.49-42.44,20.72-10.87,16.17-11.27,39.33-.39,22.56,10.43,39.2,13.92,21.32,42,21.8,27.77.48,41.89-20,10.86-15.75,11.26-38.32.41-23.86-9.49-40.19Q2899.52,2113.07,2870.56,2112.56Z" transform="translate(-19.59 -42.91)"/><path class="cls-1" d="M3210.8,2129.71l-1.57,89.63q-.09,5.52,4.3,11.21,6.48,8.44,20.56,12.49l-25.34,3.57-18.84-4.33-20.57,3.65-22.29-4.4q13.68-2.78,20.71-11.47,4.88-6,5-11.34l1.76-100.69-74.12,122.68L3034,2116.48l-1.67,95.69a25.08,25.08,0,0,0,3.86,13.69q6.55,10.84,21.85,14.12l-18.86,3.67-15.27-4.27-16.87,3.71-18.05-4.32q11.67-1.39,18.69-9.6a25.54,25.54,0,0,0,6.65-16.82l1.5-86q.09-5.1-4.44-11.1-6.58-8.84-20.29-12.48l21.78-3.63,17.67,4.32,18.61-3.68,14,4.37,46.15,90.38,52.83-88.67,17.67-3.8,17.4,4.31,17.93-3.7,21.36,4.39a39.61,39.61,0,0,0-17.74,8.21Q3210.94,2121.69,3210.8,2129.71Z" transform="translate(-19.59 -42.91)"/><path class="cls-1" d="M3476.44,2129.71l-1.57,89.63q-.09,5.52,4.3,11.21,6.48,8.44,20.56,12.49l-25.33,3.57-18.85-4.33-20.57,3.65-22.28-4.4q13.66-2.78,20.7-11.47,4.88-6,5-11.34l1.76-100.69L3366,2240.71l-66.36-124.23-1.67,95.69a25.08,25.08,0,0,0,3.86,13.69q6.55,10.84,21.85,14.12l-18.85,3.67-15.28-4.27-16.87,3.71-18-4.32q11.67-1.39,18.69-9.6a25.54,25.54,0,0,0,6.65-16.82l1.5-86q.09-5.1-4.44-11.1-6.59-8.84-20.29-12.48l21.78-3.63,17.67,4.32,18.61-3.68,14,4.37,46.15,90.38,52.83-88.67,17.67-3.8,17.4,4.31,17.93-3.7,21.36,4.39a39.66,39.66,0,0,0-17.74,8.21Q3476.58,2121.69,3476.44,2129.71Z" transform="translate(-19.59 -42.91)"/><path class="cls-1" d="M3520.14,2239.52a33.13,33.13,0,0,0,21.13-13.06,21.62,21.62,0,0,0,4.6-13.05l1.5-86.17a27.62,27.62,0,0,0-7.68-14.86,29.57,29.57,0,0,0-17.18-8.92l155.42,2.81-.44,40.18q-9.49-17-40.83-25.56-18.43-5-43.17-5.47c2.55,0,2.82.09.79.12s-5.47,0-10.05-.08l-1.46,0-.84,48.29,3.57.06q11.64.21,25.4-7.27,19.36-10.48,22.57-19.95l-1,71.14q-4.17-11.89-22.65-21.44a62,62,0,0,0-28.19-7l-.86,49.29q30.55.54,54.74-5.65,34.56-8.82,41.83-23.93l-.89,43.18Z" transform="translate(-19.59 -42.91)"/><path class="cls-1" d="M3835.4,2142.24q-14.87-27.72-56.26-28.45-12-.21-20.06,4.46-8.68,5.07-8.58,14,.2,11.43,25,21,45.08,17.33,45.87,17.74,24.65,13,24.3,32.69t-19.06,30.64q-17.25,10.32-43.7,9.86a86.63,86.63,0,0,1-21.24-3.48q-15.95-4.38-19.63-5.05a19.61,19.61,0,0,0-2.91-.25q-12.16-.21-20.11,7.57l.8-37.88q18.46,17.86,28.19,22.15,10.36,4.59,34.45,5,13.08.22,22.85-5.82,10.3-6.43,10.34-16.25.09-12.74-24.62-21.78l-45.76-16.74q-24.53-12.15-24.18-31.69.32-18.63,16.11-28.78,15-9.76,40-9.33,13.23.24,40.72,9.53a11.8,11.8,0,0,0,3.56.57q9.12.15,14.32-9.08Z" transform="translate(-19.59 -42.91)"/></g></g></svg>