<svg id="Calque_1" data-name="Calque 1" xmlns="http://www.w3.org/2000/svg" viewBox="0 0 3591.4 2295.95"><defs><style>.cls-1{fill:#fff;}.cls-2{fill:#12100b;}</style></defs><g id="Calque_2" data-name="Calque 2"><polygon class="cls-1" points="3591.39 1919.43 0 1919.43 249.21 1726.81 0 1534.25 3591.39 1534.25 3342.15 1730.87 3591.39 1919.43"/><path class="cls-1" d="M5864.68,1277.36v172H5848a711.16,711.16,0,0,0-122.48-113.23q-37.24-24.56-64.18-33.35t-67.12-8.78h-82.31v200.13h19.59q46,0,80.35-19.31t64.67-64.08h18.62v182.57h-18.62l-11.75-15.8-11.76-14-22.54-18.43q-14.7-11.4-23.52-14.92-34.3-19.31-75.45-19.31h-19.59v222.94h80.35l21.55-2.63a220.63,220.63,0,0,0,33.32-6.15q16.65-4.38,30.37-9.21t35.28-18q8.82-5.26,24.5-15.8a588.22,588.22,0,0,0,116.6-104.45l17.64-.87v173.79H5213.06v-16.68h24.5l43.12-1.75a55.49,55.49,0,0,0,15.67-2.64l11.76-7.9q9.78-7,15.68-21.06,1.95-11.4,2.94-20.63t1-24.14V1372.15q0-27.2-3.92-42.57t-14.7-21.5q-9.81-8.76-25.47-11.41l-46.06-2.64h-24.5v-16.67ZM5452.15,1316v-22h-131.3q12.72,10.54,19.6,22Zm0,395.86h-111.7q-6.87,11.42-8.82,12.29l-10.78,9.65h131.3Zm0-384.45H5344.37l2.94,15.8V1359h104.84Zm0,341.44H5347.31V1689l-2.94,10.53h107.78Zm0-297.56H5347.31v29.85h104.84Zm0,42.14H5347.31v30.72h104.84Zm0,42.13H5347.31v31.6h104.84Zm0,43H5347.31v30.72h104.84Zm0,42.13H5347.31v31.6h104.84Zm0,43H5347.31v30.72h104.84Zm0,42.13H5347.31v30.72h104.84Zm145-117.62,24.49,13.17,18.62,12.29,12.74,10.53v-36Zm3.91-11.41H5653v-36q-4.92,4.41-13.72,11.85a132.44,132.44,0,0,1-17.64,12.73Zm128.37,209.78-21.56,13.17-35.27,14h145v-27.21Zm80.35-385.33V1294H5684.38l23.52,12.29,23.52,14.92Zm-62.71,373.92h70.55v-57.05a446.29,446.29,0,0,1-52.92,43.88Zm62.71-362.51h-61.73l21.55,16.68a193.43,193.43,0,0,1,22.05,19.31q8.31,8.79,18.13,18.43Z" transform="translate(-5205.57 -286.31)"/><path class="cls-1" d="M6003.81,1750.46v-16.68h25.48q54.87,0,72-13.6t17.15-64.52V1356.35q0-33.35-12.74-44.76-21.57-17.55-76.43-17.56h-25.48v-16.67h413.51V1294h-25.48q-51,0-64.67,7-24.49,16.68-24.49,71.09v361.63h61.73q73.48,0,132.28-30.72,36.24-18.43,72.51-49.59t75.45-75.93l17.64-.87v173.79Zm241-434.48,4.9-11.41,8.82-10.54h-147q12.72,10.54,19.6,22Zm-2,395.86H6131.2l-7.84,12.29-11.76,9.65h131.3Zm1-383.57H6135.12l2.94,14.92,1,15.8H6242.9v-22Zm-1,340.56H6139V1689l-3.92,10.53H6242.9Zm0-297.56H6139v29.85H6242.9Zm0,42.14H6139v30.72H6242.9Zm0,42.13H6139v31.6H6242.9Zm0,43H6139v30.72H6242.9Zm0,42.13H6139v31.6H6242.9Zm0,43H6139v30.72H6242.9Zm0,42.13H6139v30.72H6242.9Zm284.17,76.36-30.38,17.56-33.31,14h145v-31.6Zm18.61-12.29h62.72v-51.78A783,783,0,0,1,6545.68,1689.89Z" transform="translate(-5205.57 -286.31)"/><path class="cls-1" d="M7207.09,1733.78v16.68H6794.56v-16.68h24.5l43.11-1.75q3.91,0,14.7-2.64l11.76-7.9a42,42,0,0,0,15.19-21.06q4.41-13.17,4.41-44.77V1372.15q0-15.8-1-26.77a134.11,134.11,0,0,0-3.43-20.63,25.9,25.9,0,0,0-10.78-15.36,100.13,100.13,0,0,0-15.19-8.77,49.51,49.51,0,0,0-12.74-3.95l-46-2.64h-24.5v-16.67h412.53V1294h-24.5q-31.36,0-45.07,2.64a51.52,51.52,0,0,0-24,7.9q-11.27,7-17.15,24.57l-2.94,17.56-1,25.45v283.51q0,26.34,3.91,43.89,3.92,10.53,15.68,19.75t23.52,11.85l47,2.63ZM7035.61,1316l4.9-11.41,8.82-10.54h-147q10.77,7.9,19.6,22Zm0,395.86H6922q-6.87,11.42-8.82,12.29l-10.78,9.65h147A116.64,116.64,0,0,1,7035.61,1711.84Zm-2-383.57H6925.87l2,14.92,1,15.8h104.84Zm0,340.56H6928.81V1689l-2.94,10.53h107.78Zm0-297.56H6929.79v29.85h103.86Zm0,42.14H6929.79v30.72h103.86Zm0,42.13H6929.79v31.6h103.86Zm0,43H6929.79v30.72h103.86Zm0,42.13H6929.79v31.6h103.86Zm0,43H6929.79v30.72h103.86Zm0,42.13H6929.79v30.72h103.86Z" transform="translate(-5205.57 -286.31)"/><path class="cls-1" d="M7999.81,1277.36v208.9h-18.62q-5.88-20.19-25.48-51.79-1-.85-6.37-10.53a108.25,108.25,0,0,0-11.26-16.68l-22.54-27.21q-39.21-43.87-78.39-68.46Q7809.7,1294,7774.44,1294h-13.72v361.63q0,15.81,1,26.77a118,118,0,0,0,3.43,20.19q2.43,9.23,12.25,17.12,5.88,3.51,13.22,7a47.19,47.19,0,0,0,13.23,4.39l46.06,2.63h24.49v16.68H7461.86v-16.68h24.49l43.12-1.75a55.55,55.55,0,0,0,15.68-2.64l11.75-7.9q9.8-7,15.68-21.06,2-11.4,2.94-20.63a238.68,238.68,0,0,0,1-24.14V1294h-12.74l-22.53.88-21.56,6.15q-16.68,6.15-36.26,21.06-32.33,26.34-53.89,49.15a327.34,327.34,0,0,0-43.11,57.06l-13.72,23.7L7357,1486.26h-17.64v-208.9ZM7407,1321.24l16.66-14,15.68-13.17H7357v27.21Zm-10.77,11.41H7357v50.91Zm193,379.19q-6.87,11.42-8.82,12.29l-10.78,9.65h147l-8.82-10.53-4.89-11.41Zm3.92-12.29h108.77l-1-5.27v-25.45H7596.1v18.43ZM7596.1,1316H7701v-22H7596.1Zm0,43H7701v-31.6H7596.1Zm0,42.13H7701v-29.85H7596.1Zm0,43H7701v-30.72H7596.1Zm0,43H7701v-31.6H7596.1Zm0,42.13H7701v-30.72H7596.1Zm0,43H7701v-31.6H7596.1Zm0,42.13H7701v-30.72H7596.1Zm0,42.13H7701v-30.72H7596.1ZM7944,1321.24V1294H7839.11l15.68,10.54,23.51,16.67Zm0,11.41H7892q31.35,29,51.94,56.18Z" transform="translate(-5205.57 -286.31)"/><path class="cls-1" d="M8783.7,1277.36v172H8767a711.53,711.53,0,0,0-122.48-113.23q-37.26-24.56-64.19-33.35t-67.12-8.78h-82.31v200.13h19.6q46,0,80.35-19.31t64.67-64.08h18.62v182.57h-18.62l-11.76-15.8-11.76-14-22.53-18.43q-14.7-11.4-23.52-14.92-34.3-19.31-75.45-19.31h-19.6v222.94h80.35l21.56-2.63a220.63,220.63,0,0,0,33.32-6.15q16.65-4.38,30.37-9.21t35.28-18q8.82-5.26,24.49-15.8a588,588,0,0,0,116.61-104.45l17.64-.87v173.79H8132.08v-16.68h24.5l43.11-1.75a55.55,55.55,0,0,0,15.68-2.64l11.76-7.9q9.78-7,15.68-21.06,2-11.4,2.94-20.63t1-24.14V1372.15q0-27.2-3.92-42.57t-14.7-21.5q-9.81-8.76-25.48-11.41l-46-2.64h-24.5v-16.67ZM8371.17,1316v-22h-131.3q12.72,10.54,19.59,22Zm0,395.86H8259.46q-6.85,11.42-8.81,12.29l-10.78,9.65h131.3Zm0-384.45H8263.38l2.94,15.8V1359h104.85Zm0,341.44H8266.32V1689l-2.94,10.53h107.79Zm0-297.56H8266.32v29.85h104.85Zm0,42.14H8266.32v30.72h104.85Zm0,42.13H8266.32v31.6h104.85Zm0,43H8266.32v30.72h104.85Zm0,42.13H8266.32v31.6h104.85Zm0,43H8266.32v30.72h104.85Zm0,42.13H8266.32v30.72h104.85Zm145-117.62,24.5,13.17,18.62,12.29,12.73,10.53v-36Zm3.92-11.41H8572v-36q-4.91,4.41-13.71,11.85a132.44,132.44,0,0,1-17.64,12.73Zm128.36,209.78-21.55,13.17-35.28,14h145v-27.21Zm80.35-385.33V1294H8603.4l23.52,12.29,23.51,14.92Zm-62.71,373.92h70.55v-57.05a445.41,445.41,0,0,1-52.91,43.88Zm62.71-362.51h-61.73l21.56,16.68a193.43,193.43,0,0,1,22.05,19.31q8.31,8.79,18.12,18.43Z" transform="translate(-5205.57 -286.31)"/><path class="cls-2" d="M5493.36,1880.66h168.73q38,0,70.8,21.14l-1.18,2.11q20.05,17.27,20.06,40.17,0,37.34-62.54,56v2.12a66.72,66.72,0,0,0,9.44,1q56.64-20.07,56.64-51.79V1943q0-16.92-17.7-35.94h1.18q24.78,21.86,24.78,46.51,0,35.94-53.1,53.9v1.06q62.53,27.84,62.54,65.53v10.57q0,35.58-51.92,52.85-20.27,6.33-46,6.34H5512.24q-7.27,0-13-7.4v-1.06a15.25,15.25,0,0,0,7.08,2.12h152.21q77.69,0,101.48-38.05,5.9-12.69,5.9-23.26v-5.28q0-24.32-21.24-41.22v1q16.52,14.8,16.52,35.94V2072q0,46.86-73.16,59.18-10.43,2.11-28.32,2.12H5501.62q-2.76,0-8.26-3.17v-7.4h9.44q37.76,0,37.76-45.45v-144.8q0-29.6-13-29.59-28.32-3.18-28.32-9.52,21,0,33,7.4v-1.06q-10.81-9.51-29.5-9.51h-4.72c-2-2.11-3.54-3.17-4.72-3.17Zm34.22,243.1h2.36q1.57,0,51.92-46.51v-3.17Q5543.9,2106.68,5527.58,2123.76Zm2.36-236.76v2.11h1.18c1.57,0,2.36-.7,2.36-2.11Zm4.72,5.29v1h1.18q1.58,0,7.08-6.34h-2.36Q5539,1887,5534.66,1892.29Zm2.36,231.47h2.36q1.57,0,42.48-38.05v-2.12Q5580.29,2083.59,5537,2123.76Zm1.18-227.25a7.5,7.5,0,0,1,1.18,3.17q1.57,0,14.16-12.68H5550Zm3.54,7.4,2.36,1.06,18.88-18h-2.36Q5559,1887,5541.74,1903.91Zm2.36,197.65h1.18l36.58-33.82v-2.12Q5544.11,2097,5544.1,2101.56Zm1.18-192.36v3.17q1.57,0,28.32-25.37h-3.54Q5568.49,1887,5545.28,1909.2Zm1.18,8.45v2.12q1.38,0,35.4-31.71V1887h-1.18Q5579.3,1887,5546.46,1917.65Zm0,173.34q1.38,0,35.4-31.71v-3.17q-35.4,29.43-35.4,33.82Zm0,32.77H5550q1.38,0,31.86-28.54v-3.17Q5580.48,2092.05,5546.46,2123.76Zm1.18-198.71v3.17q1.38,0,34.22-30.65v-3.17Q5580.48,1894.4,5547.64,1925.05Zm0,9.51v2.12q1.38,0,34.22-30.65v-2.12Q5580.48,1903.91,5547.64,1934.56Zm0,8.46v3.17q1.38,0,34.22-30.65v-3.17Q5580.48,1912.37,5547.64,1943Zm0,9.51v2.12q1.38,0,34.22-30.66v-2.11Q5580.48,1921.88,5547.64,1952.53Zm0,8.46v3.17q1.38,0,34.22-30.65v-3.17Q5580.48,1930.34,5547.64,1961Zm0,9.51v2.11q1.38,0,34.22-30.65v-2.11Q5580.48,1939.85,5547.64,1970.5Zm0,8.45v3.18q1.38,0,34.22-30.66v-3.17Q5580.48,1948.3,5547.64,1979Zm0,9.52v2.11q1.38,0,34.22-30.65v-2.11Q5580.48,1957.82,5547.64,1988.47Zm0,8.45v3.17q1.38,0,34.22-30.65v-3.17Q5580.48,1966.27,5547.64,1996.92Zm0,9.52v2.11q1.38,0,34.22-30.65v-2.12Q5580.48,1975.78,5547.64,2006.44Zm0,8.45v3.17q1.38,0,34.22-30.65v-3.17Q5580.48,1984.24,5547.64,2014.89Zm0,9.51v2.12q1.38,0,34.22-30.65v-2.12Q5580.48,1993.75,5547.64,2024.4Zm0,8.46V2036q1.38,0,34.22-30.65v-3.17Q5580.48,2002.21,5547.64,2032.86Zm0,9.51v2.12q1.38,0,34.22-30.66v-2.11Q5580.48,2011.72,5547.64,2042.37Zm0,8.46V2054q1.38,0,34.22-30.65v-3.17Q5580.48,2020.18,5547.64,2050.83Zm0,9.51v2.11q1.38,0,34.22-30.65v-2.11Q5580.48,2029.69,5547.64,2060.34Zm0,8.45V2072q1.38,0,34.22-30.66v-3.17Q5580.48,2038.14,5547.64,2068.79Zm0,9.52v2.11q1.38,0,34.22-30.65v-2.11Q5580.48,2047.66,5547.64,2078.31Zm9.44,45.45h2.36q1.57,0,22.42-20.09v-2.11Q5580.29,2101.56,5557.08,2123.76Zm9.44,0h3.54q1.57,0,11.8-10.57V2110Q5580.09,2110,5566.52,2123.76Zm10.62,0h2.36c1.57,0,2.36-.71,2.36-2.12v-2.11C5580.68,2119.53,5579.1,2120.94,5577.14,2123.76Zm14.16-231.47v103.58H5596v-99.36a2.23,2.23,0,0,1,2.36-2.11h55.45q19.47,0,31.86,9.51v-1.05q-12.39-12.69-38.94-12.69h-53.09C5592.08,1890.41,5591.3,1891.11,5591.3,1892.29Zm0,116.26v113.09a2.24,2.24,0,0,0,2.36,2.12H5596v-111a2.24,2.24,0,0,1,2.36-2.12h34.21q43.47,0,57.82,14.8v-1.06q-15.54-18-62.54-18h-34.21C5592.08,2006.67,5591.3,2007.38,5591.3,2008.55Zm13-105.69v93h27.13q46,0,59-27.48a92.53,92.53,0,0,0,4.72-28.54v-4.23q0-25.55-11.8-30.65-12.39-4.23-29.5-4.23h-47.19C5605.06,1901,5604.28,1901.68,5604.28,1902.86Zm0,116.26v104.64h20.05q56.25,0,69.62-24.31,9.44-16.74,9.44-39.11,0-34.88-33-41.22-21.63-2.11-38.94-2.12h-24.77C5605.06,2017.24,5604.28,2018,5604.28,2019.12Zm59-18h3.54q1.77,0,8.26-7.4Q5664.45,1997.8,5663.27,2001.15Zm8.26,2.11,2.36,1.06,1.18-2.11v-1.06h-1.18C5672.32,2001.39,5671.53,2002.09,5671.53,2003.26Zm5.9,2.12v1.06l2.36,1H5681v-1A9.9,9.9,0,0,1,5677.43,2005.38Zm0,117.32H5681q31.06-26.6,69.62-62.36v-3.17q-53.1,45.63-61.36,57.07Q5677.42,2121.82,5677.43,2122.7Zm7.08-230.41,2.36,1c1.18,0,2.36-1,3.54-3.17h-3.54C5685.3,1890.41,5684.51,1891.11,5684.51,1892.29Zm1.18,115.2-1.18,2.12v1.05h1.18c1.57,0,2.36-.7,2.36-2.11Zm0-16.91h1.18q3.15,0,54.28-47.56v-2.11Q5739.58,1940.91,5685.69,1990.58Zm3.54-93,2.36,1.06,5.9-6.34h-2.36Q5693.56,1892.29,5689.23,1897.57Zm0,116.26,2.36,1.06q1.77,0,4.72-4.23l-2.36-1.05Q5692.18,2009.61,5689.23,2013.83Zm0,107.81q4.73,0,51.92-44.39,10.62-7.39,10.62-11.63Q5749.79,2066.16,5689.23,2121.64Zm2.36-142.69h1.18l47.2-43.33v-3.17Q5691.6,1973.33,5691.59,1979Zm2.36-77.15v2.11h1.18q1.57,0,10.62-9.51h-3.54Q5700.44,1894.4,5694,1901.8Zm7.08,109.92-7.08,7.4,2.36,1.06q0-.54,7.08-7.4Zm8.26-115.21-11.8,11.63v2.11q1.58,0,14.16-12.68Zm-10.62,126.84v1.05h1.18q1.57,0,10.62-9.51h-2.36Q5706.54,2014.89,5698.67,2023.35Zm16.52-123.67-15.34,14.8v3.17q1.38,0,17.7-15.85C5717.55,1900.39,5716.76,1899.68,5715.19,1899.68Zm-15.34,60.25V1962q1.57,0,38.94-34.88v-1.05h-1.18Q5735.84,1926.46,5699.85,1959.93Zm21.24-56-20.06,19v2.11q1.57,0,22.42-20.08ZM5701,1952.53h1.18q0-1.23,34.22-30.65a7.5,7.5,0,0,1-1.18-3.17Q5701,1946.72,5701,1952.53Zm0,32.77q7.47-.88,36.58-29.6a8,8,0,0,0,1.18-4.23Q5737,1951.83,5701,1985.3Zm24.78-77.16-23.6,22.2v3.17q1.57,0,26-23.26C5728.17,1908.84,5727.38,1908.14,5725.81,1908.14Zm-23.6,31.71V1942q1.57,0,29.5-26.42v-2.12Q5730.14,1913.42,5702.21,1939.85Zm0,89.84v1h1.18q1.57,0,14.16-12.68h-2.36Q5713.62,2018.06,5702.21,2029.69Zm0,88.78q6.49,0,42.48-34.88,5.9-3,5.9-8.45Q5748.22,2075.85,5702.21,2118.47Zm3.54-83.5v2.12q1.38,0,17.7-15.86h-2.36Q5719.32,2021.23,5705.75,2035Zm41.3,15.86q-41.11,37.17-41.3,39.1V2091q1.58,0,43.66-39.11ZM5727,2024.4l-18.88,18v2.12q1.57,0,21.24-19Zm4.72,4.23-22.42,21.14v2.11q1.57,0,24.78-22.19Zm-22.42,47.56v3.17l37.76-32.76a7.5,7.5,0,0,1-1.18-3.17Q5744.1,2043.61,5709.29,2076.19Zm27.14-43.33-26,24.31v3.17q1.57,0,28.32-25.37C5738.79,2033.56,5738,2032.86,5736.43,2032.86Zm4.72,5.28-30.68,28.54v2.11q1.36,0,33-29.59Zm2.36,51.79-22.42,21.14a63.85,63.85,0,0,0,22.42-19l1.18-2.12Z" transform="translate(-5205.57 -286.31)"/><path class="cls-2" d="M5909.88,1875.37q5.9,0,17.7,35.94,75.51,182.85,83.77,198.71,7.08,7.39,8.26,7.39v-1q-6.3,0-38.94-86.67-2.35-3-61.35-148h1.18q6.48,1.93,27.13,58.13,66.09,159.95,74.34,177.56a17.26,17.26,0,0,0,13,5.29h8.26q4.71,1.76,4.72,7.4v1.05c0,1.41-.79,2.12-2.36,2.12H5919.32c-1.18,0-2.76-1.41-4.72-4.23v-6.34h18.88q22.41,0,22.41-13.74,0-9-13-41.22c0-1.41-.78-2.12-2.36-2.12h-77.87q-7.67,0-10.62,14.8a43.86,43.86,0,0,0-4.72,20.08v5.29q0,16.9,15.34,16.91,1.77,0,4.72,4.23v4.22c0,1.41-.79,2.12-2.36,2.12h-85q-7.07,0-7.07-6.34v-4.23q40.69,0,73.15-99.35l59-148ZM5870.94,2128q8.27,5.11,8.26,11.63v2.11c0,1.41-.79,2.12-2.36,2.12H5790.7q-6.28,0-11.8-6.34v-1.06l5.9,1.06h83.78q3.54,0,3.54-4.23Zm-72-4.22h2.36q1.58,0,24.78-22.2v-2.11Q5824.53,2099.45,5799,2123.76Zm9.44,0h3.54l17.7-14.8a7.5,7.5,0,0,1-1.18-3.17Q5826.89,2105.79,5808.4,2123.76Zm10.62,0h2.36q1.57,0,10.62-9.52v-2.11Q5830.42,2112.13,5819,2123.76Zm1.18-25.37h1.18l3.54-4.23v-1.06Q5822.57,2093.64,5820.2,2098.39Zm14.16,19-5.9,6.35H5832q1.77,0,4.72-4.23C5836.72,2118.12,5835.93,2117.41,5834.36,2117.41Zm10.62-62.36q-10.62,29.07-10.62,37,0,16,14.16,26.42v-1.06q-9.44-9-9.44-20.08,0-10.74,10.62-38h88.49v-2.11c0-1.41-.78-2.12-2.36-2.12Zm-4.72,66.59-1.18,2.12h3.54C5842.62,2122.35,5841.83,2121.64,5840.26,2121.64Zm49.56-180.73q-2.37,8.63-40.12,103.58h4.72q3.34,0,38.94-97.24c-1.58-2.94-2.36-5-2.36-6.34Zm8.26,20.08-31.86,83.5h66.08v-1.06q-23.61-56.9-33-82.44Zm-5.9-34.88h1.18l22.42-21.14v-2.11h-1.18Q5892.17,1920.47,5892.18,1926.11Zm1.18,5.28v1.06h1.18q1.57,0,23.6-21.14v-2.11Q5916.57,1909.2,5893.36,1931.39Zm3.54,5.29v2.11h1.18l23.6-20.08a7.5,7.5,0,0,1-1.18-3.17Q5918.92,1915.54,5896.9,1936.68Zm14.16-40.17q-13,11.81-13,14.8h1.18l14.16-13.74Zm-11.8,47.57v1.05h1.18q1.57,0,23.6-21.14v-1h-1.18Q5921.29,1922.94,5899.26,1944.08Zm2.36,5.28a7.65,7.65,0,0,1,1.18,3.17q1.57,0,23.6-21.14v-2.11h-1.18Zm2.36-51.79q1.56,0,5.9-5.28v-3.18Q5904,1892.11,5904,1897.57Zm1.18,59.19v2.11q1.58,0,23.6-21.14v-2.11Q5927.17,1935.62,5905.16,1956.76Zm24.78-14.8-22.42,21.14v2.11h1.18q1.56,0,23.6-21.13C5932.3,1942.67,5931.51,1942,5929.94,1942Zm-20.06,28.54v1.06h1.18q1.56,0,23.6-21.14v-1.06h-1.18Q5931.89,1949.36,5909.88,1970.5Zm2.36,5.28a7.65,7.65,0,0,1,1.18,3.17q1.56,0,23.6-21.13v-3.17Zm25.95-13.74-22.41,21.14v2.12q1.56,0,24.77-22.2Zm2.36,6.35-22.41,21.13v2.12h1.18q1.56,0,23.59-21.14C5942.91,1969.09,5942.13,1968.39,5940.55,1968.39Zm-20.05,28.53V1998h1.18q1.56,0,23.59-21.14v-2.11Q5943.7,1974.73,5920.5,1996.92Zm131,131.06q8.25,5.11,8.26,11.63v2.11c0,1.41-.79,2.12-2.36,2.12H5932.3q-6.49,0-11.8-7.4l5.9,1.06h122.71q3.54,0,3.54-4.23Zm-128.61-125.77a7.6,7.6,0,0,1,1.18,3.17q1.56,0,23.59-21.14v-3.17Zm26-13.74-22.41,21.14v2.11q1.56,0,24.77-22.2ZM5928.76,2016v2.11h1.18q1.56,0,23.59-21.14v-2.11h-1.18Q5950.78,1994.81,5928.76,2016Zm2.36,7.4,2.36,1.05,22.41-21.14v-2.11Q5954.32,2001.15,5931.12,2023.35Zm2.36,5.28a7.65,7.65,0,0,1,1.18,3.17l24.77-21.14a7.6,7.6,0,0,1-1.18-3.17Zm3.54,7.4v2.11q1.56,0,24.77-22.19v-1.06h-1.18Q5959,2014.89,5937,2036Zm2.36,6.34v3.17q1.56,0,24.77-22.19v-2.12H5963Q5961.4,2021.23,5939.38,2042.37Zm2.35,7.4,2.36,1.06,22.42-21.14v-2.12Q5964.94,2027.57,5941.73,2049.77Zm26-15.85-22.42,21.13v2.12q1.57,0,24.78-22.2Zm-20.06,28.53v1.06h1.18q1.57,0,23.6-21.14v-1.06h-1.18Q5969.66,2041.31,5947.63,2062.45Zm2.36,6.34,2.36,1.06,22.42-21.14v-2.11Q5973.2,2046.6,5950,2068.79Zm26-14.79-22.42,21.14v2.11q1.57,0,24.78-22.2Zm2.36,6.34-22.42,21.14v2.11q1.57,0,24.78-22.19Zm-20.06,27.48v2.11h1.18q1.57,0,23.6-21.14v-2.11h-1.18Q5980.28,2066.68,5958.25,2087.82Zm0,35.94h3.54q1.38,0,31.86-28.54v-2.12h-1.18Q5991.09,2093.1,5958.25,2123.76Zm2.36-28.54v2.11q1.57,0,24.78-22.19V2073Q5983.82,2073,5960.61,2095.22Zm1.18,7.4a2.23,2.23,0,0,0,2.36,2.11q0-1.41,24.78-22.2a7.56,7.56,0,0,1-1.18-3.17Q5986.17,2079.36,5961.79,2102.62Zm0,9.51v2.11q1.57,0,29.5-26.42v-1.06h-1.18Q5988.54,2086.76,5961.79,2112.13Zm33-12.68-26,24.31h2.36q1.58,0,26-23.26Zm-16.52,24.31h3.54q1.38,0,17.7-15.86v-2.11h-1.18Q5996.8,2105.79,5978.31,2123.76Zm23.6-12.69-13,12.69h2.36q1.57,0,13-11.63Zm3.54,5.29-7.08,7.4h3.54c1.05,0,3-1.77,5.9-5.29C6007.81,2117.06,6007,2116.36,6005.45,2116.36Zm3.54,7.4h2.36c1.57,0,2.36-.71,2.36-2.12h-2.36C6009.78,2121.88,6009,2122.58,6009,2123.76Z" transform="translate(-5205.57 -286.31)"/><path class="cls-2" d="M6059.73,1880.66h180.53q51.51,0,77.87,20.08h1.18l-1.18,2.12q21.24,18.14,21.24,45.44,0,42.46-57.82,57.08-14.74,3.16-18.88,3.17,0,3.17,48.38,82.44,9.84,15.86,20.06,25.37v-1.06Q6316,2097,6267.39,2013.83v-1q76.7-10.92,76.7-62.36,0-23.09-21.24-45.45H6324q27.14,23.25,27.14,51.79v2.11q0,41.22-54.28,56-21.24,4-21.24,6.34,49,83.85,62.54,98.3,5.7,3.16,17.7,3.17H6363q1.77,0,4.72,4.23v6.34h-80.24q-7.47,0-16.52-19-45.42-70.27-57.81-91.95h-41.3c-1.57.24-2.36.94-2.36,2.11V2091q0,31.71,18.88,31.71h11.8q4.71,1.76,4.72,7.4v1.05c0,1.41-.79,2.12-2.36,2.12H6064.45c-2-2.12-3.54-3.17-4.72-3.17v-7.4h3.54q32,0,40.11-22.2,3.54-14.45,3.54-34.88V1938.79q0-34.87-10.62-34.88l-23.59-4.23q-5.31-2.1-5.9-4.22v-1.06H6068q21,0,29.49,6.34v-1.06q-9-9.51-35.39-9.51v-1.06l-2.36-3.17ZM6207.22,2128h1.18q8.25,5.11,8.26,11.63l-1.18,4.23H6078.61q-7.29,0-13-7.4l8.26,1.06H6206q1.77,0,3.54-3.18Q6209.58,2132.57,6207.22,2128Zm-110.92-4.22h2.36q2.37-.71,48.38-43.34v-2.11Q6144.69,2079,6096.3,2123.76Zm1.18-234.65v1.06h1.18q1.77,0,3.54-3.17h-2.36C6098.27,1887.24,6097.48,1887.94,6097.48,1889.11Zm4.72,5.29v1.06h1.18q1.57,0,9.44-8.46h-2.36Q6108.69,1887,6102.2,1894.4Zm3.54,5.28,2.36,1.06,14.16-13.74h-2.36Q6118.33,1887,6105.74,1899.68Zm40.12,187.08-40.12,37h3.54q1.57,0,38.94-34.88C6148.22,2087.47,6147.44,2086.76,6145.86,2086.76Zm-37.76,20.08q1.57,0,38.94-34.87v-3.18Q6108.1,2101,6108.1,2106.84Zm1.18-201.87v3.17q1.57,0,23.6-21.14h-3.54Q6127.77,1887,6109.28,1905Zm2.36,7.4v2.11q2.56-.87,30.68-27.48H6140Q6138.39,1887,6111.64,1912.37Zm0,181.79h1.18l34.22-31.71v-2.11Q6111.64,2089.75,6111.64,2094.16Zm1.18-174.39v3.17q1.38,0,34.22-30.65v-3.18Q6145.66,1889.11,6112.82,1919.77Zm0,9.51,2.36,1.06,31.86-29.6v-2.11Q6145.66,1898.63,6112.82,1929.28Zm0,155.37q1.38,0,34.22-30.65v-3.17Q6112.82,2078.66,6112.82,2084.65Zm1.18-148v3.17q1.38,0,33-29.6v-3.17Q6145.66,1907.08,6114,1936.68Zm0,9.51v2.11q1.38,0,33-29.59v-2.11Q6145.66,1916.6,6114,1946.19Zm0,8.46v3.17q1.38,0,33-29.6v-3.17Q6145.66,1925.05,6114,1954.65Zm0,9.51v2.11q1.38,0,33-29.59v-2.12Q6145.66,1934.56,6114,1964.16Zm0,8.45v3.17q1.38,0,33-29.59V1943Q6145.66,1943,6114,1972.61Zm0,9.52v2.11q1.38,0,33-29.59v-2.12Q6145.66,1952.53,6114,1982.13Zm0,8.45v3.17q1.38,0,33-29.59V1961Q6145.66,1961,6114,1990.58Zm0,9.51v2.12q1.38,0,33-29.6v-2.11Q6145.66,1970.5,6114,2000.09Zm0,8.46v3.17q1.38,0,33-29.59V1979Q6145.66,1979,6114,2008.55Zm0,9.51v2.12q1.38,0,33-29.6v-2.11Q6145.66,1988.47,6114,2018.06Zm0,8.46v3.17q1.38,0,33-29.6v-3.17Q6145.66,1996.92,6114,2026.52Zm0,9.51v2.11q34.23-28.35,34.22-32.76Q6146.84,2005.38,6114,2036Zm0,8.46v3.17q1.38,0,33-29.6v-3.17Q6145.66,2014.89,6114,2044.49Zm0,9.51v2.11q1.38,0,33-29.59v-2.12Q6145.66,2024.4,6114,2054Zm0,8.45v3.17q1.38,0,33-29.59v-3.17Q6145.66,2032.86,6114,2062.45Zm0,9.52v2.11q1.38,0,33-29.59v-2.12Q6145.66,2042.37,6114,2072Zm2.36,51.79h2.36q2.56-.89,30.68-27.48v-1.06h-1.18Q6146.45,2095.4,6116.36,2123.76Zm33-22.2-23.6,22.2h3.54q1.58,0,22.42-20.09C6151.76,2102.26,6151,2101.56,6149.4,2101.56Zm-13,22.2h2.36q1.77,0,15.34-13.74v-2.12Q6152.74,2107.9,6136.42,2123.76Zm9.44,0h3.54q1.58,0,9.44-8.46l-2.36-1.06Q6154.91,2114.24,6145.86,2123.76Zm15.34-5.29q-4.72,4.76-4.72,5.29h2.36q1.77,0,4.72-4.23Zm-3.54-226.18v108.86h4.72V1896.51a2.23,2.23,0,0,1,2.36-2.11h53.1q38.94,0,53.09,12.68v-1q-14-15.85-63.71-15.86H6160C6158.45,1890.41,6157.66,1891.11,6157.66,1892.29Zm0,119.43v70.81q0,25.91,14.16,34.88v-1q-9.43-8.64-9.44-29.6V2016l5.9-1.06h38.94v-1.06c0-1.41-.79-2.11-2.36-2.11Zm11.8-107.81v97.24h42.48q46.41,0,60.17-20.08,10.62-14.1,10.62-35.94,0-31.87-17.7-39.1a105.51,105.51,0,0,0-28.31-4.23h-64.9C6170.25,1902,6169.46,1902.74,6169.46,1903.91Zm43.66,105.7a2.23,2.23,0,0,0,2.36,2.11l3.54-4.23h-3.54C6213.9,2007.73,6213.12,2008.43,6213.12,2009.61Zm3.54,6.34v1h1.18q1.56,0,11.8-10.56Q6224.91,2006.44,6216.66,2016Zm3.54,5.28a2.24,2.24,0,0,0,2.36,2.12l18.88-18h-2.36Q6235.93,2005.38,6220.2,2021.23Zm3.54,6.34,2.36,1.06q27.13-24.84,27.13-26.42Q6250.1,2002.21,6223.74,2027.57Zm3.54,5.29a2.23,2.23,0,0,0,2.36,2.11l23.59-22.19v-3.17Q6251.66,2009.61,6227.28,2032.86Zm3.54,6.34,2.36,1.06,23.59-22.2V2017h-1.18Q6254,2017,6230.82,2039.2Zm3.54,4.23a7.6,7.6,0,0,1,1.18,3.17q1.56,0,24.77-22.2v-2.11h-1.18Zm3.54,7.4,2.36,1.05,23.59-22.19v-1.06h-1.18Q6261.09,2028.63,6237.9,2050.83Zm3.54,5.28,2.36,1.06,23.59-22.2v-1h-1.18Q6264.64,2033.92,6241.44,2056.11Zm4.72,5.29v2.11q1.56,0,24.77-22.2v-1h-1.18Q6268.17,2040.26,6246.16,2061.4Zm2.36,6.34,2.36,1.05,23.59-22.19v-1.06h-1.18Q6271.72,2045.54,6248.52,2067.74Zm4.71,5.28v2.12q1.58,0,24.78-22.2v-2.11Q6276.44,2050.83,6253.23,2073Zm3.54,5.29v2.11q1.57,0,24.78-22.19v-1.06h-1.18Q6278.8,2057.17,6256.77,2078.31Zm2.36,6.34,2.36,1.06q1.58,0,23.6-21.14v-2.12h-1.18Q6282.33,2062.45,6259.13,2084.65Zm4.72-192.36a9.83,9.83,0,0,1,3.54,1l3.54-4.23h-3.54Q6265.62,1889.11,6263.85,1892.29Zm0,197.64v2.12q1.57,0,24.78-22.2v-1.06h-1.18Q6285.88,2068.79,6263.85,2089.93Zm2.36-91.95h2.36q3.15,0,60.18-52.85V1942Q6326.79,1942.49,6266.21,1998Zm1.18,97.24v2.11h1.18q1.58,0,23.6-21.14v-2.11H6291Q6289.41,2074.08,6267.39,2095.22Zm2.36-198.71,2.36,1.06q0-.52,7.08-7.4h-2.36Q6275.25,1890.17,6269.75,1896.51Zm1.18,205v1.06h1.18q1.57,0,23.6-21.14v-1.06h-1.18Q6293,2080.42,6270.93,2101.56Zm3.54-200.82,2.36,1.06q1.58,0,10.62-9.51h-3.54Q6282.33,1892.29,6274.47,1900.74Zm0,206.1V2109h1.18q1.58,0,23.6-21.14v-2.11h-1.18Q6296.5,2085.71,6274.47,2106.84Zm3.54,6.35v1h1.18q1.57,0,23.6-21.14v-1h-1.18Q6300,2092.05,6278,2113.19Zm1.18-207.16v1h1.18q1.57,0,14.16-12.68h-2.36Q6290.59,1894.4,6279.19,1906Zm48.38,45.44-47.2,43.34h1.18q3.15,0,46-40.16a7.49,7.49,0,0,1,1.18-3.18Zm-46,167a2.23,2.23,0,0,0,2.36,2.11l22.42-21.13v-2.12h-1.18Q6303.58,2097.33,6281.55,2118.47Zm16.52-222-15.34,14.8v2.11h1.18q1.77,0,16.52-14.79C6300.43,1897.22,6299.65,1896.51,6298.07,1896.51Zm-15.34,80.33h1.18l43.66-40.16v-2.12Q6282.74,1972.27,6282.73,1976.84Zm21.24-76.1-18.88,18,2.36,1.06,18.88-18Zm-17.7,223h2.36q1.57,0,21.24-19v-2.11Q6308.3,2102.62,6286.27,2123.76Zm85,4.22q5.31,0,8.26,10.57v3.17c0,1.41-.79,2.12-2.36,2.12h-79.06q-11.79-2.64-11.8-7.4l5.9,1.06h77.88c1.57,0,2.36-.71,2.36-2.12v-2.11Zm-83.78-202.93v3.17q1.57,0,24.78-22.19l-2.36-1.06Q6308.3,1905,6287.45,1925.05Zm36.58,2.11q-36.57,32.6-36.58,35.94v1.06q1.57,0,38.94-34.88C6326.39,1927.87,6325.6,1927.16,6324,1927.16Zm-35.4,6.35v2.11q1.57,0,27.14-24.31v-2.11Q6314.2,1909.2,6288.63,1933.51Zm33-12.69-33,30.65v2.12q1.38,0,35.4-31.71Zm-3.54-6.34-28.32,26.43v3.17q2.55-.88,30.68-27.48C6320.49,1915.19,6319.7,1914.48,6318.13,1914.48Zm5.9,48.62-29.5,27.48q7.47,0,28.32-23.25l2.36-4.23Zm-11.8,144.8-16.52,15.86h3.54q1.77,0,15.34-13.74C6314.59,2108.61,6313.8,2107.9,6312.23,2107.9Zm-5.9,15.86h2.36q1.57,0,9.44-8.46v-2.11Q6316.56,2113.19,6306.33,2123.76Zm9.44,0h3.54q1.77,0,4.72-4.23l-2.36-1.06Q6320.09,2118.47,6315.77,2123.76Z" transform="translate(-5205.57 -286.31)"/><path class="cls-2" d="M6379.49,1880.66h168.73q37.95,0,70.79,21.14l-1.18,2.11q20.06,17.27,20.06,40.17,0,37.34-62.54,56v2.12a66.87,66.87,0,0,0,9.44,1q56.64-20.07,56.64-51.79V1943q0-16.92-17.7-35.94h1.18q24.78,21.86,24.78,46.51,0,35.94-53.1,53.9v1.06q62.53,27.84,62.54,65.53v10.57q0,35.58-51.92,52.85-20.25,6.33-46,6.34H6398.37q-7.29,0-13-7.4v-1.06a15.25,15.25,0,0,0,7.08,2.12h152.21q77.67,0,101.47-38.05,5.9-12.69,5.9-23.26v-5.28q0-24.32-21.24-41.22v1q16.51,14.8,16.52,35.94V2072q0,46.86-73.16,59.18-10.42,2.11-28.31,2.12H6387.75q-2.76,0-8.26-3.17v-7.4h9.44q37.76,0,37.75-45.45v-144.8q0-29.6-13-29.59-28.32-3.18-28.32-9.52,21,0,33,7.4v-1.06q-10.82-9.51-29.49-9.51h-4.72q-3-3.17-4.72-3.17Zm34.22,243.1h2.35q1.57,0,51.92-46.51v-3.17Q6430,2106.68,6413.71,2123.76Zm2.35-236.76v2.11h1.19c1.57,0,2.35-.7,2.35-2.11Zm4.72,5.29v1H6422q1.57,0,7.08-6.34h-2.36C6425.63,1887,6423.67,1888.76,6420.78,1892.29Zm2.36,231.47h2.36q1.58,0,42.48-38.05v-2.12Q6466.41,2083.59,6423.14,2123.76Zm1.18-227.25a7.5,7.5,0,0,1,1.18,3.17q1.58,0,14.16-12.68h-3.54Zm3.54,7.4,2.36,1.06,18.88-18h-2.36Q6445.16,1887,6427.86,1903.91Zm2.36,197.65h1.18l36.58-33.82v-2.12Q6430.23,2097,6430.22,2101.56Zm1.18-192.36v3.17q1.58,0,28.32-25.37h-3.54Q6454.61,1887,6431.4,1909.2Zm1.18,8.45v2.12q1.38,0,35.4-31.71V1887h-1.18Q6465.42,1887,6432.58,1917.65Zm0,173.34q1.38,0,35.4-31.71v-3.17q-35.4,29.43-35.4,33.82Zm0,32.77h3.54q1.38,0,31.86-28.54v-3.17Q6466.6,2092.05,6432.58,2123.76Zm1.18-198.71v3.17q1.38,0,34.22-30.65v-3.17Q6466.6,1894.4,6433.76,1925.05Zm0,9.51v2.12q1.38,0,34.22-30.65v-2.12Q6466.6,1903.91,6433.76,1934.56Zm0,8.46v3.17q1.38,0,34.22-30.65v-3.17Q6466.6,1912.37,6433.76,1943Zm0,9.51v2.12q1.38,0,34.22-30.66v-2.11Q6466.6,1921.88,6433.76,1952.53Zm0,8.46v3.17q1.38,0,34.22-30.65v-3.17Q6466.6,1930.34,6433.76,1961Zm0,9.51v2.11q1.38,0,34.22-30.65v-2.11Q6466.6,1939.85,6433.76,1970.5Zm0,8.45v3.18q1.38,0,34.22-30.66v-3.17Q6466.6,1948.3,6433.76,1979Zm0,9.52v2.11q1.38,0,34.22-30.65v-2.11Q6466.6,1957.82,6433.76,1988.47Zm0,8.45v3.17q1.38,0,34.22-30.65v-3.17Q6466.6,1966.27,6433.76,1996.92Zm0,9.52v2.11q1.38,0,34.22-30.65v-2.12Q6466.6,1975.78,6433.76,2006.44Zm0,8.45v3.17q1.38,0,34.22-30.65v-3.17Q6466.6,1984.24,6433.76,2014.89Zm0,9.51v2.12q1.38,0,34.22-30.65v-2.12Q6466.6,1993.75,6433.76,2024.4Zm0,8.46V2036q1.38,0,34.22-30.65v-3.17Q6466.6,2002.21,6433.76,2032.86Zm0,9.51v2.12q1.38,0,34.22-30.66v-2.11Q6466.6,2011.72,6433.76,2042.37Zm0,8.46V2054q1.38,0,34.22-30.65v-3.17Q6466.6,2020.18,6433.76,2050.83Zm0,9.51v2.11q1.38,0,34.22-30.65v-2.11Q6466.6,2029.69,6433.76,2060.34Zm0,8.45V2072q1.38,0,34.22-30.66v-3.17Q6466.6,2038.14,6433.76,2068.79Zm0,9.52v2.11q1.38,0,34.22-30.65v-2.11Q6466.6,2047.66,6433.76,2078.31Zm9.44,45.45h2.36q1.57,0,22.42-20.09v-2.11Q6466.41,2101.56,6443.2,2123.76Zm9.44,0h3.54q1.57,0,11.8-10.57V2110Q6466.21,2110,6452.64,2123.76Zm10.62,0h2.36c1.58,0,2.36-.71,2.36-2.12v-2.11Q6466.21,2119.53,6463.26,2123.76Zm14.16-231.47v103.58h4.72v-99.36a2.23,2.23,0,0,1,2.36-2.11H6540q19.47,0,31.86,9.51v-1.05q-12.39-12.69-38.94-12.69h-53.1C6478.21,1890.41,6477.42,1891.11,6477.42,1892.29Zm0,116.26v113.09a2.24,2.24,0,0,0,2.36,2.12h2.36v-111a2.24,2.24,0,0,1,2.36-2.12h34.22q43.45,0,57.81,14.8v-1.06q-15.52-18-62.53-18h-34.22C6478.21,2006.67,6477.42,2007.38,6477.42,2008.55Zm13-105.69v93h27.14q46,0,59-27.48a92.53,92.53,0,0,0,4.72-28.54v-4.23q0-25.55-11.79-30.65-12.39-4.23-29.5-4.23h-47.2C6491.19,1901,6490.4,1901.68,6490.4,1902.86Zm0,116.26v104.64h20.06q56.23,0,69.61-24.31,9.45-16.74,9.44-39.11,0-34.88-33-41.22-21.64-2.11-38.94-2.12h-24.78C6491.19,2017.24,6490.4,2018,6490.4,2019.12Zm59-18h3.54q1.77,0,8.26-7.4Q6550.58,1997.8,6549.4,2001.15Zm8.26,2.11,2.36,1.06,1.18-2.11v-1.06H6560C6558.44,2001.39,6557.66,2002.09,6557.66,2003.26Zm5.9,2.12v1.06l2.36,1h1.18v-1A9.9,9.9,0,0,1,6563.56,2005.38Zm0,117.32h3.54q31.07-26.6,69.61-62.36v-3.17q-53.1,45.63-61.36,57.07Q6563.56,2121.82,6563.56,2122.7Zm7.08-230.41,2.36,1c1.17,0,2.35-1,3.53-3.17H6573C6571.42,1890.41,6570.64,1891.11,6570.64,1892.29Zm1.18,115.2-1.18,2.12v1.05h1.18c1.57,0,2.35-.7,2.35-2.11Zm0-16.91H6573q3.14,0,54.27-47.56v-2.11Q6625.7,1940.91,6571.82,1990.58Zm3.53-93,2.36,1.06,5.9-6.34h-2.36C6580.2,1892.29,6578.24,1894.05,6575.35,1897.57Zm0,116.26,2.36,1.06c1.18,0,2.76-1.41,4.72-4.23l-2.36-1.05Q6578.3,2009.61,6575.35,2013.83Zm0,107.81q4.72,0,51.92-44.39,10.62-7.39,10.62-11.63Q6635.92,2066.16,6575.35,2121.64Zm2.36-142.69h1.18l47.2-43.33v-3.17Q6577.72,1973.33,6577.71,1979Zm2.36-77.15v2.11h1.18q1.58,0,10.62-9.51h-3.54Q6586.56,1894.4,6580.07,1901.8Zm7.08,109.92-7.08,7.4,2.36,1.06q0-.54,7.08-7.4Zm8.26-115.21-11.8,11.63v2.11q1.57,0,14.16-12.68Zm-10.62,126.84v1.05H6586q1.57,0,10.62-9.51h-2.36Q6592.66,2014.89,6584.79,2023.35Zm16.52-123.67-15.34,14.8v3.17q1.38,0,17.7-15.85C6603.67,1900.39,6602.89,1899.68,6601.31,1899.68ZM6586,1959.93V1962q1.57,0,38.94-34.88v-1.05h-1.18Q6622,1926.46,6586,1959.93Zm21.24-56-20.06,19v2.11q1.58,0,22.42-20.08Zm-20.06,48.62h1.18q0-1.23,34.22-30.65a7.65,7.65,0,0,1-1.18-3.17Q6587.16,1946.72,6587.15,1952.53Zm0,32.77q7.49-.88,36.58-29.6a7.94,7.94,0,0,0,1.18-4.23Q6623.14,1951.83,6587.15,1985.3Zm24.78-77.16-23.6,22.2v3.17q1.58,0,26-23.26C6614.29,1908.84,6613.51,1908.14,6611.93,1908.14Zm-23.6,31.71V1942q1.58,0,29.5-26.42v-2.12Q6616.25,1913.42,6588.33,1939.85Zm0,89.84v1h1.18q1.58,0,14.16-12.68h-2.36Q6599.74,2018.06,6588.33,2029.69Zm0,88.78q6.49,0,42.48-34.88,5.89-3,5.9-8.45Q6634.36,2075.85,6588.33,2118.47Zm3.54-83.5v2.12q1.38,0,17.7-15.86h-2.36Q6605.44,2021.23,6591.87,2035Zm41.3,15.86q-41.1,37.17-41.3,39.1V2091q1.57,0,43.66-39.11Zm-20.06-26.43-18.88,18v2.12q1.58,0,21.24-19Zm4.72,4.23-22.42,21.14v2.11q1.58,0,24.78-22.19Zm-22.42,47.56v3.17l37.76-32.76a7.5,7.5,0,0,1-1.18-3.17Q6630.22,2043.61,6595.41,2076.19Zm27.14-43.33-26,24.31v3.17q1.58,0,28.32-25.37C6624.91,2033.56,6624.13,2032.86,6622.55,2032.86Zm4.72,5.28-30.68,28.54v2.11q1.38,0,33-29.59Zm2.36,51.79-22.42,21.14a63.77,63.77,0,0,0,22.42-19l1.18-2.12Z" transform="translate(-5205.57 -286.31)"/><path class="cls-2" d="M6659.13,1880.66h236c1.18,0,2.76,1.41,4.72,4.23V1980h-4.72q-4.32,0-14.15-38-14.56-39.11-53.1-39.1,0-1.06-10.62-1.06h-46c-1.57.23-2.36.94-2.36,2.11v101.47q29.51,0,46-44.39,3.54-8.81,7.08-34.88h5.9c2.36,3.29,3.54,5.75,3.54,7.4V2091c0,1.41-.79,2.11-2.36,2.11h-3.54q-4.72,0-8.26-29.59-10.23-33.83-22.42-33.82,0-2.82-22.42-4.23a9.9,9.9,0,0,1-3.54,1.06v96.18H6796q68.43,0,93.21-69.76,5.91-26.43,8.26-26.42h1.18q7.08,1.57,7.08,7.4v99.35H6667.39q-2.76,0-8.26-3.17v-7.4h13q23,0,31.86-27.48l2.36-18a7.94,7.94,0,0,1-1.18-4.23l1.18-4.23-1.18-5.28a7.5,7.5,0,0,1,1.18-3.17l-1.18-5.29,1.18-4.22-1.18-5.29a7.5,7.5,0,0,1,1.18-3.17l-1.18-5.28,1.18-4.23-1.18-5.29a7.5,7.5,0,0,1,1.18-3.17l-1.18-5.28,1.18-4.23-1.18-5.28a7.42,7.42,0,0,1,1.18-3.17l-1.18-5.29,1.18-4.23-1.18-5.28a7.46,7.46,0,0,1,1.18-3.17l-1.18-5.29,1.18-4.23-1.18-5.28a7.5,7.5,0,0,1,1.18-3.17l-1.18-5.29,1.18-4.22-1.18-5.29a7.5,7.5,0,0,1,1.18-3.17l-1.18-5.28,1.18-4.23-1.18-5.29c0-1.41.39-2.11,1.18-2.11q0-32.76-15.34-32.76-26-2.29-26-8.46v-1.06q33,3.71,33,8.46v-1.06q-9.64-10.56-36.58-10.57v-1.06l-2.36-3.17Zm249,151.14h1.18q8.26,5.12,8.26,11.63v98.29c0,1.41-.78,2.12-2.36,2.12H6678q-7.28,0-13-7.4v-1.06a15.25,15.25,0,0,0,7.08,2.12h236c1.58,0,2.36-.71,2.36-2.12v-97.24A11.73,11.73,0,0,0,6908.09,2031.8Zm-214.74,92h2.36q2.35-.71,50.73-45.45v-2.12Q6744.87,2076.19,6693.35,2123.76Zm1.18-234.65,2.36,1.06,2.36-3.17h-2.36C6695.31,1887.24,6694.53,1887.94,6694.53,1889.11Zm5.9,3.18v2.11h1.18q1.77,0,8.26-7.4h-3.54Q6704.75,1887,6700.43,1892.29Zm2.36,231.47h3.54q2.35-.89,40.11-35.94v-3.17Q6744.87,2084.65,6702.79,2123.76Zm1.18-225.13,2.36,1,13-12.68H6717Q6715.38,1887,6704,1898.63Zm3.54,5.28a2.24,2.24,0,0,0,2.36,2.12l20.05-19h-3.53Q6724.8,1887,6707.51,1903.91Zm1.18,199.76q1.56,0,37.75-33.82v-3.17q-37.75,31.37-37.75,35.94Zm1.18-192.36v1.06h1.18q1.56,0,28.31-25.37H6737Q6735.42,1887,6709.87,1911.31Zm2.36,6.34v3.17q1.37,0,34.21-30.65V1887Q6745.08,1887,6712.23,1917.65Zm0,9.51v2.12q1.37,0,34.21-30.65v-2.12Q6745.08,1896.51,6712.23,1927.16Zm0,8.46v3.17q1.37,0,34.21-30.65V1905Q6745.08,1905,6712.23,1935.62Zm0,9.51v2.12q1.37,0,34.21-30.65v-2.12Q6745.08,1914.48,6712.23,1945.13Zm0,8.46v3.17q1.37,0,34.21-30.65v-3.17Q6745.08,1922.94,6712.23,1953.59Zm0,9.51v2.11q1.37,0,34.21-30.65v-2.11Q6745.08,1932.45,6712.23,1963.1Zm0,8.46v3.17q1.37,0,34.21-30.65v-3.17Q6745.08,1940.91,6712.23,1971.56Zm0,9.51v2.11q1.37,0,34.21-30.65v-2.11Q6745.08,1950.42,6712.23,1981.07Zm0,8.45v3.18q1.37,0,34.21-30.66v-3.17Q6745.08,1958.87,6712.23,1989.52Zm0,9.52v2.11q1.37,0,34.21-30.65v-2.11Q6745.08,1968.39,6712.23,1999Zm0,8.45v3.17q1.37,0,34.21-30.65v-3.17Q6745.08,1976.84,6712.23,2007.49Zm0,9.51v2.12q1.37,0,34.21-30.65v-2.12Q6745.08,1986.35,6712.23,2017Zm0,8.46v3.17q1.37,0,34.21-30.65v-3.17Q6745.08,1994.81,6712.23,2025.46Zm0,9.51v2.12q1.37,0,34.21-30.65v-2.12Q6745.08,2004.32,6712.23,2035Zm0,8.46v3.17q1.37,0,34.21-30.65v-3.17Q6745.08,2012.78,6712.23,2043.43Zm0,9.51v2.11q1.37,0,34.21-30.65v-2.11Q6745.08,2022.29,6712.23,2052.94Zm0,8.46v3.17q1.37,0,34.21-30.65v-3.18Q6745.08,2030.74,6712.23,2061.4Zm0,9.51V2073q1.37,0,34.21-30.65v-2.11Q6745.08,2040.26,6712.23,2070.91Zm0,8.45v3.17q1.37,0,34.21-30.65v-3.17Q6745.08,2048.71,6712.23,2079.36Zm0,9.52V2091q1.37,0,34.21-30.65v-2.11Q6745.08,2058.23,6712.23,2088.88Zm1.18,34.88h2.36q2.55-.89,30.67-27.48v-2.12Q6745.08,2094.16,6713.41,2123.76Zm9.44,0h3.54q1.56,0,20-18v-3.17Q6744.87,2102.62,6722.85,2123.76Zm10.61,0h2.36q1.58,0,10.62-9.52v-2.11Q6744.87,2112.13,6733.46,2123.76Zm9.44,0h3.54v-3.18Q6744.67,2120.58,6742.9,2123.76Zm14.16-231.47v113.09h4.72V1896.51a2.23,2.23,0,0,1,2.36-2.11h28.32q53.29,0,69.62,16.91v-1.06q-17.51-20.07-75.52-20.08h-27.14C6757.85,1890.41,6757.06,1891.11,6757.06,1892.29Zm0,122.6V2122.7h4.72V2019.12h7.08q19.47,0,31.86,10.57v-1.06q-14.36-13.74-36.58-13.74Zm30.68-3.17a9.69,9.69,0,0,1,3.54,1.06l29.5-27.48v-3.17Q6819.4,1982.13,6787.74,2011.72Zm7.08,3.17,2.36,1.06,23.6-22.2v-2.11Q6819.21,1991.64,6794.82,2014.89Zm5.9,3.17v2.12h1.18q1.58,0,18.88-16.92v-3.17Q6819.21,2000.09,6800.72,2018.06Zm4.72,5.29v1.05h1.18q1.57,0,14.16-12.68v-2.11Q6819,2009.61,6805.44,2023.35Zm3.54,5.28a2.23,2.23,0,0,0,2.36,2.11l9.44-9.51v-3.17Q6819.21,2018.06,6809,2028.63Zm3.54-45.45h1.18l7.08-7.4v-2.11Q6815.86,1976,6812.52,1983.18Zm0,51.79,2.36,1.06,5.9-6.34v-2.12Q6819,2027.57,6812.52,2035Zm3.54,5.29a2.23,2.23,0,0,0,2.36,2.11l2.36-3.17V2036Q6819,2036,6816.06,2040.26Zm17.7-108.87h1.18q8.25,5.11,8.26,11.63v158.54c0,1.41-.79,2.11-2.36,2.11h-2.36q-6.49,0-11.8-7.39l5.9,1h1.18c1.57,0,2.36-.7,2.36-2.11V1937.73A11.81,11.81,0,0,0,6833.76,1931.39Zm0,191.31v1.06h3.54l2.36-3.18Q6835.93,2122.69,6833.76,2122.7Zm9.44,1.06h2.36q2.35-.71,49.55-44.4v-2.11Q6893.94,2077.25,6843.2,2123.76Zm1.18-234.65v1.06h2.36q1.77,0,3.54-3.17h-3.54C6845.16,1887.24,6844.38,1887.94,6844.38,1889.11Zm7.08,3.18v1h1.18c1,0,3.4-2.11,7.08-6.34h-2.36Q6855.79,1887,6851.46,1892.29Zm1.18,231.47h3.54q1.56,0,38.93-34.88v-3.17Q6893.54,2085.71,6852.64,2123.76Zm3.54-227.25,2.36,1.06q1.56,0,11.8-10.57h-3.54Q6865.23,1887,6856.18,1896.51Zm5.9,4.23v1.06h1.18q1.77,0,16.52-14.8h-2.36Q6875.65,1887,6862.08,1900.74Zm1.18,223h2.36q1.56,0,29.49-26.43v-2.11Q6893.34,2095.4,6863.26,2123.76ZM6866.8,1905a2.23,2.23,0,0,0,2.36,2.11l20.05-19V1887h-2.36Q6885.28,1887,6866.8,1905Zm4.72,5.28v2.12q1.36,0,17.69-15.86v-2.11Q6887.85,1894.4,6871.52,1910.25Zm1.18,213.51h3.54q1.56,0,18.87-16.92v-3.17Q6893.54,2103.67,6872.7,2123.76Zm2.36-208.22v2.11h1.18q1.56,0,13-11.62v-3.17Q6887.64,1902.86,6875.06,1915.54Zm3.54,6.34v1.06h1.18q1.56,0,9.43-8.46v-2.11Q6887.64,1912.37,6878.6,1921.88Zm3.54,5.28v2.12h1.18c1,0,3-1.76,5.89-5.29v-3.17Q6887.64,1920.82,6882.14,1927.16Zm1.18,196.6h2.36q1.56,0,9.43-8.46v-2.11Q6893.54,2113.19,6883.32,2123.76Zm1.18-189.2,2.35,1.06,2.36-3.17v-2.11C6888,1930.34,6886.46,1931.74,6884.5,1934.56Zm0,145.86h1.18l9.43-9.51v-3.17C6890.4,2070.32,6886.85,2074.55,6884.5,2080.42Zm2.35-140.57A7.51,7.51,0,0,1,6888,1943h1.17v-4.23Zm7.08,119.43c0,1.18-.78,2.94-2.36,5.29h1.18c1.58-1.76,2.36-3.17,2.36-4.23v-1.06Zm9.44-173.34q8.27,4.75,8.26,10.57v92c0,1.41-.78,2.11-2.36,2.11h-1.18q-6.48,0-11.8-7.4l5.9,1.06c1.58,0,2.36-.71,2.36-2.11v-90.9Z" transform="translate(-5205.57 -286.31)"/><path class="cls-2" d="M6917.53,1880.66h180.53q51.52,0,77.88,20.08h1.18l-1.18,2.12q21.24,18.14,21.24,45.44,0,42.46-57.82,57.08-14.74,3.16-18.88,3.17,0,3.17,48.38,82.44,9.82,15.86,20.06,25.37v-1.06q-15.15-18.32-63.72-101.47v-1q76.7-10.92,76.7-62.36,0-23.09-21.24-45.45h1.18q27.14,23.25,27.13,51.79v2.11q0,41.22-54.27,56-21.24,4-21.24,6.34,49,83.85,62.54,98.3,5.7,3.16,17.69,3.17h7.08c1.18,0,2.76,1.41,4.72,4.23v6.34h-80.23q-7.48,0-16.52-19-45.42-70.27-57.82-91.95h-41.29c-1.58.24-2.36.94-2.36,2.11V2091q0,31.71,18.87,31.71h11.8q4.73,1.76,4.72,7.4v1.05c0,1.41-.78,2.12-2.36,2.12H6922.25c-2-2.12-3.54-3.17-4.72-3.17v-7.4h3.54q32.06,0,40.12-22.2,3.54-14.45,3.54-34.88V1938.79q0-34.87-10.62-34.88l-23.6-4.23c-3.54-1.4-5.5-2.81-5.9-4.22v-1.06h1.18q21,0,29.5,6.34v-1.06q-9-9.51-35.4-9.51v-1.06l-2.36-3.17ZM7065,2128h1.18q8.27,5.11,8.26,11.63l-1.18,4.23H6936.41q-7.27,0-13-7.4l8.26,1.06h132.15q1.77,0,3.54-3.18C7067.38,2133.15,7066.6,2131,7065,2128Zm-110.91-4.22h2.36q2.35-.71,48.38-43.34v-2.11Q7002.48,2079,6954.11,2123.76Zm1.18-234.65v1.06h1.18q1.77,0,3.54-3.17h-2.36C6956.08,1887.24,6955.29,1887.94,6955.29,1889.11Zm4.72,5.29v1.06h1.18q1.57,0,9.44-8.46h-2.36Q6966.5,1887,6960,1894.4Zm3.54,5.28,2.36,1.06,14.16-13.74h-2.36Q6976.14,1887,6963.55,1899.68Zm40.12,187.08-40.12,37h3.54q1.58,0,38.94-34.88C7006,2087.47,7005.24,2086.76,7003.67,2086.76Zm-37.76,20.08q1.58,0,38.94-34.87v-3.18Q6965.91,2101,6965.91,2106.84Zm1.18-201.87v3.17q1.58,0,23.6-21.14h-3.54Q6985.58,1887,6967.09,1905Zm2.36,7.4v2.11q2.55-.87,30.68-27.48h-2.36Q6996.2,1887,6969.45,1912.37Zm0,181.79h1.18l34.22-31.71v-2.11Q6969.45,2089.75,6969.45,2094.16Zm1.18-174.39v3.17q1.36,0,34.22-30.65v-3.18Q7003.47,1889.11,6970.63,1919.77Zm0,9.51,2.36,1.06,31.86-29.6v-2.11Q7003.47,1898.63,6970.63,1929.28Zm0,155.37q1.36,0,34.22-30.65v-3.17Q6970.64,2078.66,6970.63,2084.65Zm1.18-148v3.17q1.38,0,33-29.6v-3.17Q7003.47,1907.08,6971.81,1936.68Zm0,9.51v2.11q1.38,0,33-29.59v-2.11Q7003.47,1916.6,6971.81,1946.19Zm0,8.46v3.17q1.38,0,33-29.6v-3.17Q7003.47,1925.05,6971.81,1954.65Zm0,9.51v2.11q1.38,0,33-29.59v-2.12Q7003.47,1934.56,6971.81,1964.16Zm0,8.45v3.17q1.38,0,33-29.59V1943Q7003.47,1943,6971.81,1972.61Zm0,9.52v2.11q1.38,0,33-29.59v-2.12Q7003.47,1952.53,6971.81,1982.13Zm0,8.45v3.17q1.38,0,33-29.59V1961Q7003.47,1961,6971.81,1990.58Zm0,9.51v2.12q1.38,0,33-29.6v-2.11Q7003.47,1970.5,6971.81,2000.09Zm0,8.46v3.17q1.38,0,33-29.59V1979Q7003.47,1979,6971.81,2008.55Zm0,9.51v2.12q1.38,0,33-29.6v-2.11Q7003.47,1988.47,6971.81,2018.06Zm0,8.46v3.17q1.38,0,33-29.6v-3.17Q7003.47,1996.92,6971.81,2026.52Zm0,9.51v2.11q34.21-28.35,34.22-32.76Q7004.65,2005.38,6971.81,2036Zm0,8.46v3.17q1.38,0,33-29.6v-3.17Q7003.47,2014.89,6971.81,2044.49Zm0,9.51v2.11q1.38,0,33-29.59v-2.12Q7003.47,2024.4,6971.81,2054Zm0,8.45v3.17q1.38,0,33-29.59v-3.17Q7003.47,2032.86,6971.81,2062.45Zm0,9.52v2.11q1.38,0,33-29.59v-2.12Q7003.47,2042.37,6971.81,2072Zm2.36,51.79h2.36q2.55-.89,30.68-27.48v-1.06H7006Q7004.26,2095.4,6974.17,2123.76Zm33-22.2-23.6,22.2h3.54q1.58,0,22.42-20.09C7009.57,2102.26,7008.78,2101.56,7007.21,2101.56Zm-13,22.2h2.36q1.77,0,15.34-13.74v-2.12Q7010.55,2107.9,6994.23,2123.76Zm9.44,0h3.54q1.56,0,9.44-8.46l-2.36-1.06Q7012.72,2114.24,7003.67,2123.76Zm15.34-5.29q-4.73,4.76-4.72,5.29h2.36q1.77,0,4.72-4.23Zm-3.54-226.18v108.86h4.72V1896.51a2.23,2.23,0,0,1,2.36-2.11h53.09q38.94,0,53.1,12.68v-1q-14-15.85-63.72-15.86h-47.19C7016.25,1890.41,7015.47,1891.11,7015.47,1892.29Zm0,119.43v70.81q0,25.91,14.16,34.88v-1q-9.45-8.64-9.44-29.6V2016l5.9-1.06H7065v-1.06c0-1.41-.78-2.11-2.36-2.11Zm11.8-107.81v97.24h42.47q46.41,0,60.18-20.08,10.62-14.1,10.62-35.94,0-31.87-17.7-39.1a105.63,105.63,0,0,0-28.32-4.23h-64.89C7028.05,1902,7027.27,1902.74,7027.27,1903.91Zm43.65,105.7a2.23,2.23,0,0,0,2.36,2.11l3.54-4.23h-3.54C7071.71,2007.73,7070.92,2008.43,7070.92,2009.61Zm3.54,6.34v1h1.18q1.57,0,11.8-10.56Q7082.73,2006.44,7074.46,2016Zm3.54,5.28a2.24,2.24,0,0,0,2.36,2.12l18.88-18h-2.36Q7093.73,2005.38,7078,2021.23Zm3.54,6.34,2.36,1.06q27.15-24.84,27.14-26.42Q7107.89,2002.21,7081.54,2027.57Zm3.54,5.29a2.23,2.23,0,0,0,2.36,2.11l23.6-22.19v-3.17Q7109.47,2009.61,7085.08,2032.86Zm3.54,6.34,2.36,1.06,23.6-22.2V2017h-1.18Q7111.83,2017,7088.62,2039.2Zm3.54,4.23a7.46,7.46,0,0,1,1.18,3.17q1.58,0,24.78-22.2v-2.11h-1.18Zm3.54,7.4,2.36,1.05,23.6-22.19v-1.06h-1.18Q7118.91,2028.63,7095.7,2050.83Zm3.54,5.28,2.36,1.06,23.6-22.2v-1H7124Q7122.45,2033.92,7099.24,2056.11Zm4.72,5.29v2.11q1.57,0,24.78-22.2v-1h-1.18Q7126,2040.26,7104,2061.4Zm2.36,6.34,2.36,1.05,23.6-22.19v-1.06h-1.18Q7129.53,2045.54,7106.32,2067.74ZM7111,2073v2.12q1.57,0,24.78-22.2v-2.11Q7134.25,2050.83,7111,2073Zm3.54,5.29v2.11q1.58,0,24.78-22.19v-1.06h-1.18Q7136.61,2057.17,7114.58,2078.31Zm2.36,6.34,2.36,1.06q1.57,0,23.6-21.14v-2.12h-1.18Q7140.15,2062.45,7116.94,2084.65Zm4.72-192.36a9.83,9.83,0,0,1,3.54,1l3.54-4.23h-3.54Q7123.43,1889.11,7121.66,1892.29Zm0,197.64v2.12q1.58,0,24.78-22.2v-1.06h-1.18Q7143.69,2068.79,7121.66,2089.93ZM7124,1998h2.36q3.15,0,60.18-52.85V1942Q7184.58,1942.49,7124,1998Zm1.18,97.24v2.11h1.18q1.57,0,23.6-21.14v-2.11h-1.18Q7147.23,2074.08,7125.2,2095.22Zm2.36-198.71,2.36,1.06q0-.52,7.08-7.4h-2.36Q7133.07,1890.17,7127.56,1896.51Zm1.18,205v1.06h1.18q1.58,0,23.6-21.14v-1.06h-1.18Q7150.77,2080.42,7128.74,2101.56Zm3.54-200.82,2.36,1.06q1.57,0,10.62-9.51h-3.54Q7140.15,1892.29,7132.28,1900.74Zm0,206.1V2109h1.18q1.57,0,23.6-21.14v-2.11h-1.18Q7154.31,2085.71,7132.28,2106.84Zm3.54,6.35v1H7137q1.58,0,23.6-21.14v-1h-1.18Q7157.84,2092.05,7135.82,2113.19ZM7137,1906v1h1.18q1.57,0,14.16-12.68H7150Q7148.41,1894.4,7137,1906Zm48.38,45.44-47.2,43.34h1.18q3.15,0,46-40.16a7.49,7.49,0,0,1,1.18-3.18Zm-46,167a2.23,2.23,0,0,0,2.36,2.11l22.42-21.13v-2.12H7163Q7161.39,2097.33,7139.36,2118.47Zm16.52-222-15.34,14.8v2.11h1.18q1.77,0,16.52-14.79C7158.24,1897.22,7157.45,1896.51,7155.88,1896.51Zm-15.34,80.33h1.18l43.66-40.16v-2.12Q7140.53,1972.27,7140.54,1976.84Zm21.24-76.1-18.88,18,2.36,1.06,18.88-18Zm-17.7,223h2.36q1.57,0,21.24-19v-2.11Q7166.11,2102.62,7144.08,2123.76ZM7229,2128q5.31,0,8.26,10.57v3.17c0,1.41-.78,2.12-2.36,2.12h-79.05q-11.8-2.64-11.8-7.4l5.9,1.06h77.87c1.58,0,2.36-.71,2.36-2.12v-2.11Zm-83.77-202.93v3.17q1.58,0,24.78-22.19l-2.36-1.06Q7166.11,1905,7145.26,1925.05Zm36.58,2.11q-36.59,32.6-36.58,35.94v1.06q1.58,0,38.94-34.88C7184.2,1927.87,7183.41,1927.16,7181.84,1927.16Zm-35.4,6.35v2.11q1.57,0,27.14-24.31v-2.11Q7172,1909.2,7146.44,1933.51Zm33-12.69-33,30.65v2.12q1.37,0,35.4-31.71Zm-3.54-6.34-28.32,26.43v3.17q2.55-.88,30.68-27.48C7178.3,1915.19,7177.51,1914.48,7175.94,1914.48Zm5.9,48.62-29.5,27.48q7.47,0,28.32-23.25l2.36-4.23ZM7170,2107.9l-16.52,15.86h3.54q1.77,0,15.34-13.74C7172.4,2108.61,7171.61,2107.9,7170,2107.9Zm-5.9,15.86h2.36q1.56,0,9.44-8.46v-2.11Q7174.37,2113.19,7164.14,2123.76Zm9.44,0h3.54q1.77,0,4.72-4.23l-2.36-1.06Q7177.91,2118.47,7173.58,2123.76Z" transform="translate(-5205.57 -286.31)"/><path class="cls-2" d="M7481.93,1871.15q35.59,0,84.95,28.53a52,52,0,0,0,7.08,2.12q12,0,17.7-21.14h5.9c2.36,3.29,3.54,5.75,3.54,7.4v80.33c0,1.4-1.18,2.11-3.54,2.11q-6.29,0-16.52-32.77l-11.79-16.91q-32.85-29.6-74.34-29.59-39.14,0-50.74,34.88a48.69,48.69,0,0,0-1.18,8.45q0,15.33,16.52,21.14,16.13,6.35,87.32,25.37,29.3,10.74,48.37,23.25,35.4,26.25,35.4,64.47,0,42.81-46,67.65a102.83,102.83,0,0,1-37.75,7.4h-9.44q-27.93,0-76.7-23.26-7.66-2.1-10.62-2.11h-4.72q-18.09,0-27.14,24.31a9.75,9.75,0,0,1-4.71,1.06q-8.07-3-10.62-7.4v-1.06a15.25,15.25,0,0,0,7.08,2.12q10-26.43,30.67-26.43,9,0,47.2,16.91a113.07,113.07,0,0,0,44.84,9.52h3.54q66.07,0,84.95-59.19,2.37-13.92,2.36-16.91,0-31.71-26-52.85v1.06q21.24,18.5,21.24,48.62,0,42.45-46,67.64-20.27,7.4-38.94,7.4H7528q-28.52,0-76.7-23.25-7.66-2.11-10.62-2.12h-9.44q-14.16,0-22.41,20.08-1.59,5.3-3.54,5.29-8.27-.89-8.26-6.34l1.18-5.29-1.18-5.28a7.46,7.46,0,0,1,1.18-3.17l-1.18-5.29,1.18-4.23-1.18-5.28a7.46,7.46,0,0,1,1.18-3.17l-1.18-5.29,1.18-4.22-1.18-5.29a7.5,7.5,0,0,1,1.18-3.17L7397,2072l1.18-4.23-1.18-5.29a7.5,7.5,0,0,1,1.18-3.17L7397,2054l1.18-4.23-1.18-5.28a7.49,7.49,0,0,1,1.18-3.18L7397,2036l1.18-4.23-1.18-5.28a7.46,7.46,0,0,1,1.18-3.17L7397,2017a7.56,7.56,0,0,0,1.18-3.17h3.54q6.48,0,8.26,22.2,14.15,38.94,41.29,58.13c0-.7.4-1.06,1.18-1.06q34.41,30.66,79.06,30.66,51.92-6.87,51.91-45.45,0-17.45-20-24.31-23.61-8.46-106.2-34.88-22.41-9.69-37.76-24.31v-1.06q14.55,13,55.46,27.48,83.38,23.25,97.94,34.88H7574Q7558,2040.44,7470.13,2017q-43.46-16.55-53.1-26.42c0,.71-.39,1.06-1.18,1.06q-21.23-25.37-21.23-45.45v-8.46q0-31.7,36.57-55Q7453.42,1871.15,7481.93,1871.15Zm-80.23,65.53v3.17q1.56,0,18.87-16.91v-3.17Q7419,1919.77,7401.7,1936.68Zm0,9.51v2.11q1.56,0,20.05-18v-2.12Q7420.17,1928.22,7401.7,1946.19Zm1.18-16.91q1.56,0,18.87-16.91v-2.12Q7402.88,1924.7,7402.88,1929.28Zm0,24.31v3.17l22.41-19a7.6,7.6,0,0,1-1.18-3.17Q7422.54,1934.56,7402.88,1953.59Zm1.18,98.29V2054c1.57,0,2.36-.71,2.36-2.12v-2.11C7404.84,2050,7404.06,2050.71,7404.06,2051.88Zm3.53,4.23-3.53,4.23v3.17q1.56,0,5.9-5.28C7410,2056.82,7409.17,2056.11,7407.59,2056.11Zm3.54,6.34q0,.54-7.07,7.4V2072q1.56,0,9.44-8.46Zm3.54,5.29-10.61,10.57v3.17q1.56,0,13-11.63C7417,2068.44,7416.25,2067.74,7414.67,2067.74Zm-10.61,20.08v2.11q1.77,0,16.51-14.79v-1.06h-1.18Q7417.62,2074.08,7404.06,2087.82Zm18.87-9.51-18.87,18v3.17q1.56,0,21.23-19C7425.29,2079,7424.51,2078.31,7422.93,2078.31Zm4.72,5.28-23.59,22.2v2.11q1.56,0,25.95-23.25ZM7405.24,1961v2.11q1.56,0,22.41-20.08v-2.11Q7426.08,1940.91,7405.24,1961Zm25.95-69.76q-23.4,21-23.6,25.37h1.19q19.26-17.26,23.59-25.37Zm-1.18,55-22.42,21.14a2.24,2.24,0,0,0,2.37,2.11l22.41-21.14C7432.37,1946.89,7431.59,1946.19,7430,1946.19Zm-18.88,27.48,2.37,1.06,24.77-23.26h-2.36Q7434.33,1951.47,7411.13,1973.67Zm0,46.51h1.18q5.91,0,11.8,31.7a113.63,113.63,0,0,0,26,39.11v1.06q-28.12-25.37-34.22-48.62Zm3.54-41.23L7417,1980q1.57,0,27.14-24.31l-2.36-1Q7440.24,1954.65,7414.67,1979Zm17.7,108.87-13,12.68q5.71,0,15.34-10.57C7434.73,2088.52,7434,2087.82,7432.37,2087.82Zm15.34-130-27.14,25.36v1.06h1.18q1.58,0,28.32-25.37Zm-22.42,29.59,2.36,1.06q1.58,0,29.5-26.43v-1h-2.36Q7453.22,1961,7425.29,1987.41Zm5.9-62.36q0,9,9.44,21.14H7443a28.88,28.88,0,0,1-7.08-19q0-28.87,37.76-41.22,10-1.05,15.34-1,37.76,0,70.8,25.36v-1q-34.23-28.54-76.7-28.54-38.55,0-50.74,33.82A50.49,50.49,0,0,0,7431.19,1925.05Zm0,66.59,2.36,1.06,30.68-28.54h-2.36Q7459.32,1965,7431.19,1991.64Zm1.18,106.75h2.36c1.18,0,2.76-1.41,4.72-4.23v-1.06h-1.18C7437.22,2093.1,7435.26,2094.87,7432.37,2098.39Zm4.72-103.58,2.36,1.06q1.38,0,31.86-28.54v-1.06H7469Q7467.18,1966.45,7437.09,1994.81Zm4.72,102.52v2.12h3.54c0-1.41-.78-2.12-2.36-2.12Zm2.36-99.35,2.36,1.06,31.86-29.6v-1h-1.18Q7475.83,1968.39,7444.17,1998Zm7.08,2.11v1.06h2.36q1.38,0,33-29.59v-1.06h-2.36Q7482.91,1970.5,7451.25,2000.09Zm7.08,3.17,2.36,1.06,33-30.65v-1.06h-1.18Q7491.17,1972.61,7458.33,2003.26Zm7.08,2.12v1.06h2.36q1.38,0,34.22-30.66l-2.36-1Q7498.25,1974.73,7465.41,2005.38Zm7.08,3.17h2.36q1.38,0,34.22-30.65v-1.06h-1.18Q7506.51,1976.84,7472.49,2008.55Zm7.08,2.11a9.9,9.9,0,0,1,3.54,1.06l34.22-31.71L7515,1979Q7513.59,1979,7479.57,2010.66Zm42.48-29.59-34.22,31.71v1H7489q1.38,0,35.4-31.7Zm7.08,2.11-34.22,31.71V2016h2.36q1.38,0,35.4-31.71A9.69,9.69,0,0,1,7529.13,1983.18ZM7502,2018.06h2.36q1.36,0,35.4-31.71h-2.36Q7536,1986.35,7502,2018.06Zm7.08,2.12h3.54q1.37,0,35.4-31.71h-3.54Q7543.09,1988.47,7509.07,2020.18Zm8.26,2.11h2.36q1.37,0,34.22-30.65v-1.06h-1.18Q7551.35,1990.58,7517.33,2022.29Zm41.3-29.59-34.22,31.7a10,10,0,0,1,3.54,1.06l34.22-31.71A9.83,9.83,0,0,1,7558.63,1992.7Zm7.08,3.17-33,30.65v1h1.18q1.36,0,34.22-30.65Zm-27.14,33.82h3.54q1.37,0,33-29.6l-2.35-1Q7571.41,1999,7538.57,2029.69Zm8.26,2.11v1.06H7548q1.36,0,31.85-28.54v-1.06h-1.18Q7576.91,2003.44,7546.83,2031.8Zm36.57-25.36L7552.73,2035h2.36q2.55-.87,30.67-27.48Zm-23.59,31.7h2.36q1.56,0,28.31-25.36v-1.06h-1.18Q7587.73,2011.72,7559.81,2038.14Zm33-22.19-27.13,25.36h2.36q1.56,0,27.13-24.31Zm-21.24-105.7v2.12h1.19c1,0,3-1.76,5.89-5.29h-1.18Q7571.61,1908.49,7571.6,1910.25Zm1.19,134.24v1H7574q1.57,0,24.78-22.19v-2.12Q7597.16,2021.23,7572.79,2044.49Zm2.35-127.89,2.36,1.05,13-12.68v-2.11Q7588.71,1902.86,7575.14,1916.6Zm2.36,132.11v1.06h1.18q1.57,0,23.6-21.14v-1.06h-1.18Q7599.53,2027.57,7577.5,2048.71Zm1.18-127.89a7.5,7.5,0,0,1,1.18,3.17q1.57,0,10.62-9.51v-3.17Zm2.36,132.12a7.5,7.5,0,0,1,1.18,3.17q1.57,0,22.42-20.08v-3.17Zm1.18-124.72,2.36,1.06,5.9-6.34v-2.12Q7588.71,1920.82,7582.22,1928.22Zm4.72,173.34-3.54,4.23h1.18l3.54-4.23Zm-1.18-168a2.24,2.24,0,0,0,2.36,2.11l2.36-3.17v-3.17Q7588.71,1929.28,7585.76,1933.51Zm0,125.77v2.12q1.58,0,21.24-19v-2.11Q7605.42,2040.26,7585.76,2059.28Zm1.18,37h1.18q14.16-12.51,14.16-15.86Q7587,2092,7586.94,2096.28Zm1.18-30.66v2.12h1.18q1.57,0,18.88-16.91v-3.17Q7606.61,2047.66,7588.12,2065.62Zm1.18,8.46v1.06h1.18q1.38,0,17.7-15.86v-2.11Q7606.61,2057.17,7589.3,2074.08Zm0,11.63h1.18q16.53-14.28,16.52-19Q7589.3,2079.89,7589.3,2085.71Zm14.16-199.77h1.18q8.26,5.11,8.26,11.63V1980l-4.72,1.06q-8.25-3-11.8-8.46l5.9,1.06h1.18c1.58,0,2.36-.7,2.36-2.11v-79.27A11.73,11.73,0,0,0,7603.46,1885.94Z" transform="translate(-5205.57 -286.31)"/><path class="cls-2" d="M7630.6,1880.66h141.59c0,1.41.79,2.11,2.36,2.11v7.4h-1.18q-43.65,0-43.66,43.34V1999h4.72v-62.36q0-42.29,43.66-42.28h1.18v-6.34l-1.18-2.12h1.18q7.08,3.7,7.08,9.52v5.28q-32.64,0-40.12,20.08-4.71,8.64-4.72,25.37V1999h103.84v-65.53q0-30.66-14.16-30.65-24.78-2.29-24.78-8.46v-1.06q22.42,2.48,30.68,7.4v-1.06q-10.82-9.51-34.22-9.51l-2.36-3.17v-6.34h138.05c1.18,0,2.76,1.41,4.72,4.23v5.28h-1.18q-30.48,0-40.12,16.91-5.89,13.05-5.9,30.65v140.58q0,30.48,14.16,38.05v-1.06q-9.43-7.92-9.44-32.77V1940.91q0-33.83,21.24-43.34,9-2.11,26-4.23v-2.11l-1.18-5.29q8.27,4.75,8.26,10.57v2.12q0,3.16-22.42,4.23-24.78,8.63-24.78,44.39v131.06q0,43.33,14.16,43.33a70.94,70.94,0,0,0,11.8,1.06h4.72c1.18,0,2.76,1.41,4.72,4.23v4.22c0,1.41-.78,2.12-2.36,2.12H7805.23q-1.77,0-4.72-4.23v-6.34h1.18q43.67,0,43.66-41.22v-60.25H7743.87c-1.57.24-2.36.94-2.36,2.12V2091q0,31.71,18.88,31.71h9.44q3,2.12,4.72,2.11v8.46H7638.86q-2.76,0-8.26-3.17v-7.4H7640q28.91,0,36.58-25.37,2.35-7.92,4.72-52.84v-18q0-25.37-1.18-74H7679c0-.7.39-1.06,1.18-1.06q-2-47.55-10.62-47.56l-28.32-4.23q0-.53-4.72-5.28v-1.06l2.36,1.06H7640q22.43,0,30.68,7.4v-1.06q-8.66-10.56-37.76-10.57v-1.06c0-.7-.79-1-2.36-1ZM7778.09,2128h1.18q2.16,0,7.08,7.4v6.34c0,1.41-.79,2.12-2.36,2.12H7649.48q-7.27,0-13-7.4v-1.06a15.25,15.25,0,0,0,7.08,2.12h133.33c1.58,0,2.36-.71,2.36-2.12v-5.28Zm-113.27-4.22h2.36q1.57,0,51.92-46.51v-3.17q-27.35,23.09-53.1,48.62C7665.21,2122.7,7664.82,2123.05,7664.82,2123.76Zm2.36-236.76v2.11h1.18c1.57,0,2.36-.7,2.36-2.11Zm4.72,5.29,2.36,1,5.9-6.34h-2.36Q7676.23,1887,7671.9,1892.29Zm2.36,231.47h2.36q1.57,0,42.48-38.05v-2.12Q7717.51,2083.59,7674.26,2123.76Zm2.36-226.19v1.06h1.18q1.57,0,13-11.63h-2.36Q7686.84,1887,7676.62,1897.57Zm3.54,5.29V1905q1.58,0,20.06-18h-2.36Q7696.48,1887,7680.16,1902.86Zm2.36,6.34v2.11h1.18q1.57,0,27.14-24.31h-3.54Q7705.73,1887,7682.52,1909.2Zm0,191.3h1.18l35.4-32.76v-2.12Q7682.52,2096.28,7682.52,2100.5Zm1.18-182.85v1.06h1.18q1.36,0,35.4-31.71h-2.36Q7716.54,1887,7683.7,1917.65Zm0,206.11h3.54q1.36,0,33-29.6V2091Q7718.51,2091.17,7683.7,2123.76Zm1.18-198.71v3.17q1.57,0,46-41.22h-3.53Q7725.77,1887,7684.88,1925.05Zm0,161.71v3.17q1.36,0,34.22-30.65v-3.17Q7717.72,2056.11,7684.88,2086.76Zm1.18-153.25v2.11q27.33-23.07,53.09-48.62H7738Q7736.4,1887,7686.06,1933.51Zm35.4-24.31-35.4,32.76v3.17q35.4-29.42,35.4-33.82l1.18-2.11Zm-2.36,11.62-33,30.65,2.36,1.06q31.86-28.37,31.86-31.71Zm-33,156.43v2.11q1.36,0,33-29.59v-2.11Q7717.72,2047.66,7686.06,2077.25Zm1.18-118.38V1962q1.36,0,31.86-28.53v-3.17Q7717.33,1930.51,7687.24,1958.87Zm0,9.52v2.11q1.36,0,31.86-28.54v-2.11Q7717.33,1940,7687.24,1968.39Zm0,8.45V1980q1.36,0,31.86-28.54v-3.17Q7717.33,1948.48,7687.24,1976.84Zm0,89.84v3.17q1.36,0,31.86-28.54v-3.17Q7717.33,2038.32,7687.24,2066.68Zm1.18-81.38v2.11q2.55-.89,30.68-27.48v-2.11Q7716.54,1958.71,7688.42,1985.3Zm0,8.45v3.17q2.55-.87,30.68-27.48v-3.17Q7716.54,1967.15,7688.42,1993.75Zm0,9.51v2.12q2.55-.89,30.68-27.48v-2.12Q7716.54,1976.67,7688.42,2003.26Zm0,8.46v3.17q2.55-.89,30.68-27.48v-3.17Q7716.54,1985.13,7688.42,2011.72Zm0,9.51v2.12q2.55-.88,30.68-27.48v-2.12Q7716.54,1994.63,7688.42,2021.23Zm0,8.46v3.17q1.36,0,31.86-28.54v-3.17Q7718.51,2001.33,7688.42,2029.69Zm0,9.51v2.11q2.55-.87,30.68-27.48v-2.11Q7716.54,2012.61,7688.42,2039.2Zm0,8.46v3.17q2.55-.89,30.68-27.48v-3.17Q7716.54,2021.05,7688.42,2047.66Zm0,9.51v2.11q2.55-.87,30.68-27.48v-2.11Q7716.54,2030.57,7688.42,2057.17Zm5.9,66.59h2.36q1.56,0,26-23.26v-1.05h-1.18Q7719.87,2099.45,7694.32,2123.76Zm9.44,0h3.54q1.36,0,17.7-15.86v-2.11h-1.18Q7722.23,2105.79,7703.76,2123.76Zm10.62,0h2.36q1.56,0,11.8-10.57v-1.06h-1.18Q7725.77,2112.13,7714.38,2123.76Zm16.51-7.4q-7.06,6.87-7.07,7.4h3.54c1,0,3-1.77,5.89-5.29C7733.25,2117.06,7732.47,2116.36,7730.89,2116.36Zm-1.18-104.64v70.81q0,25.91,14.16,34.88v-1q-9.44-8.64-9.44-29.6V2016a2.25,2.25,0,0,1,2.36-2.12h108.56v-4.22H7732.08C7730.5,2009.84,7729.71,2010.55,7729.71,2011.72Zm4.72,112h2.36c1.58,0,2.36-.71,2.36-2.12h-2.36C7735.22,2121.88,7734.43,2122.58,7734.43,2123.76Zm212.39,4.22q8.27,4.76,8.26,10.57v3.17c0,1.41-.79,2.12-2.36,2.12H7818.21q-6.49,0-11.8-7.4l5.9,1.06h133.33c1.57,0,2.36-.71,2.36-2.12v-2.11Zm-113.27-4.22h3.54q2.35-.71,48.38-43.34v-3.17Q7883.9,2077.25,7833.55,2123.76Zm2.36-234.65v1.06h1.18q1.77,0,3.54-3.17h-2.36C7836.7,1887.24,7835.91,1887.94,7835.91,1889.11Zm4.72,4.23a2.24,2.24,0,0,0,2.36,2.12l8.26-8.46h-3.54Q7846.14,1887,7840.63,1893.34Zm3.54,6.34,2.36,1.06,14.16-13.74h-2.36Q7856.75,1887,7844.17,1899.68Zm0,224.08h2.36q2.36-.89,40.12-35.94v-2.11Q7885.06,2085.71,7844.17,2123.76Zm3.54-218.79v2.11h1.18q1.57,0,22.42-20.08h-3.54Q7866.2,1887,7847.71,1905Zm0,199.76h1.18l36.58-33.82v-2.12Q7847.7,2100.15,7847.71,2104.73Zm2.36-192.36v2.11q2.55-.87,30.68-27.48h-2.36Q7876.8,1887,7850.07,1912.37Zm1.18,7.4v2.11h1.18q1.57,0,38.94-34.88h-3.54Q7886.06,1887.18,7851.25,1919.77Zm0,81.38v2.11q1.36,0,34.22-30.65v-2.11Q7884.09,1970.5,7851.25,2001.15Zm0,88.78v3.17q1.36,0,34.22-30.65v-3.17Q7884.09,2059.28,7851.25,2089.93Zm1.18-161.71v2.12q2.35-.71,48.37-43.34h-2.36Q7896.87,1887,7852.43,1928.22Zm40.11-28.54-40.11,37v3.17q41.3-34.53,41.29-40.17Zm-40.11,46.51v2.11q35.4-29.41,35.4-33.82Q7886.45,1914.48,7852.43,1946.19Zm0,8.46v3.17q1.36,0,34.22-30.66V1924Q7885.27,1924,7852.43,1954.65Zm0,9.51v2.11q1.36,0,33-29.59v-2.12Q7884.09,1934.56,7852.43,1964.16Zm0,8.45v3.17q1.36,0,33-29.59V1943Q7884.09,1943,7852.43,1972.61Zm0,9.52v2.11q1.36,0,33-29.59v-2.12Q7884.09,1952.53,7852.43,1982.13Zm0,8.45v3.17q1.36,0,33-29.59V1961Q7884.09,1961,7852.43,1990.58Zm0,18v3.17q1.36,0,33-29.59V1979Q7884.09,1979,7852.43,2008.55Zm0,9.51v2.12q1.36,0,33-29.6v-2.11Q7884.09,1988.47,7852.43,2018.06Zm0,8.46v2.11q1.36,0,33-29.59v-2.12Q7884.09,1996.92,7852.43,2026.52Zm0,9.51v2.11q1.36,0,33-29.59v-2.11Q7884.09,2006.44,7852.43,2036Zm0,8.46v2.11q1.36,0,33-29.6v-2.11Q7884.09,2014.89,7852.43,2044.49Zm0,9.51v2.11q1.36,0,33-29.59v-2.12Q7884.09,2024.4,7852.43,2054Zm0,8.45v2.12q1.36,0,33-29.6v-2.11Q7884.09,2032.86,7852.43,2062.45Zm0,8.46v3.17q1.36,0,33-29.59v-3.18Q7884.09,2041.31,7852.43,2070.91Zm0,9.51v2.11q1.36,0,33-29.59v-2.11Q7884.09,2050.83,7852.43,2080.42Zm1.18,43.34h3.54q2.55-.89,30.68-27.48v-3.18Q7886.45,2093.1,7853.61,2123.76Zm10.62,0h2.36q1.56,0,23.6-21.14v-1.06H7889Q7887.42,2101.56,7864.23,2123.76Zm9.44,0h3.54q1.77,0,15.33-13.74v-3.18Q7891,2106.84,7873.67,2123.76Zm21.24-10.57-10.62,10.57h2.36q1.56,0,10.61-9.52Zm-1.19,10.57h3.54c1.18,0,2.76-1.41,4.72-4.23l-2.35-1.06C7898.57,2118.47,7896.61,2120.23,7893.72,2123.76Z" transform="translate(-5205.57 -286.31)"/><path class="cls-2" d="M8090.77,1870.09q61.75,0,113.27,53.9,35.4,43.34,35.4,89.84,0,66.06-61.35,108.87-34.62,21.14-73.16,21.14-82.79,0-132.15-80.33-17.7-30.12-17.7-63.42,0-72.57,72-115.2Q8055,1870.09,8090.77,1870.09Zm-79.05,74q-49.56,44.75-49.56,46.5v1.06q50.74-43.34,50.74-47.56Zm-2.36,10.57-47.2,43.33v3.17q47.2-40.51,47.2-43.33a7.42,7.42,0,0,1,1.18-3.17Zm-47.2,52.84v2.12q1.58,0,46-41.22v-2.12Q8006.61,1966.27,7962.16,2007.49Zm1.18-25.36q53.1-45.45,53.1-49.68v-1.06q-53.1,45.45-53.1,49.68Zm0,32.76v3.17q1.58,0,43.66-39.11v-3.17Q8005.42,1975.78,7963.34,2014.89Zm1.18,8.46v2.11q1.77-.35,41.3-37v-2.12Q8004.05,1986.71,7964.52,2023.35Zm56.64-105.7q-55.45,50.2-55.46,51.79v1.06h1.18q55.46-50.2,55.46-51.79v-1.06Zm-55.46,112a7.46,7.46,0,0,1,1.18,3.17q1.57,0,38.94-34.88v-3.17Zm2.36,8.45,2.36,1.06,35.4-32.76v-2.12Q8004.05,2004.68,7968.06,2038.14Zm67.26-142.68q-63.72,57.24-63.72,59.19a7.42,7.42,0,0,0-1.18,3.17q66.08-56.73,66.08-62.36Zm-64.9,148a7.46,7.46,0,0,1,1.18,3.17L8007,2016a7.5,7.5,0,0,1-1.18-3.17Zm3.54,7.4v2.11q1.38,0,33-29.59v-2.12Q8005.62,2021.23,7974,2050.83Zm2.36,5.28a7.5,7.5,0,0,1,1.18,3.17q2.55-.87,30.68-27.48v-3.17ZM7977.5,1942h1.18l61.36-56q-4.92,0-60.18,51.79Zm2.36,121.55,2.36,1.06,27.14-25.37v-1.06h-1.18Q8006.61,2038.14,7979.86,2063.51Zm3.54,4.23a7.46,7.46,0,0,1,1.18,3.17q1.58,0,26-23.25v-3.17Zm4.72,6.34v1.06h1.18q1.57,0,22.42-20.09v-2.11Q8010.15,2052.94,7988.12,2074.08Zm3.54,5.28,2.36,1.06q1.57,0,20.06-18v-3.17Q8012.5,2059.28,7991.66,2079.36Zm21.24-178.62-17.7,16.91h1.18l17.7-16.91Zm-16.52,183.91,2.36,1.06,17.7-16.92v-2.11Q8014.87,2066.68,7996.38,2084.65Zm4.72,4.23,2.36,1q1.77,0,15.34-13.74V2073Q8017.42,2073,8001.1,2088.88Zm184.07-180.74v1.06q25.75,19.2,38.93,69.75a75.1,75.1,0,0,1,2.36,20.09v7.4q0,69.93-69.61,111-28.52,14.81-56.64,14.8h-13q-43.45,0-83.77-31.71v1.06q41.88,34.88,88.49,34.88h10.62q48.18,0,88.5-35.94,40.11-39.27,40.11-90.89v-6.35q0-48.09-41.29-92ZM8020,2080.42l-13,12.68v1.06h1.18q1.57,0,14.16-12.68Zm-8.26,16.91v1.06h2.36l11.8-9.51a7.5,7.5,0,0,1-1.18-3.17Q8023.13,2085.71,8011.72,2097.33Zm4.72-95.12q0,75.39,36.57,107.81-31.85-35.76-31.85-100.41v-4.23q0-82.1,46-113.09,11.81-6.35,30.68-8.46,18.28,0,36.58,14.8v-1.06q-19.67-16.9-34.22-16.91h-10.62q-50.54,0-69.61,80.33A258.17,258.17,0,0,0,8016.44,2002.21Zm1.18,99.35,2.36,1.06,8.26-8.46v-2.11Q8026.66,2092.05,8017.62,2101.56Zm5.9,3.17a2.23,2.23,0,0,0,2.36,2.11q0-1.4,7.08-6.34a7.46,7.46,0,0,1-1.18-3.17Q8030,2097.33,8023.52,2104.73Zm4.72-90.9q0,78,40.11,105.7a113.68,113.68,0,0,0,24.78,3.17q34.62,0,57.82-42.28,15.33-32.24,15.34-81.38v-8.46q0-53.73-28.32-87.72-16.71-11.46-28.32-11.63h-5.9q-53.1,0-70.79,77.16A209.64,209.64,0,0,0,8028.24,2013.83Zm1.18,95.13,2.36,1.06,4.72-5.29v-1.06h-1.18C8034.26,2103.67,8032.3,2105.44,8029.42,2109Zm9.44-1.06-3.54,4.23a9.8,9.8,0,0,1,3.54,1.06l2.36-3.17C8041.22,2108.61,8040.43,2107.9,8038.86,2107.9Zm3.54,7.4h3.54v-2.11h-1.18C8043.18,2113.42,8042.4,2114.13,8042.4,2115.3Zm87.31-232.53v1.06a2.23,2.23,0,0,0,2.36,2.11l1.18-2.11A9.69,9.69,0,0,1,8129.71,1882.77Zm75.52,165.94-74.34,67.65h2.36q73.16-63.6,73.16-66.59v-1.06Zm-69.62-160.65v1h1.18c1.18,0,2.36-1,3.54-3.17H8138C8136.4,1886.18,8135.61,1886.89,8135.61,1888.06Zm8.26,0q-4.72,4.76-4.72,5.28l2.36,1.06c1.05,0,3-1.76,5.9-5.29A9.83,9.83,0,0,1,8143.87,1888.06Zm0,10.57,2.36,1,7.08-7.39H8151Q8149.38,1892.29,8143.87,1898.63Zm53.1,165.94L8147.41,2110q7.47-.89,44.84-37l5.9-8.45Zm-48.38-161.71V1905h1.18q1.57,0,9.44-8.46l-2.36-1Q8155.08,1895.46,8148.59,1902.86Zm3.54,6.34v1h1.18q1.57,0,10.62-9.51v-1.06h-1.18Q8161.17,1899.68,8152.13,1909.2Zm1.18,180.73h1.18q56.64-50.89,56.64-52.84V2035Q8153.31,2084.31,8153.31,2089.93Zm14.16-187.07-11.8,11.62v2.12h1.18q1.57,0,13-11.63C8169.83,1903.56,8169,1902.86,8167.47,1902.86Zm-9.44,19,2.36,1.06,14.16-13.74v-1.06h-1.18Q8171.6,1908.14,8158,1921.88Zm3.54,5.28v2.12h1.18q1.36,0,17.7-15.86l-2.36-1.05Q8176.32,1912.55,8161.57,1927.16Zm51.91,96.19q-50.73,45.8-50.73,47.56l-1.18,2.11h1.18q50.73-45.8,50.73-47.56l1.19-2.11Zm-49.55-88.79v2.12q1.57,0,20.06-18v-1.06h-1.18Q8181.24,1917.65,8163.93,1934.56Zm22.42-12.68-20.06,19v3.17q1.57,0,22.42-20.09C8188.71,1922.58,8187.92,1921.88,8186.35,1921.88Zm-20.06,135.29v3.17q2.35-.71,49.55-44.39v-3.17Q8213.49,2013.49,8166.29,2057.17Zm1.18-107.81,2.36,1.06,22.42-21.14v-2.12Q8190.67,1927.16,8167.47,1949.36Zm1.18,99.35q2-.35,47.19-42.27v-2.12Q8168.65,2044.13,8168.65,2048.71Zm26-116.26-24.78,23.25v3.17q1.58,0,27.14-24.31C8197,1933.15,8196.18,1932.45,8194.61,1932.45Zm3.54,6.34L8171,1964.16v2.11q1.58,0,29.5-26.42ZM8171,2036v2.11q1.58,0,44.83-40.16v-2.11Q8214.27,1995.87,8171,2036Zm1.18-64.47v3.17l31.85-27.48a7.59,7.59,0,0,1-1.17-3.17Q8200.31,1945,8172.19,1971.56Zm0,53.9v2.11q1.57,0,43.65-39.1v-2.12Q8214.27,1986.35,8172.19,2025.46Zm1.18-45.45v2.12q1.36,0,33-29.6v-1.06h-1.18Q8203.45,1951.65,8173.37,1980Zm0,8.46v3.17q1.36,0,35.39-31.71v-2.11h-1.18Q8206.22,1957.82,8173.37,1988.47Zm0,9.51v2.11q1.57,0,37.76-33.82v-2.11Q8209.36,1964.51,8173.37,1998Zm37.76-26.42-37.76,34.88v2.11q2.35-.88,40.11-35.94ZM8173.37,2016v2.11q1.77-.35,41.3-37V1979Q8212.88,1979.31,8173.37,2016Z" transform="translate(-5205.57 -286.31)"/><path class="cls-2" d="M8240.62,1880.66h139.23q73.35,0,101.48,24.31c-.79,0-1.18.35-1.18,1.06q20.06,16.73,20.06,41.22v9.51q0,42.27-54.28,59.19-16.92,5.28-40.12,5.28H8342.1q-1.77,0-3.54,3.17v39.11q0,43,10.62,50.73a2.24,2.24,0,0,0,2.36,2.12h1.18q-9.45-9-9.44-45.45v-42.28c0-1.06,1.18-2.11,3.54-3.17h62.53q61.36,0,86.14-34.88a51.8,51.8,0,0,0,9.44-29.59v-9.52q0-23.25-20.06-43.33h1.18q27.14,22.9,27.14,53.9,0,70.82-115.64,70.82h-46v63.42q0,26.41,17.7,26.42h17.69c0,1.06,1.18,2.46,3.54,4.23v6.34H8247.7c-1.83,0-4.59-1.06-8.26-3.17v-5.29a2.23,2.23,0,0,1,2.36-2.11h9.44q24,0,33-21.14,3.54-11.26,3.54-16.91V1927.16q0-25.37-17.7-25.36-19.47,0-24.78-7.4v-1.06q20.46,0,33,7.4v-1.06q-11.4-10.56-36.58-10.57l-1.18-2.11ZM8394,2128q8.27,4.76,8.26,10.57v3.17c0,1.41-.78,2.12-2.36,2.12H8258.32q-7.28,0-13-7.4v-1.06a15.25,15.25,0,0,0,7.08,2.12h140.41c1.58,0,2.36-.71,2.36-2.12v-2.11Zm-114.45-236.75,2.36,1.06,4.72-5.29h-2.36Q8282.51,1887,8279.56,1891.23Zm1.18,232.53h2.36q1.57,0,46-41.23v-2.11Q8326.75,2081.13,8280.74,2123.76Zm3.54-228.3a2.23,2.23,0,0,0,2.36,2.11l10.62-10.57h-3.54Q8292.15,1887,8284.28,1895.46Zm1.18,217.73h1.18l42.48-39.11v-3.17Q8289.19,2104,8285.46,2113.19Zm2.36-211.39,2.36,1.06L8306.7,1887h-2.36Q8302.57,1887.18,8287.82,1901.8Zm2.36,222h3.54l36.58-31.71a7.5,7.5,0,0,1-1.18-3.17Q8327.35,2089.23,8290.18,2123.76Zm1.18-216.68v2.12h1.18q1.57,0,24.78-22.2h-3.54Q8312.2,1887,8291.36,1907.08Zm1.18,190.25h1.18l35.4-32.76v-2.12Q8292.54,2093.11,8292.54,2097.33Zm1.18-182.85v2.12q1.38,0,33-29.6h-2.36Q8321.84,1887.88,8293.72,1914.48Zm1.18,7.4v3.17q1.38,0,34.22-30.65v-3.17Q8327.74,1891.23,8294.9,1921.88Zm0,9.51v2.12q1.38,0,34.22-30.65v-2.12Q8327.74,1900.74,8294.9,1931.39Zm0,8.46V1943q1.38,0,34.22-30.65v-3.17Q8327.74,1909.2,8294.9,1939.85Zm0,9.51v2.11q1.38,0,34.22-30.65v-2.11Q8327.74,1918.71,8294.9,1949.36Zm0,8.46V1961q1.38,0,34.22-30.65v-3.18Q8327.74,1927.16,8294.9,1957.82Zm0,9.51v2.11q1.38,0,34.22-30.65v-2.11Q8327.74,1936.68,8294.9,1967.33Zm0,8.45V1979q1.38,0,34.22-30.65v-3.17Q8327.74,1945.13,8294.9,1975.78Zm0,9.52v2.11q1.38,0,34.22-30.65v-2.11Q8327.74,1954.65,8294.9,1985.3Zm0,8.45v3.17q1.38,0,34.22-30.65v-3.17Q8327.74,1963.1,8294.9,1993.75Zm0,9.51v2.12q1.38,0,34.22-30.65v-2.12Q8327.74,1972.61,8294.9,2003.26Zm0,8.46v3.17q1.38,0,34.22-30.65v-3.17Q8327.74,1981.07,8294.9,2011.72Zm0,9.51v2.12q1.38,0,34.22-30.65v-2.12Q8327.74,1990.58,8294.9,2021.23Zm0,8.46v3.17q1.38,0,34.22-30.65V1999Q8327.74,1999,8294.9,2029.69Zm0,9.51v2.11q1.38,0,34.22-30.65v-2.11Q8327.74,2008.55,8294.9,2039.2Zm34.22-23.25-34.22,31.71v3.17q34.21-28.36,34.22-32.77l1.18-2.11Zm-34.22,41.22v2.11q1.38,0,34.22-30.65v-2.11Q8327.74,2026.52,8294.9,2057.17Zm0,8.45v3.17q1.38,0,34.22-30.65V2035Q8327.74,2035,8294.9,2065.62Zm0,9.52v2.11q1.38,0,34.22-30.65v-2.11Q8327.74,2044.49,8294.9,2075.14Zm0,8.45v3.17q1.38,0,34.22-30.65v-3.17Q8327.74,2052.94,8294.9,2083.59Zm5.9,40.17h2.36q1.57,0,28.32-25.37v-1.06h-1.18Q8328.73,2097.33,8300.8,2123.76Zm30.68-20.09-21.24,20.09h3.54q1.57,0,20.06-18C8333.84,2104.38,8333.05,2103.67,8331.48,2103.67ZM8335,2110l-14.16,13.74h2.36q1.58,0,14.16-12.69Zm-4.72,13.74h2.36q1.77,0,8.26-7.4v-1.06h-1.18Q8338.17,2115.3,8330.3,2123.76Zm9.44-233.59-1.18,5.29v115.2h4.72V1897.57c0-1.06,1.18-2.11,3.54-3.17h29.49q41.9,0,53.1,10.57h1.18q-12-14.81-56.63-14.8Zm1.18,233.59h2.36c1.57,0,2.36-.71,2.36-2.12v-1.06h-1.18Q8342.69,2120.58,8340.92,2123.76Zm10.62-222v108.86l5.9,1.06,5.9-1.06a10,10,0,0,1,3.54,1.06l5.9-1.06a9.92,9.92,0,0,1,3.53,1.06q42.09,0,57.82-22.2,10.62-19.9,10.62-38l-1.18-5.28v-6.34q0-37-33-37,0-1.06-8.26-1.06Zm67.25,107.81v1.05h2.36l1.18-2.11A9.9,9.9,0,0,1,8418.79,2009.61Zm9.44-118.38v1.06a2.23,2.23,0,0,0,2.36,2.11l2.36-3.17Zm0,118.38h2.36q1.57,0,59-52.85v-2.11Q8486.25,1956.4,8428.23,2009.61Zm4.72-112,2.36,1.06c0-.35,1.57-2.12,4.72-5.29v-1h-1.18Q8437.27,1892.29,8433,1897.57Zm4.72,4.23a2.23,2.23,0,0,0,2.36,2.11l8.26-8.45v-1.06h-2.36Q8444.16,1894.4,8437.67,1901.8Zm50.74,43.33q-46,41.58-46,43.34l-2.36,4.23h1.18l49.56-45.45C8490.77,1945.84,8490,1945.13,8488.41,1945.13Zm-35.4-48.62-11.8,11.63,2.36,1.06,11.8-11.63Zm-11.8,109.93h1.18q5.11,0,44.84-38l1.18-4.23Q8486.45,1964.51,8441.21,2006.44Zm3.54-93v2.12h1.18q1.77,0,16.52-14.8l-2.36-1.06Q8458.32,1899.68,8444.75,1913.42Zm2.36,7.4v1.06h1.18q1.57,0,20.06-18H8466Q8464.42,1903.91,8447.11,1920.82Zm1.18,52.85v2.11q1.77-.35,41.3-37v-2.11Q8487.82,1937,8448.29,1973.67Zm22.42-66.59-21.24,20.08v3.18q1.58,0,23.6-21.14C8473.07,1907.79,8472.28,1907.08,8470.71,1907.08Zm-21.24,59.19h1.18l36.58-33.82v-3.17q-36.58,30.83-36.58,33.82A7.46,7.46,0,0,1,8449.47,1966.27Zm1.18-30.65v2.11q1.58,0,27.14-24.31v-1.05h-1.18Q8475,1912.37,8450.65,1935.62Zm0,8.46v3.17l31.86-27.48a7.5,7.5,0,0,1-1.18-3.17Q8478.77,1917.47,8450.65,1944.08Zm0,9.51v2.11q1.38,0,34.22-30.65v-2.11Q8483.49,1922.94,8450.65,1953.59Zm30.68,25.36-22.42,21.14h1.18q17.7-12.49,22.42-21.14Z" transform="translate(-5205.57 -286.31)"/><path class="cls-1" d="M6999.27,931.43s77-109.51,202.15-109.51,153.53,178.3,307.07,178.3,199-73.87,199-73.87-159.21,221.56-383.8,221.56-199.07-147.69-324.17-147.69H6999c-125.09,0-95.52,147.69-320.13,147.69s-383.83-221.56-383.83-221.56,45.48,73.87,199,73.87,182-178.3,307.07-178.3S6999.27,931.43,6999.27,931.43Z" transform="translate(-5205.57 -286.31)"/><path class="cls-1" d="M5715.41,965.77l-31.51,4.86q-24.56,3.76-47.1,39.32-17.16,27.06-3.24,55.56,10.57,21.56,33,35.94,22.21,14.27,44.38,15.2,32,1.35,50.68-28.07,12.09-19.07,13.51-43.36,1.52-25.6-11.55-34.58l26.65,6.55q7.14,41.79-17.06,79.93-26.06,41.09-59.71,53.57-35.35,13.29-70.38-8.92-35.34-22.41-40.7-61t20.7-79.69q7-11.07,12.67-16.46l14.68-14,8.7-6.21q4.6-3.28,5.16-4.15,4.36-6.88,4.31-10.55-.19-13.07-3-15.69Z" transform="translate(-5205.57 -286.31)"/><path class="cls-1" d="M5750.8,837.23q32.93-36.62,68.09-42.81,36.68-6.39,67.88,21.67,30.73,27.66,29.72,64.95T5883.42,954Q5851,990.06,5814,995.43t-68-22.53q-30.46-27.4-28.84-64.15Q5718.84,872.77,5750.8,837.23Zm9.56,7q-20.76,23.07-11,52.44,7.46,22.38,29.05,41.81,21,18.91,44.56,23.61,30.15,6,50.81-17,20.46-22.74,11.24-51.42-7.06-22-28.11-41-22.24-20-44.81-25.22Q5781.7,820.54,5760.36,844.27Z" transform="translate(-5205.57 -286.31)"/><path class="cls-1" d="M5945.85,882.92q10.71-9.45,8.23-24.36a34.16,34.16,0,0,0-7.91-17.33L5874,759.47a29.87,29.87,0,0,0-14.75-9.44q-12.78-3.46-26.15,5.15l16.66-21.41,20.23-11L5881.19,706l23.87-14.36q-18.31,21.52-1,41.14l72.24,81.82a34.22,34.22,0,0,0,16.88,10.76q13.62,3.75,24.65-6l-17.21,21.9L5982,851l-13.61,18.72Z" transform="translate(-5205.57 -286.31)"/><path class="cls-1" d="M6007.81,824.78q9.6-10.83,8.76-27.14a30.48,30.48,0,0,0-6.07-16.56L5947.37,694a34.59,34.59,0,0,0-17.88-10,31.65,31.65,0,0,0-21.84,2.64l138.68-100.38,27.16,39.45q-18.78-9.53-52.44,2.63-20,7.18-42,23.18l.59-.43-8.85,6.41-1.3.94,35.7,49.25,3.2-2.33q10.44-7.56,17-24.25,9.23-23.45,5-35.09l52.36,72.23q-12.59-9.18-36-6.48a61.56,61.56,0,0,0-30,11.69l25,34.49q2.44,3.35,14.08,12.46,13.71,5.26,28.94-1.28l-17.22,18.69L6047,796.39l-15.8,17.67Z" transform="translate(-5205.57 -286.31)"/><path class="cls-1" d="M6144.64,724.45q10.81-9.62,11.91-25.91a30.5,30.5,0,0,0-4.05-17.16l-52.36-94a34.57,34.57,0,0,0-16.56-12.06,31.66,31.66,0,0,0-22,0l149.61-83.21,22.28,42.39q-17.51-11.68-52.38-3.62-20.7,4.77-44.49,18l.63-.35-9.54,5.32-1.4.78,29.6,53.13,3.46-1.93q11.25-6.27,19.72-22.06,11.94-22.2,9.08-34.26l43.42,77.93q-11.41-10.6-35-10.71a61.66,61.66,0,0,0-31.21,8l20.74,37.21q2,3.63,12.49,14,13,6.86,28.89,2.17l-19.31,16.51-21.29,6.11-17.79,15.66Z" transform="translate(-5205.57 -286.31)"/><path class="cls-1" d="M6292.63,641q11.84-8.34,14.77-24.4a29.58,29.58,0,0,0-1.89-17l-41.57-99.76a36.3,36.3,0,0,0-15.17-13.69,31.35,31.35,0,0,0-21.78-2.63l158.08-65.73,19.65,46.4q-18.07-15.35-53.95-11.28-21.11,2.39-46.25,12.87c2.6-1.08,2.89-1.16.86-.22s-5.52,2.43-10.18,4.37l-1.48.62,23.3,55.91,3.63-1.51q11.84-4.93,22-19.64,14.28-20.65,12.78-33L6390,554.53q-10.14-11.85-33.55-14.61a61.55,61.55,0,0,0-31.92,4.45l23.78,57.07q31.06-12.95,52.36-30.8,30.42-25.47,30.2-46.08l20.7,50.05Z" transform="translate(-5205.57 -286.31)"/><path class="cls-1" d="M6550.75,386.15q-12.1-12.09-26.6-10.81l17.25-10.17,20.57-.67,14.86-9.5,21.27-.87q-12.09,6-17.41,20.16-4.54,12.15-2,20.45L6598,458.88q11.82,39.11,2.6,57.69Q6590,537.9,6547,550.23q-68.49,19.63-84.77-37.13Q6442,442.32,6439.84,437q-1.41-6.53-10.94-14.9a47.89,47.89,0,0,0-26.17-12l21.16-11.29,23.94-1.64,18.92-10.66,26.87-2.47q-15.27,8.56-18.5,23.74a35,35,0,0,0,.4,17.27l22,76.58q6.19,21.62,14.3,27.66,11,8.1,35.86.83,31.18-9.07,36.18-27.11,3.14-11.22-4.9-39.25l-18.11-63.17Q6559.05,394.49,6550.75,386.15Z" transform="translate(-5205.57 -286.31)"/><path class="cls-1" d="M6774.53,498.25l-69-67.61-28.38,4.58,7.62,47.14a25.61,25.61,0,0,0,6,12.28q8.61,10.32,25.8,12.63l-21.9,8.76L6672,514.47l-21.48,8.69L6627,522q25.89-11.44,22.26-33.9l-17.64-109.16q-3.76-23.32-31.77-24.91l93-15.29q36.53-5.89,55.24-1.54,27.75,6.46,32.37,35,5.91,36.6-35.8,49.7,10.89,11.73,28.32,29.16a167.69,167.69,0,0,0,57,37.88L6816,496.42l-15.71-2.68L6787.9,501Zm-28.32-118.87q-5.79-35.85-56.28-27.69l-25.6,4.14,10.45,64.63q9.3-.87,17.5-2.19Q6751,408.78,6746.21,379.38Z" transform="translate(-5205.57 -286.31)"/><path class="cls-1" d="M6973.66,361.12l31.19-74.81L7034,362.07l91.32,1.44-73.38,48.25,27,75.3-76.58-45.6-77.65,43.17,29.41-74.41-71.81-50.55Z" transform="translate(-5205.57 -286.31)"/><path class="cls-1" d="M7209.59,485.79q6.12-5.48,8.24-16.45l19.33-99.55q4.58-23.57-19.95-40.23l92.85,17.9q77.1,15,68.93,57-5.65,29.11-41.56,29.83,21.3,8.73,29.29,18.86,9.64,12.26,5.79,32.11-4.8,24.68-34.6,31.43-23.13,5.24-54.74-.9l-98.55-19.13q5.21,0,13.36-3.81A46.48,46.48,0,0,0,7209.59,485.79Zm41.08,10.15q67.07,13,73.3-19.05,6.15-31.71-61-44.36ZM7266,417q67.08,13,73.31-19.05,6.15-31.71-61-44.36Z" transform="translate(-5205.57 -286.31)"/><path class="cls-1" d="M7572.28,599.23l-20-1.36-13.89-9.93-21.91-2-18.31-11.4q5.86.36,15.82-6a23.15,23.15,0,0,0,9.43-12.62,38.91,38.91,0,0,0-.14-12.5l-2.58-12.52-66.2-22.07q-13.39,11.56-15.45,17.76-3.42,10.26,7.55,26.63a24.43,24.43,0,0,0,5.54,5.95l-22-2-16.24-10.71-22.74-2.29-17.76-11.22q12.75-2.76,31.7-13.54,1.5-.82,12.79-11.63L7529.3,401.57l24.64,155.51q1.31,8.52,2.64,11.88,4.38,11.26,5.64,13.94A76.41,76.41,0,0,0,7572.28,599.23Zm-51.87-83.52-10.82-60.17L7464,496.88Z" transform="translate(-5205.57 -286.31)"/><path class="cls-1" d="M7711.1,667.79l-16.84-95.12-25.75-12.76-21.2,42.79a25.57,25.57,0,0,0-2.28,13.46q1,13.4,13.65,25.27l-22.91-5.6-17.56-14.45L7595.69,616l-18.45-14.61q27.72,5.75,37.82-14.64l49.1-99.08q10.48-21.18-11.38-38.74l84.58,41.63q33.15,16.43,45.85,30.85,18.82,21.39,6,47.29-16.46,33.21-58,19.63,2,15.88,6.1,40.19a167.44,167.44,0,0,0,24.4,64l-15.81-2.08-11.23-11.32-14.24-1.3Zm46-113.18q16.13-32.54-29.7-55.25l-23.24-11.51-29.06,58.66q8.07,4.71,15.51,8.39Q7743.93,581.3,7757.15,554.61Z" transform="translate(-5205.57 -286.31)"/><path class="cls-1" d="M7794.75,696.73q7.78-2.6,14.09-11.83l57.21-83.74q13.53-19.81-2.37-44.83l78.15,53.24q64.85,44.29,40.67,79.68-16.74,24.48-50,10.9,16.09,16.49,19.41,28.94,4,15.06-7.41,31.76-14.19,20.76-44.23,15.14-23.31-4.37-49.89-22.52l-82.89-56.63q4.77,2,13.77,1.8A46.61,46.61,0,0,0,7794.75,696.73Zm33.69,25.6q56.42,38.55,74.85,11.57,18.21-26.65-38.42-64.9Zm45.37-66.4q56.41,38.54,74.85,11.57,18.21-26.67-38.42-64.9Z" transform="translate(-5205.57 -286.31)"/><path class="cls-1" d="M7930.11,811.72q10.8,9.33,25.25,4.88a34.17,34.17,0,0,0,16.1-10.17l71.32-82.52a29.87,29.87,0,0,0,7.38-15.88q1.71-13.14-8.63-25.23L8065,696.43,8078.6,715l18.14,8.87,17.43,21.72q-23.79-15.26-40.9,4.54l-71.37,82.58a34.17,34.17,0,0,0-8.39,18.18q-1.89,14,9.24,23.61l-24-14.1-12.15-17.14-20.37-11Z" transform="translate(-5205.57 -286.31)"/><path class="cls-1" d="M8015,882.55q11.8,8.37,27.93,5.75a29.58,29.58,0,0,0,15.43-7.49l80.08-72.56a36.35,36.35,0,0,0,7.82-18.88,31.34,31.34,0,0,0-4.81-21.4l114.86,126.94L8219.21,929q8.4-22.17-7.43-54.61-9.33-19.08-27.62-39.27,2.84,3.13.5.73t-7.53-8.12l-1.08-1.19-44.88,40.67,2.64,2.92q8.61,9.49,25.86,14.12,24.24,6.54,35.33,1l-65.91,60.13q7.76-13.51,2.53-36.51a61.6,61.6,0,0,0-14.88-28.59l-45.82,41.52q22.6,24.93,46.55,39,34.19,20.13,53.53,13l-40.23,36.26Z" transform="translate(-5205.57 -286.31)"/><path class="cls-1" d="M8224.85,1152.2l35.4-89.87L8245,1038l-40.45,25.38a25.62,25.62,0,0,0-9,10.27q-6.15,12-1.58,28.69l-16.6-16.76-7.4-21.5-16.37-16.39-8.08-22.11q20.63,19.39,39.89,7.31l93.68-58.77q20-12.54,10.56-39l50.31,79.72q19.66,31.35,22.94,50.28,4.86,28.08-19.63,43.44-31.4,19.71-59.72-13.61-6.56,14.6-15.82,37.44a167.55,167.55,0,0,0-12.67,67.29l-12.38-10-3.65-15.52-11.46-8.57Zm98.45-72.37q30.76-19.3,3.58-62.62l-13.78-22L8257.64,1030q4.43,8.23,8.84,15.27Q8298.07,1095.65,8323.3,1079.83Z" transform="translate(-5205.57 -286.31)"/><path class="cls-1" d="M6840.47,2245.84s-2,15.86,14.48,36.44c10.78,13.46,74,90.38,116.46,142.14l20.27-24.15Z" transform="translate(-5205.57 -286.31)"/><path class="cls-1" d="M7129.52,2485.72c-17.42,0-32.4,11.82-39,28.8l-50-65.76-16.19-16.07c42.25-51.41,111.88-136.2,123.3-150.41,16.42-20.58,14.44-36.44,14.44-36.44l-200,202.92L6912,2514.52c-6.63-17-21.58-28.8-39-28.8-23.56,0-42.71,21.57-42.71,48.23s19.15,48.31,42.71,48.31c15.49,0,29-9.44,36.49-23.37l58.77-86.59h23.49s2.72-3.35,7.52-9.15c4.79,5.8,7.5,9.15,7.5,9.15h27.45l58.81,86.59c7.5,13.93,21,23.37,36.49,23.37,23.58,0,42.72-21.63,42.72-48.31S7153.1,2485.72,7129.52,2485.72ZM6873,2563.26c-17.67,0-32-13.12-32-29.31s14.32-29.3,32-29.3S6905,2517.78,6905,2534,6890.62,2563.26,6873,2563.26Zm125.12-121.35c-5.32,0-9.6-3.87-9.6-8.63s4.28-8.56,9.6-8.56,9.55,3.86,9.55,8.56S7003.39,2441.91,6998.12,2441.91Zm131.4,121.35c-17.65,0-31.94-13.12-31.94-29.31s14.29-29.3,31.94-29.3,32,13.13,32,29.3S7147.19,2563.26,7129.52,2563.26Z" transform="translate(-5205.57 -286.31)"/><path class="cls-1" d="M5388.56,2393.87l-18.71-19.47q-14.57-15.18-52.78-15.85-29.1-.51-44.56,20.77-11.66,16.14-12.16,37.37-.49,21,9.29,36.55,14.16,22.4,45.77,22.94a89.76,89.76,0,0,0,40-8.72q20.53-9.55,21.29-22.18l7.57,20.88q-29,22.14-70,21.43-44.19-.77-69.81-18.56-27.06-18.6-26.48-51.67.59-33.37,27.92-53t71.51-18.84a91.7,91.7,0,0,1,18.75,1.83l17.79,4.22,8.94,3.36a28.94,28.94,0,0,0,5.66,1.8c4.93.09,8.34-.39,10.21-1.42q10-5.55,10.73-8.54Z" transform="translate(-5205.57 -286.31)"/><path class="cls-1" d="M5512.63,2346.52q44.71.78,69.93,18.76,26.26,18.79,25.69,52.26-.59,33-26.71,51.81t-69.65,18.07q-44-.77-69.77-20.26T5417,2414.41q.57-32.67,26.69-50.85Q5469.25,2345.77,5512.63,2346.52Zm.9,9.44q-28.17-.49-42.44,20.72-10.86,16.17-11.27,39.33-.39,22.56,10.43,39.2,13.92,21.3,42,21.8,27.78.48,41.89-20,10.86-15.75,11.26-38.32.42-23.87-9.49-40.19Q5542.49,2356.47,5513.53,2356Z" transform="translate(-5205.57 -286.31)"/><path class="cls-1" d="M5628.48,2483.52q13,.22,20.41-9.86a24.94,24.94,0,0,0,5.28-14.44l1.52-87a21.74,21.74,0,0,0-4.13-13.5q-6.47-8.94-20.71-11.09l24.27-3.59,20.3,4.47,17.8-3.8,24.79,4.44q-25.44,2.78-25.81,23.62l-1.52,87a24.89,24.89,0,0,0,4.76,15.43q6.84,9.55,20.2,9.78l-24.93,3.58-18.45-4.33-20.57,3.65Z" transform="translate(-5205.57 -286.31)"/><path class="cls-1" d="M5735.21,2482.92a33.15,33.15,0,0,0,21.14-13.06,22.17,22.17,0,0,0,4.6-13.45l1.5-85.77a26.24,26.24,0,0,0-7.55-15,30,30,0,0,0-17.31-8.82l155.41,2.81-1.72,38.16q-8.47-15.09-39.55-23.55-18.43-5-43.17-5.46h.66l-9.92-.17-1.45,0-.85,48.5,3.59.06q11.7.21,25.53-7.27,19.47-10.49,22.69-20l-1.24,71.14q-4.15-11.9-22.65-21.45a62.08,62.08,0,0,0-28.19-7l-.59,34q-.06,3.32,3.45,14.7,7.09,9.94,21.73,13.1l-22.69,3.62-19.5-4.35-21.1,3.64Z" transform="translate(-5205.57 -286.31)"/><path class="cls-1" d="M5919.86,2482.92a33.16,33.16,0,0,0,21.13-13.06,22.17,22.17,0,0,0,4.6-13.45l1.5-85.77a26.24,26.24,0,0,0-7.55-15,30,30,0,0,0-17.31-8.82l155.42,2.81-1.73,38.16q-8.46-15.09-39.54-23.55-18.45-5-43.17-5.46h.66l-9.92-.17-1.46,0-.84,48.5,3.59.06q11.7.21,25.52-7.27,19.47-10.49,22.7-20l-1.25,71.14q-4.16-11.9-22.64-21.45a62.11,62.11,0,0,0-28.19-7l-.6,34q-.06,3.32,3.45,14.7,7.1,9.94,21.73,13.1l-22.68,3.62-19.51-4.35-21.1,3.64Z" transform="translate(-5205.57 -286.31)"/><path class="cls-1" d="M6242.6,2363.33q-7.34-12.06-20.25-14.49l17.66-3.7,18.05,4.33,15.41-3.74,18.71,4.33a32.47,32.47,0,0,0-20.44,11.27q-7.15,8.19-7.14,15.11l-.14,53.42q0,32.57-12.95,44.57-14.79,13.77-55.4,13.07-64.68-1.14-63.86-48.22,1-58.72.58-63.24.48-5.29-5.58-13.92a42.47,42.47,0,0,0-19.58-15.28l21.36-3.64,21.23,4.38,19.25-3.67,24,4.43q-15.53,2.94-22.33,13.74a25.29,25.29,0,0,0-4.21,13.26l-1.1,63.52q-.31,17.94,5.13,24.45,7.38,8.74,30.93,9.05,29.49.42,38.58-12.15,5.7-7.82,6.1-31.06l.92-52.41Q6247.62,2371.64,6242.6,2363.33Z" transform="translate(-5205.57 -286.31)"/><path class="cls-1" d="M6439.23,2485.12l-50.95-62.9-26.1-.45-.66,38.07a18.63,18.63,0,0,0,3.39,10.48q6.06,9.33,21.06,13.6l-21,3.74-20-4.46L6324.4,2487l-20.83-4.27q25-5.28,25.28-23.41l1.54-88.17q.33-18.84-24.46-24.08l85.59,1.29q33.58.58,49.63,6.68,23.79,9,23.39,32.08-.53,29.57-39.89,33.88,7.88,10.77,20.7,26.92a146.45,146.45,0,0,0,45,37.87l-13.76,3.87-13.63-4.35-12.18,3.9Zm-6.46-97.3q.51-29-45.92-29.77l-23.55-.41-.91,52.2c5.64.44,11,.69,16,.78Q6432.36,2411.57,6432.77,2387.82Z" transform="translate(-5205.57 -286.31)"/><path class="cls-1" d="M6503.69,2482.92a33.16,33.16,0,0,0,21.13-13.06,21.55,21.55,0,0,0,4.59-13.05l1.51-86.17a27.58,27.58,0,0,0-7.68-14.86,29.6,29.6,0,0,0-17.18-8.92l155.42,2.81-.44,40.18q-9.49-17-40.83-25.57-18.45-5-43.17-5.46c2.55,0,2.82.08.79.11s-5.47,0-10.06-.07l-1.45,0-.84,48.3,3.57.06q11.64.2,25.4-7.27,19.36-10.5,22.57-20l-1,71.15q-4.15-11.9-22.64-21.45a62.12,62.12,0,0,0-28.2-7l-.86,49.29q30.56.54,54.75-5.66,34.55-8.8,41.83-23.92l-.89,43.18Z" transform="translate(-5205.57 -286.31)"/><path class="cls-1" d="M7457.32,2484.51q13.92-1.46,20.82-10.36a23.58,23.58,0,0,0,4.88-14.55l.64-36.27-73.94-1.29-.64,36.27a24.4,24.4,0,0,0,4.39,14.31q6.82,10.05,20.57,11.49l-24.41,3.58-19.24-4.25-18.72,3.59-26.25-4.47q25.45-3.17,25.84-25l1.49-85.6a23.66,23.66,0,0,0-4-13.49q-6.69-10.33-20.83-11.79l23.48-3.59a40.15,40.15,0,0,1,10.48,2.19,40.47,40.47,0,0,0,10.48,2.18,35.48,35.48,0,0,0,9.83-1.83,35.36,35.36,0,0,1,9.82-1.83l24.53,4.43q-14.43.75-21.34,10.05a24.23,24.23,0,0,0-4.62,14.36l-.6,34.56,73.94,1.29.6-34.56q.39-22.24-24.83-25.29l25.73-3.56a37.44,37.44,0,0,1,9.82,2.17,37.06,37.06,0,0,0,9.82,2.18,38,38,0,0,0,10.08-1.83,38.17,38.17,0,0,1,10.09-1.83l22.81,4.41q-25.3,1.86-25.69,24.41l-1.5,85.66q-.37,21.85,24.69,25.79l-23.88,3.59-19.24-4.24-19.64,3.57Z" transform="translate(-5205.57 -286.31)"/><path class="cls-1" d="M7667.56,2346.52q44.71.78,69.93,18.76,26.27,18.79,25.69,52.26-.59,33-26.71,51.81t-69.65,18.07q-44-.77-69.77-20.26t-25.14-52.75q.57-32.67,26.69-50.85Q7624.17,2345.77,7667.56,2346.52Zm.9,9.44q-28.17-.49-42.44,20.72-10.86,16.17-11.27,39.33-.39,22.56,10.43,39.2,13.92,21.3,42,21.8,27.78.48,41.89-20,10.86-15.75,11.26-38.32.42-23.87-9.49-40.19Q7697.42,2356.47,7668.46,2356Z" transform="translate(-5205.57 -286.31)"/><path class="cls-1" d="M8008.7,2373.11l-1.57,89.63q-.09,5.52,4.31,11.21,6.47,8.43,20.55,12.49l-25.33,3.57-18.85-4.33-20.57,3.64-22.28-4.39q13.66-2.78,20.7-11.47,4.88-6,5-11.34l1.75-100.69-74.12,122.68-66.36-124.23-1.67,95.69a25.1,25.1,0,0,0,3.86,13.69q6.56,10.84,21.85,14.11l-18.85,3.68-15.28-4.27-16.87,3.71-18-4.32q11.67-1.4,18.69-9.6a25.54,25.54,0,0,0,6.65-16.82l1.5-86q.09-5.1-4.44-11.1-6.59-8.83-20.29-12.48l21.78-3.63,17.67,4.32,18.61-3.69,14,4.38,46.15,90.37,52.83-88.66,17.67-3.81,17.4,4.32,17.93-3.7,21.36,4.39a39.66,39.66,0,0,0-17.74,8.21Q8008.84,2365.09,8008.7,2373.11Z" transform="translate(-5205.57 -286.31)"/><path class="cls-1" d="M8274.34,2373.11l-1.57,89.63q-.09,5.52,4.31,11.21,6.46,8.43,20.55,12.49L8272.3,2490l-18.85-4.33-20.57,3.64-22.28-4.39q13.66-2.78,20.7-11.47,4.88-6,5-11.34l1.75-100.69-74.12,122.68-66.36-124.23-1.67,95.69a25.1,25.1,0,0,0,3.86,13.69q6.56,10.84,21.85,14.11l-18.85,3.68-15.28-4.27-16.87,3.71-18.05-4.32q11.67-1.4,18.7-9.6a25.58,25.58,0,0,0,6.64-16.82l1.5-86q.09-5.1-4.44-11.1-6.59-8.83-20.29-12.48l21.78-3.63,17.67,4.32,18.61-3.69,14,4.38,46.15,90.37,52.84-88.66,17.66-3.81,17.4,4.32,17.93-3.7,21.36,4.39a39.66,39.66,0,0,0-17.74,8.21Q8274.47,2365.09,8274.34,2373.11Z" transform="translate(-5205.57 -286.31)"/><path class="cls-1" d="M8318,2482.92a33.13,33.13,0,0,0,21.13-13.06,21.62,21.62,0,0,0,4.6-13.05l1.5-86.17a27.58,27.58,0,0,0-7.68-14.86,29.57,29.57,0,0,0-17.17-8.92l155.41,2.81-.44,40.18q-9.49-17-40.83-25.57-18.43-5-43.17-5.46,3.84.06.79.11t-10.05-.07l-1.46,0-.84,48.3,3.57.06q11.64.2,25.4-7.27,19.36-10.5,22.58-20l-1,71.15q-4.16-11.9-22.65-21.45a62.11,62.11,0,0,0-28.19-7l-.86,49.29q30.55.54,54.74-5.66,34.56-8.8,41.83-23.92l-.88,43.18Z" transform="translate(-5205.57 -286.31)"/><path class="cls-1" d="M8633.3,2385.63q-14.86-27.71-56.26-28.44-12-.21-20.06,4.46-8.68,5.07-8.58,14,.2,11.43,25,21,45.07,17.33,45.87,17.74,24.65,12.94,24.3,32.69t-19.06,30.64q-17.25,10.32-43.7,9.86a86.63,86.63,0,0,1-21.24-3.48q-15.93-4.38-19.63-5.05a19.59,19.59,0,0,0-2.9-.25q-12.18-.21-20.12,7.56l.8-37.87q18.46,17.86,28.19,22.14,10.36,4.61,34.45,5,13.09.24,22.85-5.81,10.31-6.43,10.34-16.26.09-12.72-24.62-21.77L8543.22,2415q-24.54-12.15-24.19-31.69.31-18.65,16.11-28.78,15-9.76,40-9.33,13.23.22,40.72,9.53a11.81,11.81,0,0,0,3.56.56q9.14.16,14.32-9.07Z" transform="translate(-5205.57 -286.31)"/></g></svg>