<?xml version="1.0" standalone="no"?>
<!DOCTYPE svg PUBLIC "-//W3C//DTD SVG 20010904//EN"
 "http://www.w3.org/TR/2001/REC-SVG-20010904/DTD/svg10.dtd">
<svg version="1.0" xmlns="http://www.w3.org/2000/svg"
 width="700.000000pt" height="700.000000pt" viewBox="0 0 700.000000 700.000000"
 preserveAspectRatio="xMidYMid meet">
<metadata>
Created by potrace 1.14, written by Peter Selinger 2001-2017
</metadata>
<g transform="translate(0.000000,700.000000) scale(0.100000,-0.100000)"
fill="#000000" stroke="none">
<path d="M0 3500 l0 -3500 3500 0 3500 0 0 3500 0 3500 -3500 0 -3500 0 0
-3500z m2765 678 c243 -40 523 -213 713 -442 l41 -50 92 97 c223 237 490 378
766 406 162 17 282 -9 421 -90 38 -23 138 -115 296 -272 304 -304 397 -375
566 -431 108 -36 235 -47 397 -35 287 20 502 88 671 213 46 34 60 41 51 25
-21 -40 -332 -344 -439 -429 -312 -248 -634 -408 -970 -481 -92 -20 -133 -23
-330 -24 -244 0 -329 11 -485 62 -192 62 -291 129 -525 358 -146 142 -188 178
-248 207 -97 49 -163 61 -297 56 -191 -9 -256 -46 -495 -288 -225 -227 -337
-297 -565 -355 -207 -53 -521 -59 -740 -15 -433 86 -870 347 -1263 754 -146
152 -183 201 -104 138 67 -52 209 -124 308 -155 239 -75 561 -93 744 -40 75
21 211 93 290 152 36 27 158 143 271 259 113 115 234 231 270 257 178 131 324
163 564 123z"/>
</g>
</svg>
